<?xml version="1.0" encoding="utf-8"?>
<!-- Generator: Adobe Illustrator 26.0.1, SVG Export Plug-In . SVG Version: 6.00 Build 0)  -->
<svg version="1.1" id="Layer_1" xmlns="http://www.w3.org/2000/svg" xmlns:xlink="http://www.w3.org/1999/xlink" x="0px" y="0px"
	 viewBox="0 0 36 36" style="enable-background:new 0 0 36 36;" xml:space="preserve">
<style type="text/css">
	.st0{enable-background:new    ;}
	.st1{fill:#07C39F;}
	.st2{fill:#FFFFFF;}
	.st3{fill:#059E81;}
</style>
<g>
	<g class="st0">
		<g>
			<polygon class="st1" points="28.5,18.8 25.1,16.9 25.1,14.8 28.5,16.7 			"/>
		</g>
		<g>
			<polygon class="st1" points="18.3,27.7 14.9,25.8 16.7,24 20.1,25.9 			"/>
		</g>
		<g>
			<polygon class="st1" points="20.1,25.9 16.7,24 13.2,20.3 16.6,22.2 			"/>
		</g>
		<g>
			<polygon class="st1" points="14.8,20.7 11.4,18.9 25.1,16.9 28.5,18.8 			"/>
		</g>
		<g>
			<path class="st1" d="M16.6,22.2l-3.4-1.9c-0.6-0.8-1.3-1.2-1.8-1.5l3.4,1.9C15.3,21,15.9,21.4,16.6,22.2z"/>
		</g>
		<g>
			<polygon class="st2" points="14.8,18.6 11.4,16.8 25.1,14.8 28.5,16.7 			"/>
		</g>
		<g>
			<polygon class="st1" points="16.6,16.6 13.2,14.8 16.7,10.1 20.1,11.9 			"/>
		</g>
		<g>
			<path class="st1" d="M15.6,17.8L12.2,16c0.2-0.2,0.5-0.6,1-1.2l3.4,1.9C16.1,17.2,15.8,17.6,15.6,17.8z"/>
		</g>
		<g>
			<path class="st1" d="M12,16.2c0.1-0.1,0.1-0.2,0.2-0.2l3.4,1.9c0,0.1-0.1,0.1-0.2,0.2C14.3,17.4,13.1,16.8,12,16.2z"/>
		</g>
		<g>
			<path class="st1" d="M12,16.2c1.1,0.6,2.3,1.2,3.4,1.9c-0.2,0.2-0.4,0.4-0.6,0.6l-3.4-1.9C11.6,16.6,11.8,16.4,12,16.2z"/>
		</g>
		<g>
			<polygon class="st1" points="20.1,11.9 16.7,10.1 15,8.8 18.4,10.6 			"/>
		</g>
		<g>
			<path class="st3" d="M23.9,4.2l3.4,1.9c-2-1.1-4.4-1.6-7-1.2L16.8,3C19.4,2.7,21.8,3.1,23.9,4.2z"/>
		</g>
		<g>
			<polygon class="st2" points="11.2,20.2 7.8,18.3 15,8.8 18.4,10.6 			"/>
		</g>
		<g>
			<path class="st1" d="M20.3,4.9c7.4-1,13.3,4.7,13.2,12.6c-0.1,7.9-6,15.1-13.3,16.1c0,0-0.1,0-0.1,0C12.6,34.6,6.7,29,6.8,21
				c0.1-7.9,6-15.1,13.4-16.1C20.2,4.9,20.2,4.9,20.3,4.9z M28.5,18.8l0-2.1l-13.7,1.9c0.3-0.2,0.7-0.6,0.8-0.8
				c0.2-0.2,0.5-0.6,1-1.2l3.6-4.7l-1.8-1.3l-7.1,9.5l7.1,7.5l1.8-1.8l-3.5-3.7c-0.6-0.8-1.3-1.2-1.8-1.5L28.5,18.8"/>
		</g>
		<g>
			<path class="st2" d="M18.4,10.6l1.8,1.3l-3.6,4.7c-0.5,0.6-0.8,1-1,1.2c-0.2,0.2-0.5,0.6-0.8,0.8l13.7-1.9l0,2.1l-13.7,1.9
				c0.5,0.3,1.1,0.7,1.8,1.5l3.5,3.7l-1.8,1.8l-7.1-7.5L18.4,10.6z"/>
		</g>
		<g>
			<path class="st3" d="M13,32.4l-3.4-1.9c-3.8-2-6.2-6.2-6.2-11.4C3.5,11.3,9.4,4,16.7,3c0,0,0.1,0,0.1,0l3.4,1.9c0,0-0.1,0-0.1,0
				C12.8,5.9,6.9,13.1,6.8,21C6.7,26.2,9.2,30.4,13,32.4z"/>
		</g>
	</g>
</g>
</svg>
