<?xml version="1.0" encoding="utf-8"?>
<!-- Generator: Adobe Illustrator 26.0.2, SVG Export Plug-In . SVG Version: 6.00 Build 0)  -->
<svg version="1.1" id="Layer_1" xmlns="http://www.w3.org/2000/svg" xmlns:xlink="http://www.w3.org/1999/xlink" x="0px" y="0px"
	 viewBox="0 0 600 800" style="enable-background:new 0 0 600 800;" xml:space="preserve">
<style type="text/css">
	.st0{fill:#9657B6;}
	.st1{fill:#FBD854;}
	.st2{fill:#FBAE2F;}
	.st3{fill:#8D3A40;}
	.st4{fill:#FB504D;}
	.st5{fill:#FC6949;}
	.st6{fill:#F87E37;}
	.st7{fill:#ADC6FF;}
	.st8{fill:none;}
	.st9{fill:#8FF4EE;}
	.st10{fill:#FF935E;}
	.st11{fill:#8AC8E1;}
</style>
<rect x="-0.1" y="-1" class="st0" width="601.3" height="802.7"/>
<g>
	<polygon class="st1" points="48.5,-32 272.1,548.4 241.4,561.7 -77.1,49.9 	"/>
	<polygon class="st1" points="-213.5,172 262.8,593.4 252.9,614.6 -295.1,388.8 	"/>
	<polygon class="st1" points="228.4,-56.3 288.9,539.2 306.3,539.2 383,-54.5 	"/>
	<polygon class="st1" points="551.9,-41 326.4,548.4 357.1,561.7 677.4,41 	"/>
	<polygon class="st1" points="812,172 335.7,593.4 345.6,614.6 893.6,388.8 	"/>
</g>
<path class="st1" d="M571.7,845.7c12-31.9,18.7-66.4,18.7-102.4c0-160-129.7-289.7-289.7-289.7S10.8,583.2,10.8,743.2
	c0,36.1,6.6,70.6,18.7,102.4L571.7,845.7L571.7,845.7z"/>
<path class="st2" d="M508.2,828.2c11.7-27.3,18.2-57.3,18.2-88.8c0-124.7-101.1-225.8-225.8-225.8S74.8,614.7,74.8,739.4
	c0,31.5,6.5,61.6,18.2,88.8H508.2z"/>
<g>
	<g>
		<path class="st3" d="M293,363.5v36.6h-53.7l0,0c0,29.7,24,53.7,53.7,53.7l0,0v57l-10.8-10.3L259.5,517H293h6.3h1.9V363.5H293z"/>
		<path class="st4" d="M313.2,509.8l0.1-56.1h53.6c-11.6,0-22.3-3.7-31.1-9.9h31.1c-29.7,0-53.7-24-53.7-53.7v-26.5H305v36.6h-53.7
			l0,0c0,29.7,24,53.7,53.7,53.7l0,0v55.2l-8.8-8.6L273.5,517h27.8h3.8h8.2h24l-17-11.4L313.2,509.8z"/>
		<path class="st5" d="M250.7,326.3h-65.1V212.6H214c20.2,0,36.6,16.4,36.6,36.6L250.7,326.3L250.7,326.3z"/>
		<g>
			<path class="st6" d="M293,433.6L293,433.6L293,433.6L293,433.6z"/>
			<path class="st6" d="M507.7,326.2c0-59.3-48.1-107.3-107.4-107.3C341.1,218.9,293,267,293,326.2l0.2,0.1H293H185.7
				c0,59.2,48.1,107.3,107.3,107.3l0.1-0.2v0.2c59.3,0,107.3-48.1,107.3-107.3h-0.1l0.1-0.1L507.7,326.2L507.7,326.2z"/>
		</g>
		<path class="st2" d="M293,326.3L293,326.3c59.3,0,107.3,48.1,107.3,107.3l0,0H293V326.3z"/>
		<path class="st4" d="M213,212.6h-23.1c-12.7,0-23.1-10.3-23.1-23.1l0,0c0-12.7,10.3-23.1,23.1-23.1H213V212.6z"/>
		<path class="st4" d="M236.1,212.6H213l0,0c0-25.6,20.7-46.3,46.3-46.3h23.1l0,0C282.3,191.9,261.6,212.6,236.1,212.6z"/>
		<polygon class="st6" points="185.7,239.7 156.7,239.7 185.7,212.6 		"/>
		<polygon class="st3" points="185.7,212.6 156.7,212.6 185.7,239.7 		"/>
		<path class="st4" d="M185.7,299.7v-60.6l-18,19.3C153.1,274.2,164.2,299.7,185.7,299.7L185.7,299.7z"/>
		<polygon class="st7" points="250.7,282 239.9,294.7 229.1,282 218.2,294.7 207.4,282 196.5,294.7 185.7,282 185.7,326.3 
			250.7,326.3 		"/>
		<path class="st2" d="M250.7,284L250.7,284v10.8l-10.9,12.7L229,294.8l-10.9,12.7l-10.9-12.7l-10.9,12.7l-10.8-12.7v31.6h65.1H293
			C269.7,326.3,250.7,307.3,250.7,284z"/>
		<circle class="st7" cx="206.5" cy="228.4" r="8.8"/>
		<circle class="st0" cx="206.5" cy="228.4" r="5.6"/>
		<g>
			<path class="st8" d="M454.6,233.6c-0.3-2.6-0.6-5.1-0.6-7.8v7.4C454.2,233.5,454.4,233.6,454.6,233.6z"/>
			<path class="st2" d="M507.3,317.4c0.3,2.9,0.3,5.9,0.3,8.8v-8.8l0,0C507.6,317.4,507.5,317.4,507.3,317.4z"/>
			<path class="st4" d="M461.1,326.2c-4.4-7.8-7-16.8-7-26.5v17.7v8.9v8.5v2.9c0,29.7,24,53.7,53.7,53.7v-65.1L461.1,326.2
				L461.1,326.2z"/>
			<path class="st9" d="M407.2,326.2c-4.4-7.8-7-16.8-7-26.5v17.7v9v8.4v2.7c0,29.8,24.1,53.9,53.9,53.9v-65h-47L407.2,326.2z"/>
			<path class="st7" d="M406.3,288.4L406.3,288.4c-3.9-7.4-6.1-15.7-6.1-24.6v15.8v8.8v11.1c0,9.7,2.6,18.9,7.1,26.8
				c9.3,16.2,26.8,27.2,46.8,27.2v-27.2v-8.8C433.3,317.4,415.2,305.6,406.3,288.4z"/>
			<path class="st2" d="M507.3,317.4c-20.6-0.2-38.5-11.9-47.3-29.1l0,0l0,0c-3.8-7.4-6-15.7-6-24.6v15.8v8.8v8.6v2.8
				c0,9.7,2.6,18.7,7,26.5c9.2,16.2,26.7,27.2,46.7,27.2v-27.2C507.7,323.3,507.6,320.3,507.3,317.4z"/>
			<path class="st10" d="M408,253.6l1.3-1.2c-3.8-7.4-9.1-15.7-9.1-24.6v15.8v8.9v8.5v2.7c0,9,2.2,17.4,6.1,24.9
				c9,17.3,27,29.1,47.8,29.1V300v-11.4v-8.8C434.5,279.6,417.3,269.1,408,253.6z"/>
			<path class="st11" d="M500.8,288.4c-1.3-3.4-2.7-6.8-4.4-10c-4.8-9.6-10.9-18.3-18.2-26c-6.9-7.3-14.9-13.6-23.6-18.7
				c-0.2-0.1-0.3-0.3-0.6-0.3v10.3v8.8v11.4c0,8.9,2.1,17.3,6,24.6c8.9,17.2,26.7,28.9,47.3,29.1
				C506.5,307.3,504.3,297.6,500.8,288.4z"/>
			<path class="st4" d="M409,219.3c-2.8-0.3-5.7-0.3-8.6-0.3c-0.1,0-0.2,0-0.3,0v6.7c0,9.7,2.6,18.9,7.1,26.8
				c9.3,16.2,26.8,27.2,46.8,27.2v-15.8l0,0v-11.4v-8.8v-10.3C440.6,225.5,425.3,220.6,409,219.3z"/>
		</g>
	</g>
</g>
<g>
	<polygon class="st5" points="88,831.9 8.9,831.9 8.9,601.3 46.3,553.9 88,601.3 	"/>
	<polygon class="st5" points="172.1,831.9 92.9,831.9 92.9,601.3 130.4,553.9 172.1,601.3 	"/>
	<polygon class="st5" points="256.1,831.9 177,831.9 177,601.3 214.4,553.9 256.1,601.3 	"/>
	<polygon class="st5" points="340.2,831.9 261,831.9 261,601.3 298.5,553.9 340.2,601.3 	"/>
	<polygon class="st5" points="424.2,831.9 345.1,831.9 345.1,601.3 382.5,553.9 424.2,601.3 	"/>
	<polygon class="st5" points="508.3,831.9 429.1,831.9 429.1,601.3 466.6,553.9 508.3,601.3 	"/>
	<polygon class="st5" points="592.3,831.9 513.2,831.9 513.2,601.3 550.6,553.9 592.3,601.3 	"/>
</g>
<rect x="-13.1" y="650.1" class="st4" width="631.4" height="23.7"/>
<rect x="-13.1" y="754.6" class="st4" width="631.4" height="23.7"/>
</svg>
