<?xml version="1.0" encoding="utf-8"?>
<!-- Generator: Adobe Illustrator 26.0.1, SVG Export Plug-In . SVG Version: 6.00 Build 0)  -->
<svg version="1.1" id="Layer_1" xmlns="http://www.w3.org/2000/svg" xmlns:xlink="http://www.w3.org/1999/xlink" x="0px" y="0px"
	 viewBox="0 0 600 800" style="enable-background:new 0 0 600 800;" xml:space="preserve">
<rect x="-8.2" y="-11.8" style="fill:#ADC6FF;" width="618.4" height="824.5"/>
<circle style="fill:#AAEEFD;" cx="298" cy="364.1" r="278.6"/>
<g>
	<g>
		<g>
			<path style="fill:#9657B6;" d="M515.4,508.9c2.1-2.1,2.1-5.5,0-7.7l-60.5-59.8v-52l86.3,86c16.3,16.3,16.3,42.9,0,59.2
				L515.4,508.9z"/>
		</g>
	</g>
</g>
<g>
	<rect x="212.8" y="638" style="fill:#663682;" width="38.7" height="162.5"/>
	<rect x="354.8" y="638" style="fill:#663682;" width="38.7" height="162.5"/>
	<path style="fill:#FB504D;" d="M300.6,139.2L300.6,139.2c43.6,0,83.1,17.1,112.3,44.9c31.2,29.7,50.6,71.6,50.6,118V390H137.6
		v-87.8c0-47.9,20.7-91,53.6-120.8C220.1,155.2,258.5,139.2,300.6,139.2z"/>
	<path style="fill:#ADC6FF;" d="M300.6,668.6L300.6,668.6c-34.7,0-66.9-10.9-93.4-29.4c-42.1-29.5-69.5-78.3-69.5-133.5v-87.8h325.9
		v87.8c0,52.6-24.9,99.4-63.6,129.2C372.4,656,337.9,668.6,300.6,668.6z"/>
	
		<rect x="137.6" y="380.3" transform="matrix(-1 -7.272906e-11 7.272906e-11 -1 601.1256 937.8185)" style="fill:#FB504D;" width="325.9" height="177.2"/>
	<path style="fill:#FBAE2F;" d="M300.6,171.6L300.6,171.6c-90,0-154.5,72.9-154.5,162.9l0,223c21.7,64.6,82.6,111.1,154.5,111.1h0
		c71.9,0,132.8-46.5,154.5-111.1l0.2-223C455.2,244.5,390.5,171.6,300.6,171.6z"/>
	<path style="fill:#FB504D;" d="M461.8,413.8H139.3c-9.1,0-16.5-7.4-16.5-16.5v0c0-9.1,7.4-16.5,16.5-16.5h322.5
		c9.1,0,16.5,7.4,16.5,16.5v0C478.3,406.5,470.9,413.8,461.8,413.8z"/>
	<path style="fill:#FBAE2F;" d="M458.4,590.5H142.7c-9.1,0-16.5-7.4-16.5-16.5l0,0c0-9.1,7.4-16.5,16.5-16.5h315.7
		c9.1,0,16.5,7.4,16.5,16.5l0,0C474.9,583.1,467.5,590.5,458.4,590.5z"/>
	<path style="fill:#FFFDFF;" d="M390.7,350.3H210.4c-12.9,0-23.4-10.5-23.4-23.4v-63.3c0-12.9,10.5-23.4,23.4-23.4h180.3
		c12.9,0,23.4,10.5,23.4,23.4v63.3C414.1,339.8,403.7,350.3,390.7,350.3z"/>
	<g>
		<path style="fill:#FBD854;" d="M123.3,357.8h5.6c4.8,0,8.8-3.9,8.8-8.8v-54.3c0-4.8-3.9-8.8-8.8-8.8h-5.6c-4.8,0-8.8,3.9-8.8,8.8
			V349C114.6,353.9,118.5,357.8,123.3,357.8z"/>
		<g>
			<circle style="fill:#FE9C99;" cx="63.3" cy="323.3" r="2.7"/>
			<path style="fill:#FBAE2F;" d="M102.3,327.8l12.2,1.6v-12.1l-12.2,1.6c0.1,1.3,0.2,2.8,0.2,4.5S102.5,326.5,102.3,327.8z"/>
			<ellipse style="fill:#FE9C99;" cx="87.1" cy="323.3" rx="3.9" ry="12.7"/>
			<ellipse style="fill:#FE9C99;" cx="101.2" cy="323.3" rx="5.2" ry="17.2"/>
			<g>
				<path style="fill:#FB504D;" d="M101.2,331.6c0.5,0,0.9-1.5,1.1-3.8l-2.2-0.3C100.3,329.9,100.7,331.6,101.2,331.6z"/>
				<path style="fill:#FB504D;" d="M101.2,315c-0.5,0-0.9,1.7-1.1,4.1l2.2-0.3C102.1,316.5,101.7,315,101.2,315z"/>
			</g>
			<g>
				<path style="fill:#FB504D;" d="M87.1,330.2c0.5,0,1-1.7,1.1-4.2l-2.3-0.3C86.1,328.3,86.6,330.2,87.1,330.2z"/>
				<path style="fill:#FB504D;" d="M87.1,316.4c-0.5,0-1,1.9-1.2,4.5l2.3-0.3C88,318.2,87.6,316.4,87.1,316.4z"/>
				<path style="fill:#FBAE2F;" d="M85.9,320.9l-18.6,2.4l18.6,2.4l2.3,0.3c0.1-0.8,0.1-1.7,0.1-2.7s0-1.9-0.1-2.7L85.9,320.9z"/>
			</g>
			<path style="fill:#FBAE2F;" d="M90.8,320.3c0.1,1,0.1,2,0.1,3c0,1,0,2-0.1,3l9.3,1.2l2.2,0.3c0.1-1.3,0.2-2.8,0.2-4.5
				s-0.1-3.2-0.2-4.5l-2.2,0.3L90.8,320.3z"/>
		</g>
		<path style="fill:#FBD854;" d="M477.8,286h-5.6c-4.8,0-8.8,3.9-8.8,8.8V349c0,4.8,3.9,8.8,8.8,8.8h5.6c4.8,0,8.8-3.9,8.8-8.8
			v-54.3C486.6,289.9,482.7,286,477.8,286z"/>
		<g>
			<circle style="fill:#FE9C99;" cx="537.8" cy="320.5" r="2.7"/>
			<path style="fill:#FBAE2F;" d="M498.8,316l-12.2-1.6v12.1l12.2-1.6c-0.1-1.3-0.2-2.8-0.2-4.5C498.6,318.8,498.7,317.3,498.8,316z
				"/>
			<ellipse style="fill:#FE9C99;" cx="514" cy="320.5" rx="3.9" ry="12.7"/>
			<ellipse style="fill:#FE9C99;" cx="499.9" cy="320.5" rx="5.2" ry="17.2"/>
			<g>
				<path style="fill:#FB504D;" d="M499.9,312.2c-0.5,0-0.9,1.5-1.1,3.8l2.2,0.3C500.8,313.8,500.4,312.2,499.9,312.2z"/>
				<path style="fill:#FB504D;" d="M499.9,328.8c0.5,0,0.9-1.7,1.1-4.1l-2.2,0.3C499,327.2,499.4,328.8,499.9,328.8z"/>
			</g>
			<g>
				<path style="fill:#FB504D;" d="M514,313.6c-0.5,0-1,1.7-1.1,4.2l2.3,0.3C515,315.5,514.6,313.6,514,313.6z"/>
				<path style="fill:#FB504D;" d="M514,327.3c0.5,0,1-1.9,1.2-4.5l-2.3,0.3C513.1,325.6,513.5,327.3,514,327.3z"/>
				<path style="fill:#FBAE2F;" d="M515.2,322.8l18.6-2.4l-18.6-2.4l-2.3-0.3c-0.1,0.8-0.1,1.7-0.1,2.7s0,1.9,0.1,2.7L515.2,322.8z"
					/>
			</g>
			<path style="fill:#FBAE2F;" d="M510.3,323.5c-0.1-1-0.1-2-0.1-3s0-2,0.1-3l-9.3-1.2l-2.2-0.3c-0.1,1.3-0.2,2.8-0.2,4.5
				c0,1.6,0.1,3.2,0.2,4.5l2.2-0.3L510.3,323.5z"/>
		</g>
	</g>
	<path style="fill:#FB504D;" d="M464.1,557.5H137c-6,0-10.9-4.9-10.9-10.9l0,0c0-6,4.9-10.9,10.9-10.9h327.1c6,0,10.9,4.9,10.9,10.9
		l0,0C475,552.6,470.1,557.5,464.1,557.5z"/>
	<path style="fill:#FB504D;" d="M446.2,612.4h-294c-4.6,0-8.3-3.7-8.3-8.3v-5.3c0-4.6,3.7-8.3,8.3-8.3h294c6,0,10.9,4.9,10.9,10.9v0
		C457.2,607.5,452.3,612.4,446.2,612.4z"/>
	<path style="fill:#FBAE2F;" d="M189.2,800.1h87.6v-14.5c0-18.6-15.1-33.6-33.6-33.6H222c-18.1,0-32.8,14.7-32.8,32.8V800.1z"/>
	<rect x="189.2" y="781.4" style="fill:#FC6949;" width="87.6" height="18.7"/>
	<path style="fill:#FBAE2F;" d="M330.3,800.1h87.6v-14.5c0-18.6-15.1-33.6-33.6-33.6h-21.1c-18.1,0-32.8,14.7-32.8,32.8V800.1z"/>
	<rect x="330.3" y="781.4" style="fill:#FC6949;" width="87.6" height="18.7"/>
	<path style="fill:#FF7A63;" d="M468,382.1c-1.9-0.8-4-1.2-6.2-1.2H139.3c-2.2,0-4.3,0.4-6.2,1.2c1,5.9,6.1,10.4,12.2,10.4h310.5
		C462,392.5,467.1,388,468,382.1z"/>
	<path style="fill:#FF7A63;" d="M468,536.9c-1.9-0.8-4-1.2-6.2-1.2H139.3c-2.2,0-4.3,0.4-6.2,1.2c1,5.9,6.1,10.4,12.2,10.4h310.5
		C462,547.3,467.1,542.8,468,536.9z"/>
	<path style="fill:#FF7A63;" d="M451.3,591.7c-1.7-0.8-3.6-1.2-5.6-1.2H155.5c-2,0-3.9,0.4-5.6,1.2c0.9,5.9,5.5,10.4,11,10.4h279.4
		C445.8,602.1,450.4,597.6,451.3,591.7z"/>
	<path style="fill:#FBD854;" d="M464.7,558.8c-1.9-0.8-3.9-1.2-6.1-1.2h-316c-2.2,0-4.2,0.4-6.1,1.2c0.9,5.9,5.9,10.4,12,10.4h304.3
		C458.7,569.1,463.7,564.6,464.7,558.8z"/>
	<g>
		<path style="fill:#FFFDFF;" d="M339.2,179.1c-0.2,0-0.5,0-0.7-0.1c-12.2-3.1-24.9-4.6-37.9-4.6c-1.5,0-2.8-1.3-2.8-2.8
			s1.3-2.8,2.8-2.8c13.4,0,26.7,1.6,39.3,4.8c1.5,0.4,2.4,1.9,2,3.4C341.6,178.2,340.4,179.1,339.2,179.1z"/>
	</g>
	<g>
		<path style="fill:#FFFDFF;" d="M389.5,202.5c-0.6,0-1.1-0.2-1.6-0.5c-3.7-2.6-7.5-5.1-11.4-7.4c-1.3-0.8-1.8-2.5-1-3.8
			c0.8-1.3,2.5-1.8,3.8-1c4,2.4,8,5,11.8,7.7c1.3,0.9,1.5,2.7,0.6,3.9C391.2,202.1,390.4,202.5,389.5,202.5z"/>
	</g>
	<g>
		<path style="fill:#FFFDFF;" d="M442.7,271.2c-1.1,0-2.2-0.7-2.6-1.8c-8.3-20.7-20.4-38.8-35.9-53.8c-1.1-1.1-1.1-2.9-0.1-4
			c1.1-1.1,2.9-1.1,4-0.1c16,15.6,28.6,34.3,37.2,55.7c0.6,1.4-0.1,3.1-1.6,3.7C443.4,271.1,443,271.2,442.7,271.2z"/>
	</g>
</g>
<g>
	<path style="fill:#9657B6;" d="M392.6,451.3c11.2,9.3,23.7,14.2,33.2,13.7l7.1-7.1l-23.5-23.5L392.6,451.3z"/>
	<path style="fill:#FBD854;" d="M388.9,455.1c10.1,8.4,20.8,13.7,30.4,14.5c0.7,0.1,1.3,0.1,2,0.1l4.6-4.6c-10.1-0.1-22-5.1-33-13.9
		L388.9,455.1z"/>
</g>
<g>
	<path style="fill:#8886FC;" d="M219.4,620.2l44.9-53.7c0,0,37.5,6.2,52.7-3.4c15.1-9.6,19.6-28.6-2-22
		c-32.3,9.8-33.5-29.7-14.1-36.2c5-1.7-14.8-2.9-13.7-15.9c0.3-3.6,21.6-17,17.9-15.3c-22,10.3-27.2-25.9-10.3-39.4
		c15.2-12.1,24.8-8,24.5-17.1c-0.3-11-25-15.9-43.8,3.4s-35,41.6-55.7,49.9l-70-0.5c-35.7,8.5-54.7,47.6-39.3,80.9l21.6,46.7
		C147.7,631.1,189.8,641.9,219.4,620.2z"/>
	<path style="fill:#8D3A40;" d="M565.5,402.9c8-3.7,11.5-13.2,7.8-21.2c-3.7-8-13.2-11.5-21.2-7.8c-1.1,0.5-82.2,17.3-82.2,17.3
		l-2.8,13.8l8.7,18.8l11.8-4.9l3.1,2.4c7,5.4,16.9,5,23.5-0.9l16.8-14.9c5.7-5.1,13.9-6.1,20.7-2.6c0.1,0.1,0.2,0.1,0.4,0.2
		c0,0,0,0,0,0l0,0C556.2,404.8,561.1,405,565.5,402.9z"/>
	<polygon style="fill:#8D3A40;" points="281.9,518.7 267.7,488.1 467.1,405 475.8,423.7 	"/>
	<path style="fill:#FFFDFF;" d="M167.5,572.1l-14.6-32.1c-7-15.3,1.3-33.2,17.4-37.9l75.1-21.8c4.1-1.2,8.5,1.2,9.6,5.4l5.4,19.5
		c0.8,2.9,2.1,5.6,3.8,8.1l11.3,16.7c2.4,3.6,1.5,8.4-2.2,10.8l-65.7,43C193.5,593,174.5,587.5,167.5,572.1z"/>
	<g>
		<polygon style="fill:#FFFDFF;" points="474.6,421.1 471.2,413.9 474.6,421.1 		"/>
		<polygon style="fill:#FFFDFF;" points="268.2,489 275,504 281.9,518.7 282.3,518.5 268.7,488.8 		"/>
		<polygon style="fill:#FFFDFF;" points="290.8,478.6 304.1,507.6 305.1,507 291.8,478.2 		"/>
		<polygon style="fill:#FFFDFF;" points="408,430.1 417.1,449.9 418.1,449.4 409,429.7 		"/>
		<polygon style="fill:#FFFDFF;" points="384.5,440.1 394.3,461.3 395.3,460.8 385.6,439.6 		"/>
		<polygon style="fill:#FFFDFF;" points="396.2,435.1 405.7,455.6 406.7,455.1 397.3,434.7 		"/>
		<polygon style="fill:#FFFDFF;" points="443.2,415.1 451.3,432.8 452.3,432.2 444.2,414.7 		"/>
		<polygon style="fill:#FFFDFF;" points="279.2,484 292.7,513.3 293.7,512.8 280.3,483.5 		"/>
		<polygon style="fill:#FFFDFF;" points="454.9,410.2 462.7,427 463.7,426.5 456,409.7 		"/>
		<polygon style="fill:#FFFDFF;" points="431.4,420.1 439.9,438.5 440.9,437.9 432.5,419.7 		"/>
		<polygon style="fill:#FFFDFF;" points="419.7,425.1 428.5,444.2 429.5,443.7 420.8,424.7 		"/>
		<polygon style="fill:#FFFDFF;" points="314.1,468.4 326.9,496.1 327.9,495.6 315.2,467.9 		"/>
		<polygon style="fill:#FFFDFF;" points="337.6,458.4 349.7,484.7 350.7,484.2 338.6,457.9 		"/>
		<polygon style="fill:#FFFDFF;" points="348.8,454.1 360.1,478.5 361.1,478 349.8,453.6 		"/>
		<polygon style="fill:#FFFDFF;" points="302.4,473.4 315.5,501.9 316.5,501.3 303.5,472.9 		"/>
		<polygon style="fill:#FFFDFF;" points="325.8,463.4 338.3,490.4 339.3,489.9 326.9,462.9 		"/>
		<polygon style="fill:#FFFDFF;" points="372.8,443.4 383.9,467.6 384.9,467 373.8,443 		"/>
		<polygon style="fill:#FFFDFF;" points="361,448.4 372.5,473.3 373.5,472.8 362.1,448 		"/>
		<polygon style="fill:#FFFDFF;" points="474.6,421.1 471.2,413.9 467.1,405 466.6,405.2 474.1,421.3 		"/>
	</g>
	<line style="fill:none;stroke:#663682;stroke-miterlimit:10;" x1="481.5" y1="400" x2="153.4" y2="538"/>
	<line style="fill:none;stroke:#663682;stroke-miterlimit:10;" x1="496" y1="397.1" x2="155.8" y2="544.7"/>
	<line style="fill:none;stroke:#663682;stroke-miterlimit:10;" x1="510.5" y1="394.1" x2="159.1" y2="550"/>
	<line style="fill:none;stroke:#663682;stroke-miterlimit:10;" x1="526.2" y1="390" x2="162.5" y2="556.2"/>
	<line style="fill:none;stroke:#663682;stroke-miterlimit:10;" x1="539.5" y1="387.4" x2="165.2" y2="562.3"/>
	<line style="fill:none;stroke:#663682;stroke-miterlimit:10;" x1="554" y1="385.3" x2="168" y2="568.7"/>
	<g>
		<circle style="fill:#FFFDFF;" cx="480.2" cy="397.4" r="3"/>
		<circle style="fill:#FFFDFF;" cx="494.7" cy="394.4" r="3"/>
		<circle style="fill:#FFFDFF;" cx="509.2" cy="391.5" r="3"/>
		<circle style="fill:#FFFDFF;" cx="523.6" cy="388.5" r="3"/>
		<circle style="fill:#FFFDFF;" cx="538.1" cy="385.6" r="3"/>
		<circle style="fill:#FFFDFF;" cx="552.6" cy="382.6" r="3"/>
	</g>
	
		<rect x="133.6" y="549.1" transform="matrix(0.4201 0.9075 -0.9075 0.4201 595.6039 176.832)" style="fill:#8D3A40;" width="51.6" height="10.6"/>
</g>
<g>
	<defs>
		<path id="SVGID_1_" d="M390.7,350.3H210.4c-12.9,0-23.4-10.5-23.4-23.4v-63.3c0-12.9,10.5-23.4,23.4-23.4h180.3
			c12.9,0,23.4,10.5,23.4,23.4v63.3C414.1,339.8,403.7,350.3,390.7,350.3z"/>
	</defs>
	<clipPath id="SVGID_00000181808813095083752430000013904050127639728040_">
		<use xlink:href="#SVGID_1_"  style="overflow:visible;"/>
	</clipPath>
	<g style="clip-path:url(#SVGID_00000181808813095083752430000013904050127639728040_);">
		<g>
			<g>
				<g>
					<rect x="220.4" y="293.3" style="fill:#FFFDFF;" width="22" height="4.6"/>
					<line style="fill:none;stroke:#FFFDFF;stroke-miterlimit:10;" x1="220.4" y1="297.9" x2="220.4" y2="277.1"/>
					
						<ellipse transform="matrix(0.9227 -0.3854 0.3854 0.9227 -89.2066 107.9008)" style="fill:#FFFDFF;" cx="224.5" cy="276.5" rx="4.7" ry="3.3"/>
					<line style="fill:none;stroke:#FFFDFF;stroke-miterlimit:10;" x1="242.3" y1="297.9" x2="242.3" y2="277.1"/>
					
						<ellipse transform="matrix(0.9227 -0.3854 0.3854 0.9227 -87.5097 116.3656)" style="fill:#FFFDFF;" cx="246.5" cy="276.5" rx="4.7" ry="3.3"/>
				</g>
				<line style="fill:none;stroke:#FFFDFF;stroke-miterlimit:10;" x1="201.2" y1="309.4" x2="201.2" y2="288.7"/>
				
					<ellipse transform="matrix(0.9227 -0.3854 0.3854 0.9227 -95.1388 101.4172)" style="fill:#FFFDFF;" cx="205.4" cy="288" rx="4.7" ry="3.3"/>
				<g>
					<rect x="265.3" y="293.3" style="fill:#FFFDFF;" width="22" height="4.6"/>
					<line style="fill:none;stroke:#FFFDFF;stroke-miterlimit:10;" x1="265.3" y1="297.9" x2="265.3" y2="277.1"/>
					
						<ellipse transform="matrix(0.9227 -0.3854 0.3854 0.9227 -85.7366 125.2112)" style="fill:#FFFDFF;" cx="269.4" cy="276.5" rx="4.7" ry="3.3"/>
					<line style="fill:none;stroke:#FFFDFF;stroke-miterlimit:10;" x1="287.2" y1="297.9" x2="287.2" y2="277.1"/>
					
						<ellipse transform="matrix(0.9227 -0.3854 0.3854 0.9227 -84.0397 133.6761)" style="fill:#FFFDFF;" cx="291.4" cy="276.5" rx="4.7" ry="3.3"/>
				</g>
			</g>
			<g>
				<g>
					<rect x="370.5" y="293.3" style="fill:#FFFDFF;" width="22" height="4.6"/>
					<line style="fill:none;stroke:#FFFDFF;stroke-miterlimit:10;" x1="370.5" y1="297.9" x2="370.5" y2="277.1"/>
					
						<ellipse transform="matrix(0.9227 -0.3854 0.3854 0.9227 -77.6088 165.7572)" style="fill:#FFFDFF;" cx="374.6" cy="276.5" rx="4.7" ry="3.3"/>
					<line style="fill:none;stroke:#FFFDFF;stroke-miterlimit:10;" x1="392.4" y1="297.9" x2="392.4" y2="277.1"/>
					
						<ellipse transform="matrix(0.9227 -0.3854 0.3854 0.9227 -75.912 174.2221)" style="fill:#FFFDFF;" cx="396.6" cy="276.5" rx="4.7" ry="3.3"/>
				</g>
				<g>
					<line style="fill:none;stroke:#FFFDFF;stroke-miterlimit:10;" x1="351.3" y1="309.4" x2="351.3" y2="288.7"/>
					
						<ellipse transform="matrix(0.9227 -0.3854 0.3854 0.9227 -83.5411 159.2736)" style="fill:#FFFDFF;" cx="355.5" cy="288" rx="4.7" ry="3.3"/>
				</g>
			</g>
			<g>
				
					<rect x="315.6" y="242.6" transform="matrix(-1 -1.224647e-16 1.224647e-16 -1 660.8596 489.8619)" style="fill:#FFFDFF;" width="29.7" height="4.6"/>
				<line style="fill:none;stroke:#FFFDFF;stroke-miterlimit:10;" x1="345.3" y1="242.6" x2="345.3" y2="263.4"/>
				
					<ellipse transform="matrix(0.9227 -0.3854 0.3854 0.9227 -75.4241 151.864)" style="fill:#FFFDFF;" cx="341.1" cy="264.1" rx="4.7" ry="3.3"/>
				<line style="fill:none;stroke:#FFFDFF;stroke-miterlimit:10;" x1="315.6" y1="242.6" x2="315.6" y2="263.4"/>
				
					<ellipse transform="matrix(0.9227 -0.3854 0.3854 0.9227 -77.7157 140.4322)" style="fill:#FFFDFF;" cx="311.4" cy="264.1" rx="4.7" ry="3.3"/>
			</g>
			<line style="fill:none;stroke:#FFFDFF;stroke-miterlimit:10;" x1="306.9" y1="296.8" x2="306.9" y2="276"/>
			
				<ellipse transform="matrix(0.9227 -0.3854 0.3854 0.9227 -82.0895 141.186)" style="fill:#FFFDFF;" cx="311.1" cy="275.3" rx="4.7" ry="3.3"/>
		</g>
		<g>
			<line style="fill:none;stroke:#FFFDFF;stroke-miterlimit:10;" x1="183.9" y1="236.5" x2="421" y2="236.5"/>
			<line style="fill:none;stroke:#FFFDFF;stroke-miterlimit:10;" x1="183.9" y1="243.7" x2="421" y2="243.7"/>
			<line style="fill:none;stroke:#FFFDFF;stroke-miterlimit:10;" x1="183.9" y1="251" x2="421" y2="251"/>
			<line style="fill:none;stroke:#FFFDFF;stroke-miterlimit:10;" x1="183.9" y1="258.3" x2="421" y2="258.3"/>
			<line style="fill:none;stroke:#FFFDFF;stroke-miterlimit:10;" x1="183.9" y1="265.5" x2="421" y2="265.5"/>
			<line style="fill:none;stroke:#FFFDFF;stroke-miterlimit:10;" x1="183.9" y1="272.8" x2="421" y2="272.8"/>
		</g>
		<g>
			<line style="fill:none;stroke:#FFFDFF;stroke-miterlimit:10;" x1="183.9" y1="315.9" x2="421" y2="315.9"/>
			<line style="fill:none;stroke:#FFFDFF;stroke-miterlimit:10;" x1="183.9" y1="323.2" x2="421" y2="323.2"/>
			<line style="fill:none;stroke:#FFFDFF;stroke-miterlimit:10;" x1="183.9" y1="330.4" x2="421" y2="330.4"/>
			<line style="fill:none;stroke:#FFFDFF;stroke-miterlimit:10;" x1="183.9" y1="337.7" x2="421" y2="337.7"/>
			<line style="fill:none;stroke:#FFFDFF;stroke-miterlimit:10;" x1="183.9" y1="345" x2="421" y2="345"/>
			<line style="fill:none;stroke:#FFFDFF;stroke-miterlimit:10;" x1="183.9" y1="352.2" x2="421" y2="352.2"/>
		</g>
		<g>
			<line style="fill:none;stroke:#FFFDFF;stroke-miterlimit:10;" x1="280.6" y1="316.5" x2="280.6" y2="338.2"/>
			
				<ellipse transform="matrix(0.9227 -0.3854 0.3854 0.9227 -109.2781 132.6576)" style="fill:#FFFDFF;" cx="276.2" cy="338.9" rx="4.9" ry="3.4"/>
		</g>
		<g>
			<path style="fill:none;stroke:#FFFDFF;stroke-miterlimit:10;" d="M235.7,338.2v-21.7c0,0,1,2.9,3.7,4.1c2.6,1.3,1.6,6.5-1.8,6.7"
				/>
			
				<ellipse transform="matrix(0.9227 -0.3854 0.3854 0.9227 -112.7481 115.3472)" style="fill:#FFFDFF;" cx="231.3" cy="338.9" rx="4.9" ry="3.4"/>
		</g>
		<g>
			<line style="fill:none;stroke:#FFFDFF;stroke-miterlimit:10;" x1="351.9" y1="316.5" x2="351.9" y2="338.2"/>
			
				<ellipse transform="matrix(0.9227 -0.3854 0.3854 0.9227 -103.7741 160.1143)" style="fill:#FFFDFF;" cx="347.5" cy="338.9" rx="4.9" ry="3.4"/>
		</g>
	</g>
</g>
<polygon style="fill:#FB504D;" points="303.7,196.3 250,269.8 295.1,247.7 210.6,375.6 238,298.3 204.2,321.2 253,196.3 "/>
<g>
	<g>
		<polygon style="fill:#8886FC;" points="247.5,525.8 245,520.8 247.3,509.5 250.4,511.5 		"/>
		<path style="fill:#9657B6;" d="M215.7,525.2c-14.2-3.3-25.7-10.2-31-18.1l1.4-10l32.9,4.4l28.7,7l-2.5,12.3l-11.9,6.5L215.7,525.2
			z"/>
		<path style="fill:#FBD854;" d="M247.5,525.8c-12.2,5-24,6.8-33.3,4.6c-0.6-0.2-1.3-0.3-1.9-0.5l-2.1-6.4
			c9.6,2.9,21.7,2.5,34.8-2.5L247.5,525.8z"/>
		<path style="fill:#ADC6FF;" d="M228.3,500c-17.7-2.4-33.8-0.1-43.6,7.1c0,0-0.1,0-0.1,0l3.3-24.3c0,0,0,0,0,0
			c9.8-7.3,25.9-9.6,43.7-7.2c14.7,2,27.4,7,35.6,14.3c0,0,0,0,0,0l-3.3,24.3c0,0,0,0-0.1,0C255.7,507,242.9,502,228.3,500z"/>
		<path style="fill:#FBD854;" d="M263.9,514.3c-8.2-7.3-21-12.3-35.7-14.3c-16.8-2.3-32.1-0.3-42.1,6.1c-0.6,0.4-1.1,0.7-1.6,1.1
			c0,0,1.5,2,3.1,3.9c9.9-5.5,24.3-7.8,39.8-5.7c11.9,1.6,21.9,5.9,29.8,11.1C261.5,515,263.9,514.3,263.9,514.3z"/>
		<g>
			<path style="fill:#9657B6;" d="M95.8,462.2c0.4-3,3.1-5,6.1-4.6l36.1,4.9v-36.8l-31.2-4.2c-22.9-3.1-44,13-47.1,35.9
				s13,44,35.9,47.1l64.5,8.7L165,477l-64.5-8.7C97.5,467.8,95.4,465.1,95.8,462.2z"/>
		</g>
		<path style="fill:#FBD854;" d="M214.9,530.4c-12.8-2.9-23.5-8.2-29.9-15.4c-0.4-0.5-0.9-1-1.3-1.5l0.9-6.4
			c6.2,7.9,17.4,14.4,31.1,17.8L214.9,530.4z"/>
		<path style="fill:#FE9C99;" d="M182.8,476.9l2.2,0.3c2,0.3,3.3,2.1,3.1,4l-4.6,33.9c-0.3,2-2.1,3.3-4,3.1l-2.2-0.3
			c-2-0.3-3.3-2.1-3.1-4l4.6-33.9C179,478,180.8,476.6,182.8,476.9z"/>
		<path style="fill:#FBD854;" d="M173.5,475.6l2.2,0.3c2,0.3,3.3,2.1,3.1,4l-4.6,33.9c-0.3,2-2.1,3.3-4,3.1l-2.2-0.3
			c-2-0.3-3.3-2.1-3.1-4l4.6-33.9C169.7,476.7,171.5,475.4,173.5,475.6z"/>
		<path style="fill:#FC6949;" d="M164.2,474.4l2.2,0.3c2,0.3,3.3,2.1,3.1,4l-4.6,33.9c-0.3,2-2.1,3.3-4,3.1l-2.2-0.3
			c-2-0.3-3.3-2.1-3.1-4l4.6-33.9C160.4,475.5,162.2,474.1,164.2,474.4z"/>
	</g>
</g>
<path style="fill:#FBD854;" d="M372,406.8c10.8,2.1,22.5,9.2,33,19.7c12,12,19.7,25.4,20.7,37.1c0.1,0.7,0.1,1.3,0.1,2
	c0,0-2.5,0-5-0.1c-1.7-11.2-8.6-24.1-19.6-35.1c-8.5-8.5-18-13.8-26.9-17C373.1,409.6,372,406.8,372,406.8z"/>
<g>
	<path style="fill:#9657B6;" d="M541.2,534.7c-16.3,16.3-42.9,16.3-59.2,0l-46-46l25.8-25.8l46,46c2.1,2.1,5.5,2.1,7.7,0
		L541.2,534.7z"/>
	<path style="fill:#ADC6FF;" d="M405,426.5c12.6,12.6,20.6,26.8,20.8,39c0,0,0,0,0.1,0l17.3-17.3c0,0,0,0,0,0
		c-0.2-12.2-8.1-26.4-20.8-39.1c-10.5-10.5-22.2-17.6-33-19.7c0,0,0,0,0,0l-17.3,17.3c0,0,0,0.1,0,0.1
		C382.8,409,394.6,416.1,405,426.5z"/>
	<path style="fill:#FE9C99;" d="M450.2,447.9L450.2,447.9c-1.8-1.8-4.8-1.8-6.6,0l-22.6,22.6c-1.8,1.8-1.8,4.8,0,6.6l0,0
		c1.8,1.8,4.8,1.8,6.6,0l22.6-22.6C452,452.7,452,449.7,450.2,447.9z"/>
	<path style="fill:#FBD854;" d="M456.8,454.5L456.8,454.5c-1.8-1.8-4.8-1.8-6.6,0l-22.6,22.6c-1.8,1.8-1.8,4.8,0,6.6v0
		c1.8,1.8,4.8,1.8,6.6,0l22.6-22.6C458.6,459.4,458.6,456.4,456.8,454.5z"/>
	<path style="fill:#FC6949;" d="M463.4,461.2L463.4,461.2c-1.8-1.8-4.8-1.8-6.6,0l-22.6,22.6c-1.8,1.8-1.8,4.8,0,6.6l0,0
		c1.8,1.8,4.8,1.8,6.6,0l22.6-22.6C465.3,466,465.3,463,463.4,461.2z"/>
</g>
<path style="fill:#FFFDFF;" d="M540.7,664.2c-28.1,0.8-29.8,1.4-30.5,29.5c-0.8-28.1-1.4-28.8-29.5-29.5
	c28.1-0.8,29.8-2.4,30.5-30.5C511.9,661.8,512.6,663.4,540.7,664.2z"/>
<path style="fill:#FFFDFF;" d="M236.4,412.7c-44,1.2-46,4.2-47.2,48.2c-1.2-44-2.2-46-46.2-47.2c44-1.2,45-2.2,46.2-46.2
	C190.4,411.5,192.4,411.5,236.4,412.7z"/>
<path style="fill:#FFFDFF;" d="M471.8,130.7c-23.2,0.4-23.6,1.7-24,25c-0.4-23.2-1.7-24.6-25-25c23.2-0.4,24.6-0.7,25-24
	C448.3,129.9,448.6,130.3,471.8,130.7z"/>
<path style="fill:#FFFDFF;" d="M91.8,589.5c-23.2,0.4-23.6,2.7-24,26c-0.4-23.2-1.7-24.6-25-25c23.2-0.4,24.6-0.7,25-24
	C68.3,589.8,68.6,589.1,91.8,589.5z"/>
<line style="fill:none;stroke:#663682;stroke-miterlimit:10;" x1="212.2" y1="533.5" x2="251.6" y2="515.5"/>
<path style="fill:none;stroke:#9657B6;stroke-width:2;stroke-miterlimit:10;" d="M324.2,281.9c0,0,22.8,25.1,59.8,0"/>
<path style="fill:none;stroke:#9657B6;stroke-width:2;stroke-miterlimit:10;" d="M216.2,281.9c0,0,22.8,25.1,59.8,0"/>
</svg>
