<?xml version="1.0" encoding="utf-8"?>
<!-- Generator: Adobe Illustrator 26.0.1, SVG Export Plug-In . SVG Version: 6.00 Build 0)  -->
<svg version="1.1" id="Layer_1" xmlns="http://www.w3.org/2000/svg" xmlns:xlink="http://www.w3.org/1999/xlink" x="0px" y="0px"
	 viewBox="0 0 247.6 247.6" style="enable-background:new 0 0 247.6 247.6;" xml:space="preserve">
<style type="text/css">
	.st0{fill:#9657B6;}
	.st1{fill:#FB504D;}
	.st2{fill:#FF935E;}
	.st3{fill:#8D3A40;}
	.st4{fill:#AAEEFD;}
	.st5{fill:#8886FC;}
	.st6{fill:#ADC6FF;}
	.st7{fill:#FBAE2F;}
	.st8{fill:#FBD854;}
</style>
<g>
	<rect x="-13.3" y="49.5" class="st0" width="245.8" height="245.8"/>
	<g>
		<g>
			<polygon class="st1" points="172.1,127.3 172,154.5 148.3,140.9 148.4,113.6 			"/>
		</g>
		<g>
			<polygon class="st2" points="195.6,113.6 172.1,127.3 148.4,113.6 171.9,100 			"/>
		</g>
		<g>
			<polygon class="st3" points="172.1,127.3 172,154.5 195.7,140.9 195.6,113.6 			"/>
		</g>
	</g>
	<g>
		<g>
			<polygon class="st4" points="89.9,118.3 66.4,131.9 42.7,118.3 66.2,104.6 			"/>
		</g>
		<g>
			<polygon class="st5" points="66.4,131.9 66.3,159.2 90,145.5 89.9,118.3 			"/>
		</g>
		<g>
			<polygon class="st6" points="66.4,131.9 66.3,159.2 42.6,145.5 42.7,118.3 			"/>
		</g>
	</g>
	<g>
		<g>
			<polygon class="st2" points="59.8,224.4 83.5,211 83.4,238.1 83.4,238.3 59.7,251.7 59.7,251.5 			"/>
		</g>
		<polygon class="st7" points="59.7,251.7 36.1,237.8 36.3,210.5 59.8,224.4 		"/>
		<polygon class="st8" points="59.8,224.4 36.3,210.5 59.8,197.1 83.5,211 		"/>
	</g>
</g>
</svg>
