<?xml version="1.0" encoding="utf-8"?>
<!-- Generator: Adobe Illustrator 26.0.2, SVG Export Plug-In . SVG Version: 6.00 Build 0)  -->
<svg version="1.1" id="Layer_1" xmlns="http://www.w3.org/2000/svg" xmlns:xlink="http://www.w3.org/1999/xlink" x="0px" y="0px"
     viewBox="0 0 142 50" style="enable-background:new 0 0 142 50;" xml:space="preserve">
<path style="fill:#FBAE2F;" d="M55.1,49.5l0.1-34.3l34.3,0.1l-0.1,34.3L72.3,32.4L55.1,49.5z"/>
  <path style="fill:#FB504D;" d="M105.3,47.2l-9.7-32.9l32.9-9.7l9.7,32.9l-21.3-11.6L105.3,47.2z"/>
  <path style="fill:#764BEE;" d="M38.9,47.2l9.7-32.9L15.7,4.6L6,37.5l21.3-11.6L38.9,47.2z"/>
  <path style="fill:#7D8093;" d="M72,18.8c-4.3,0-8.8-0.2-13.5-0.6C33.2,16,12.3,7.6-0.8,1L-1,0.9l0.5-0.9l0.2,0.1
	C12.6,6.7,33.3,15,58.6,17.3c4.4,0.4,8.9,0.6,13.3,0.6c24.2,0,47.9-6,70.5-17.8l0.2-0.1l0.5,0.9L142.9,1
	c-22.6,11.8-46.3,17.8-70.5,17.9L72,18.8z"/>
</svg>
