<svg xmlns="http://www.w3.org/2000/svg" xml:space="preserve" viewBox="0 0 308 108">
  <path fill="#fbae2f" d="m123.7 106.8.3-74.3 74.3.3-.3 74.3-37-37.3-37.3 37z"/>
  <path fill="#fb504d" d="m232.5 101.9-21-71.4 71.3-21 21 71.3-46.2-25.1-25.1 46.2z"/>
  <path fill="#764bee" d="m88.5 101.9 21-71.4-71.3-21-21 71.3 46.1-25.1 25.2 46.2z"/>
  <path fill="#7d8093" d="M156.8 38.8c-10 0-20-.5-30.1-1.4-55-5-100.1-23.3-128.2-37.6l.5-.9c28 14.3 73 32.5 127.8 37.6 62.7 5.8 124-6.6 182.3-36.8l.5.9C260.5 26 209.2 38.8 156.8 38.8z"/>
</svg>
