<?xml version="1.0" encoding="utf-8"?>
<!-- Generator: Adobe Illustrator 26.0.1, SVG Export Plug-In . SVG Version: 6.00 Build 0)  -->
<svg version="1.1" id="Layer_1" xmlns="http://www.w3.org/2000/svg" xmlns:xlink="http://www.w3.org/1999/xlink" x="0px" y="0px"
	 viewBox="0 0 600 800" style="enable-background:new 0 0 600 800;" xml:space="preserve">
<path style="fill:none;stroke:#8886FC;stroke-miterlimit:10;" d="M17.4,1.9h566c8.8,0,15.9,7.1,15.9,15.9v764.8
	c0,8.8-7.1,15.9-15.9,15.9h-566c-8.8,0-15.9-7.1-15.9-15.9V17.8C1.5,9,8.6,1.9,17.4,1.9z"/>
<g>
	<g>
		<g>
			
				<line style="fill:none;stroke:#9657B6;stroke-width:2.8221;stroke-linecap:round;stroke-miterlimit:10;" x1="57.7" y1="74.4" x2="57.7" y2="210.5"/>
			
				<line style="fill:none;stroke:#9657B6;stroke-width:2.8221;stroke-linecap:round;stroke-miterlimit:10;" x1="97.2" y1="74.4" x2="97.2" y2="210.5"/>
			
				<line style="fill:none;stroke:#9657B6;stroke-width:2.8221;stroke-linecap:round;stroke-miterlimit:10;" x1="136.6" y1="74.4" x2="136.6" y2="210.5"/>
			
				<line style="fill:none;stroke:#9657B6;stroke-width:2.8221;stroke-linecap:round;stroke-miterlimit:10;" x1="176.1" y1="74.4" x2="176.1" y2="210.5"/>
		</g>
		<circle style="fill:#FC6949;" cx="57.7" cy="103" r="10.6"/>
		<circle style="fill:#8886FC;" cx="97.2" cy="184.9" r="10.6"/>
		<circle style="fill:#FBAE2F;" cx="136.6" cy="135.2" r="10.6"/>
		<circle style="fill:#9657B6;" cx="176.1" cy="81.8" r="10.6"/>
	</g>
	<g>
		<circle style="fill:#8886FC;" cx="232.3" cy="91.8" r="8.6"/>
		<circle style="fill:#8886FC;" cx="232.3" cy="128.8" r="8.6"/>
		<circle style="fill:#8886FC;" cx="232.3" cy="165.9" r="8.6"/>
		<circle style="fill:#8886FC;" cx="232.3" cy="202.9" r="8.6"/>
		<path style="fill:#8FF4EE;" d="M391.1,83.2h153.1c4.7,0,8.6,3.8,8.6,8.6v0c0,4.7-3.8,8.6-8.6,8.6H391.1c-4.7,0-8.6-3.8-8.6-8.6v0
			C382.6,87,386.4,83.2,391.1,83.2z"/>
		<path style="fill:#8886FC;" d="M264.7,83.2h102.5c4.7,0,8.6,3.8,8.6,8.6v0c0,4.7-3.8,8.6-8.6,8.6H264.7c-4.7,0-8.6-3.8-8.6-8.6v0
			C256.1,87,260,83.2,264.7,83.2z"/>
		<path style="fill:#8886FC;" d="M342.6,138.9h-77.9c-4.7,0-8.6-3.8-8.6-8.6v0c0-4.7,3.8-8.6,8.6-8.6h77.9c4.7,0,8.6,3.8,8.6,8.6v0
			C351.2,135,347.3,138.9,342.6,138.9z"/>
		<path style="fill:#8886FC;" d="M444,139.1h-77.9c-4.7,0-8.6-3.8-8.6-8.6v0c0-4.7,3.8-8.6,8.6-8.6H444c4.7,0,8.6,3.8,8.6,8.6v0
			C452.5,135.3,448.7,139.1,444,139.1z"/>
		<path style="fill:#8886FC;" d="M544.3,138.9h-76.7c-4.7,0-8.6-3.8-8.6-8.6v0c0-4.7,3.8-8.6,8.6-8.6h76.7c4.7,0,8.6,3.8,8.6,8.6v0
			C552.8,135,549,138.9,544.3,138.9z"/>
		<path style="fill:#8886FC;" d="M342.6,211.3h-77.9c-4.7,0-8.6-3.8-8.6-8.6v0c0-4.7,3.8-8.6,8.6-8.6h77.9c4.7,0,8.6,3.8,8.6,8.6v0
			C351.2,207.5,347.3,211.3,342.6,211.3z"/>
		<path style="fill:#8886FC;" d="M444,211.6h-77.9c-4.7,0-8.6-3.8-8.6-8.6v0c0-4.7,3.8-8.6,8.6-8.6H444c4.7,0,8.6,3.8,8.6,8.6v0
			C452.5,207.8,448.7,211.6,444,211.6z"/>
		<path style="fill:#9657B6;" d="M544.3,211.3h-76.7c-4.7,0-8.6-3.8-8.6-8.6v0c0-4.7,3.8-8.6,8.6-8.6h76.7c4.7,0,8.6,3.8,8.6,8.6v0
			C552.8,207.5,549,211.3,544.3,211.3z"/>
		<path style="fill:#ADC6FF;" d="M491.9,157.3h52.4c4.7,0,8.6,3.8,8.6,8.6v0c0,4.7-3.8,8.6-8.6,8.6h-52.4c-4.7,0-8.6-3.8-8.6-8.6v0
			C483.3,161.1,487.1,157.3,491.9,157.3z"/>
		<path style="fill:#ADC6FF;" d="M365.8,157.3h102.5c4.7,0,8.6,3.8,8.6,8.6v0c0,4.7-3.8,8.6-8.6,8.6H365.8c-4.7,0-8.6-3.8-8.6-8.6v0
			C357.2,161.1,361.1,157.3,365.8,157.3z"/>
		<path style="fill:#8886FC;" d="M328.9,157.3h13.7c4.7,0,8.6,3.8,8.6,8.6v0c0,4.7-3.8,8.6-8.6,8.6h-13.7c-4.7,0-8.6-3.8-8.6-8.6v0
			C320.3,161.1,324.1,157.3,328.9,157.3z"/>
		<path style="fill:#8FF4EE;" d="M264.7,157.3h40.6c4.7,0,8.6,3.8,8.6,8.6v0c0,4.7-3.8,8.6-8.6,8.6h-40.6c-4.7,0-8.6-3.8-8.6-8.6v0
			C256.1,161.1,260,157.3,264.7,157.3z"/>
	</g>
</g>
<g>
	<g>
		<g>
			
				<line style="fill:none;stroke:#9657B6;stroke-width:2.8221;stroke-linecap:round;stroke-miterlimit:10;" x1="415.2" y1="638.5" x2="415.2" y2="774.7"/>
			
				<line style="fill:none;stroke:#9657B6;stroke-width:2.8221;stroke-linecap:round;stroke-miterlimit:10;" x1="454.6" y1="638.5" x2="454.6" y2="774.7"/>
			
				<line style="fill:none;stroke:#9657B6;stroke-width:2.8221;stroke-linecap:round;stroke-miterlimit:10;" x1="494.1" y1="638.5" x2="494.1" y2="774.7"/>
			
				<line style="fill:none;stroke:#9657B6;stroke-width:2.8221;stroke-linecap:round;stroke-miterlimit:10;" x1="533.5" y1="638.5" x2="533.5" y2="774.7"/>
		</g>
		<circle style="fill:#FC6949;" cx="415.2" cy="667.1" r="10.6"/>
		<circle style="fill:#8886FC;" cx="454.6" cy="749" r="10.6"/>
		<circle style="fill:#FBAE2F;" cx="494.1" cy="699.3" r="10.6"/>
		<circle style="fill:#9657B6;" cx="533.5" cy="646" r="10.6"/>
	</g>
	<g>
		<circle style="fill:#8886FC;" cx="36.4" cy="648.9" r="8.6"/>
		<circle style="fill:#8886FC;" cx="36.4" cy="685.9" r="8.6"/>
		<circle style="fill:#8886FC;" cx="36.4" cy="723" r="8.6"/>
		<circle style="fill:#8886FC;" cx="36.4" cy="760" r="8.6"/>
		<path style="fill:#8FF4EE;" d="M195.2,640.3h153.1c4.7,0,8.6,3.8,8.6,8.6l0,0c0,4.7-3.8,8.6-8.6,8.6H195.2c-4.7,0-8.6-3.8-8.6-8.6
			l0,0C186.6,644.2,190.5,640.3,195.2,640.3z"/>
		<path style="fill:#8886FC;" d="M68.8,640.3h102.5c4.7,0,8.6,3.8,8.6,8.6l0,0c0,4.7-3.8,8.6-8.6,8.6H68.8c-4.7,0-8.6-3.8-8.6-8.6
			l0,0C60.2,644.2,64,640.3,68.8,640.3z"/>
		<path style="fill:#8886FC;" d="M146.7,696H68.8c-4.7,0-8.6-3.8-8.6-8.6l0,0c0-4.7,3.8-8.6,8.6-8.6h77.9c4.7,0,8.6,3.8,8.6,8.6l0,0
			C155.2,692.1,151.4,696,146.7,696z"/>
		<path style="fill:#8886FC;" d="M248,696.3h-77.9c-4.7,0-8.6-3.8-8.6-8.6v0c0-4.7,3.8-8.6,8.6-8.6H248c4.7,0,8.6,3.8,8.6,8.6v0
			C256.6,692.4,252.8,696.3,248,696.3z"/>
		<path style="fill:#8886FC;" d="M348.3,696h-76.7c-4.7,0-8.6-3.8-8.6-8.6l0,0c0-4.7,3.8-8.6,8.6-8.6h76.7c4.7,0,8.6,3.8,8.6,8.6
			l0,0C356.9,692.1,353,696,348.3,696z"/>
		<path style="fill:#8886FC;" d="M146.7,768.4H68.8c-4.7,0-8.6-3.8-8.6-8.6l0,0c0-4.7,3.8-8.6,8.6-8.6h77.9c4.7,0,8.6,3.8,8.6,8.6
			l0,0C155.2,764.6,151.4,768.4,146.7,768.4z"/>
		<path style="fill:#8886FC;" d="M248,768.7h-77.9c-4.7,0-8.6-3.8-8.6-8.6l0,0c0-4.7,3.8-8.6,8.6-8.6H248c4.7,0,8.6,3.8,8.6,8.6l0,0
			C256.6,764.9,252.8,768.7,248,768.7z"/>
		<path style="fill:#9657B6;" d="M348.3,768.4h-76.7c-4.7,0-8.6-3.8-8.6-8.6l0,0c0-4.7,3.8-8.6,8.6-8.6h76.7c4.7,0,8.6,3.8,8.6,8.6
			l0,0C356.9,764.6,353,768.4,348.3,768.4z"/>
		<path style="fill:#ADC6FF;" d="M295.9,714.4h52.4c4.7,0,8.6,3.8,8.6,8.6l0,0c0,4.7-3.8,8.6-8.6,8.6h-52.4c-4.7,0-8.6-3.8-8.6-8.6
			l0,0C287.4,718.2,291.2,714.4,295.9,714.4z"/>
		<path style="fill:#ADC6FF;" d="M169.9,714.4h102.5c4.7,0,8.6,3.8,8.6,8.6l0,0c0,4.7-3.8,8.6-8.6,8.6H169.9c-4.7,0-8.6-3.8-8.6-8.6
			l0,0C161.3,718.2,165.1,714.4,169.9,714.4z"/>
		<path style="fill:#8886FC;" d="M132.9,714.4h13.7c4.7,0,8.6,3.8,8.6,8.6l0,0c0,4.7-3.8,8.6-8.6,8.6h-13.7c-4.7,0-8.6-3.8-8.6-8.6
			l0,0C124.3,718.2,128.2,714.4,132.9,714.4z"/>
		<path style="fill:#8FF4EE;" d="M68.8,714.4h40.6c4.7,0,8.6,3.8,8.6,8.6l0,0c0,4.7-3.8,8.6-8.6,8.6H68.8c-4.7,0-8.6-3.8-8.6-8.6
			l0,0C60.2,718.2,64,714.4,68.8,714.4z"/>
	</g>
</g>
<g>
</g>
<g>
	<g>
		<path style="fill:#FFFFFF;stroke:#8886FC;stroke-width:1.0325;stroke-miterlimit:10;" d="M540.4,298.8H141.2
			c-7.9,0-14.3,6.5-14.3,14.4v18.1v151.5v108.9c0,8,6.4,14.4,14.3,14.4h399.2c7.9,0,14.3-6.5,14.3-14.4V482.8V331.3v-18.1
			C554.8,305.3,548.3,298.8,540.4,298.8z"/>
		<g>
			<g>
				<path style="fill:#FFFDFF;stroke:#8886FC;stroke-width:2.608;stroke-miterlimit:10;" d="M248.9,404h52.6
					c14.5,0,26.3,11.8,26.3,26.3v1.7c0,14.5-11.8,26.3-26.3,26.3h-52.6c-14.5,0-26.3-11.8-26.3-26.3v-1.7
					C222.6,415.8,234.4,404,248.9,404z"/>
				<circle style="fill:#8886FC;" cx="249.8" cy="431.2" r="20.9"/>
			</g>
			<g>
				<path style="fill:#FFFDFF;stroke:#8886FC;stroke-width:2.608;stroke-miterlimit:10;" d="M383.8,404h52.6
					c14.5,0,26.3,11.8,26.3,26.3v1.7c0,14.5-11.8,26.3-26.3,26.3h-52.6c-14.5,0-26.3-11.8-26.3-26.3v-1.7
					C357.5,415.8,369.3,404,383.8,404z"/>
				<circle style="fill:#8886FC;" cx="384.7" cy="431.2" r="20.9"/>
			</g>
			<g>
				
					<rect x="303.4" y="485" transform="matrix(-1 4.593158e-11 -4.593158e-11 -1 684.0969 982.505)" style="fill:#8886FC;" width="77.4" height="12.5"/>
				<path style="fill:#FBAE2F;" d="M375.3,491.3c0-8.9,7.2,13.8,16.2,13.8c8.9,0,16.2-22.8,16.2-13.8s-7.2,16.2-16.2,16.2
					C382.5,507.4,375.3,500.2,375.3,491.3z"/>
				<path style="fill:#FBAE2F;" d="M276.1,491.3c0-8.9,7.2,13.8,16.2,13.8c8.9,0,16.2-22.8,16.2-13.8s-7.2,16.2-16.2,16.2
					C283.4,507.4,276.1,500.2,276.1,491.3z"/>
			</g>
		</g>
		<g>
			<path style="fill:#8886FC;" d="M540.6,298.7H141.4c-8,0-14.6,6.5-14.6,14.6v17.2h428.3v-17.2
				C555.1,305.2,548.6,298.7,540.6,298.7z"/>
			<circle style="fill:#FB504D;" cx="488.6" cy="314.3" r="6.2"/>
			<circle style="fill:#FBD854;" cx="512.1" cy="314.3" r="6.2"/>
			<circle style="fill:#41CC36;" cx="535.5" cy="314.3" r="6.2"/>
		</g>
	</g>
	<g>
		<path style="fill:#FFFFFF;stroke:#8886FC;stroke-width:1.0325;stroke-miterlimit:10;" d="M519.8,278.2H120.6
			c-7.9,0-14.3,6.5-14.3,14.4v18.1v151.5v108.9c0,8,6.4,14.4,14.3,14.4h399.2c7.9,0,14.3-6.5,14.3-14.4V462.2V310.7v-18.1
			C534.1,284.6,527.7,278.2,519.8,278.2z"/>
		<g>
			<g>
				<path style="fill:#FFFDFF;stroke:#8886FC;stroke-width:2.608;stroke-miterlimit:10;" d="M228.3,383.4h52.6
					c14.5,0,26.3,11.8,26.3,26.3v1.7c0,14.5-11.8,26.3-26.3,26.3h-52.6c-14.5,0-26.3-11.8-26.3-26.3v-1.7
					C202,395.2,213.8,383.4,228.3,383.4z"/>
				<circle style="fill:#8886FC;" cx="229.2" cy="410.5" r="20.9"/>
			</g>
			<g>
				<path style="fill:#FFFDFF;stroke:#8886FC;stroke-width:2.608;stroke-miterlimit:10;" d="M363.2,383.4h52.6
					c14.5,0,26.3,11.8,26.3,26.3v1.7c0,14.5-11.8,26.3-26.3,26.3h-52.6c-14.5,0-26.3-11.8-26.3-26.3v-1.7
					C336.9,395.2,348.7,383.4,363.2,383.4z"/>
				<circle style="fill:#8886FC;" cx="364.1" cy="410.5" r="20.9"/>
			</g>
			<g>
				
					<rect x="282.7" y="494.3" transform="matrix(-1 4.593158e-11 -4.593158e-11 -1 642.7969 1001.205)" style="fill:#8886FC;" width="77.4" height="12.5"/>
				<path style="fill:#FBAE2F;" d="M354.6,500.6c0-8.9,7.2-16.2,16.2-16.2c8.9,0,16.2,7.2,16.2,16.2s-7.2-13.8-16.2-13.8
					C361.9,486.8,354.6,509.5,354.6,500.6z"/>
				<path style="fill:#FBAE2F;" d="M255.5,500.6c0-8.9,7.2-16.2,16.2-16.2c8.9,0,16.2,7.2,16.2,16.2s-7.2-13.8-16.2-13.8
					C262.7,486.8,255.5,509.5,255.5,500.6z"/>
			</g>
		</g>
		<g>
			<path style="fill:#8886FC;" d="M519.9,278H120.7c-8,0-14.6,6.5-14.6,14.6v17.2h428.3v-17.2C534.5,284.5,527.9,278,519.9,278z"/>
			<circle style="fill:#FB504D;" cx="467.9" cy="293.6" r="6.2"/>
			<circle style="fill:#FBD854;" cx="491.4" cy="293.6" r="6.2"/>
			<circle style="fill:#41CC36;" cx="514.9" cy="293.6" r="6.2"/>
		</g>
	</g>
	<g>
		<path style="fill:#FFFFFF;stroke:#8886FC;stroke-width:1.0325;stroke-miterlimit:10;" d="M499.1,257.5H99.9
			c-7.9,0-14.3,6.5-14.3,14.4V290v151.5v108.9c0,8,6.4,14.4,14.3,14.4h399.2c7.9,0,14.3-6.5,14.3-14.4V441.5V290v-18.1
			C513.5,264,507,257.5,499.1,257.5z"/>
		<g>
			<g>
				<path style="fill:#FFFDFF;stroke:#8886FC;stroke-width:2.608;stroke-miterlimit:10;" d="M207.6,362.7h52.6
					c14.5,0,26.3,11.8,26.3,26.3v1.7c0,14.5-11.8,26.3-26.3,26.3h-52.6c-14.5,0-26.3-11.8-26.3-26.3V389
					C181.3,374.5,193.1,362.7,207.6,362.7z"/>
				<circle style="fill:#8886FC;" cx="208.5" cy="389.9" r="20.9"/>
			</g>
			<g>
				<path style="fill:#FFFDFF;stroke:#8886FC;stroke-width:2.608;stroke-miterlimit:10;" d="M342.5,362.7h52.6
					c14.5,0,26.3,11.8,26.3,26.3v1.7c0,14.5-11.8,26.3-26.3,26.3h-52.6c-14.5,0-26.3-11.8-26.3-26.3V389
					C316.2,374.5,328,362.7,342.5,362.7z"/>
				<circle style="fill:#8886FC;" cx="343.4" cy="389.9" r="20.9"/>
			</g>
			<g>
				
					<rect x="262.1" y="473.7" transform="matrix(-1 4.593158e-11 -4.593158e-11 -1 601.4969 959.905)" style="fill:#8886FC;" width="77.4" height="12.5"/>
				<circle style="fill:#FBAE2F;" cx="350.1" cy="480" r="16.2"/>
				<circle style="fill:#FBAE2F;" cx="251" cy="480" r="16.2"/>
			</g>
		</g>
		<g>
			<path style="fill:#8886FC;" d="M499.3,257.4H100.1c-8,0-14.6,6.5-14.6,14.6v17.2h428.3v-17.2
				C513.8,263.9,507.3,257.4,499.3,257.4z"/>
			<circle style="fill:#FB504D;" cx="447.3" cy="273" r="6.2"/>
			<circle style="fill:#FBD854;" cx="470.8" cy="273" r="6.2"/>
			<circle style="fill:#41CC36;" cx="494.2" cy="273" r="6.2"/>
		</g>
	</g>
	<g>
		<path style="fill:#FFFFFF;stroke:#8886FC;stroke-width:1.0325;stroke-miterlimit:10;" d="M478.5,236.9H79.3
			c-7.9,0-14.3,6.5-14.3,14.4v18.1v151.5v108.9c0,8,6.4,14.4,14.3,14.4h399.2c7.9,0,14.3-6.5,14.3-14.4V420.9V269.4v-18.1
			C492.8,243.3,486.4,236.9,478.5,236.9z"/>
		<g>
			<g>
				<path style="fill:#FFFDFF;stroke:#8886FC;stroke-width:2.608;stroke-miterlimit:10;" d="M185.1,342.1h52.6
					c14.5,0,26.3,11.8,26.3,26.3v1.7c0,14.5-11.8,26.3-26.3,26.3h-52.6c-14.5,0-26.3-11.8-26.3-26.3v-1.7
					C158.8,353.9,170.6,342.1,185.1,342.1z"/>
				<circle style="fill:#8886FC;" cx="186" cy="369.2" r="20.9"/>
			</g>
			<g>
				<path style="fill:#FFFDFF;stroke:#8886FC;stroke-width:2.608;stroke-miterlimit:10;" d="M320,342.1h52.6
					c14.5,0,26.3,11.8,26.3,26.3v1.7c0,14.5-11.8,26.3-26.3,26.3H320c-14.5,0-26.3-11.8-26.3-26.3v-1.7
					C293.7,353.9,305.5,342.1,320,342.1z"/>
				<circle style="fill:#8886FC;" cx="320.9" cy="369.2" r="20.9"/>
			</g>
			<g>
				
					<rect x="239.5" y="453" transform="matrix(-1 4.595512e-11 -4.595512e-11 -1 556.4193 918.605)" style="fill:#8886FC;" width="77.4" height="12.5"/>
				<circle style="fill:#FBAE2F;" cx="327.6" cy="459.3" r="16.2"/>
				<circle style="fill:#FBAE2F;" cx="228.5" cy="459.3" r="16.2"/>
			</g>
		</g>
		<g>
			<path style="fill:#8886FC;" d="M478.6,236.7H79.4c-8,0-14.6,6.5-14.6,14.6v17.2h428.3v-17.2C493.2,243.2,486.6,236.7,478.6,236.7
				z"/>
			<circle style="fill:#FB504D;" cx="426.6" cy="252.3" r="6.2"/>
			<circle style="fill:#FBD854;" cx="450.1" cy="252.3" r="6.2"/>
			<circle style="fill:#41CC36;" cx="473.6" cy="252.3" r="6.2"/>
		</g>
	</g>
</g>
<g>
	<path style="fill:#8886FC;" d="M585.7,0.9H15c-7.4,0-13.3,6-13.3,13.3v36.6H599V14.3C599,6.9,593,0.9,585.7,0.9z"/>
	<circle style="fill:#FB504D;" cx="497" cy="22.5" r="9.8"/>
	<circle style="fill:#FBD854;" cx="533.9" cy="22.5" r="9.8"/>
	<circle style="fill:#41CC36;" cx="570.8" cy="22.5" r="9.8"/>
</g>
<g>
	<circle style="fill:#FC6949;" cx="103.5" cy="417.3" r="20.9"/>
	
		<polyline style="fill:none;stroke:#FFFEFD;stroke-width:1.4198;stroke-linecap:round;stroke-linejoin:round;stroke-miterlimit:10;" points="
		107.6,427.1 97.9,417.3 107.6,407.5 	"/>
</g>
<g>
	<circle style="fill:#FC6949;" cx="451.5" cy="417.3" r="20.9"/>
	
		<polyline style="fill:none;stroke:#FFFEFD;stroke-width:1.4198;stroke-linecap:round;stroke-linejoin:round;stroke-miterlimit:10;" points="
		447.4,407.5 457.1,417.3 447.4,427.1 	"/>
</g>
</svg>
