<?xml version="1.0" encoding="utf-8"?>
<!-- Generator: Adobe Illustrator 26.0.2, SVG Export Plug-In . SVG Version: 6.00 Build 0)  -->
<svg version="1.1" id="Layer_1" xmlns="http://www.w3.org/2000/svg" xmlns:xlink="http://www.w3.org/1999/xlink" x="0px" y="0px"
	 viewBox="0 0 600 800" style="enable-background:new 0 0 600 800;" xml:space="preserve">
<style type="text/css">
	.st0{fill:#663682;}
	.st1{enable-background:new    ;}
	.st2{fill:#8886FC;}
	.st3{fill:#9657B6;}
	.st4{fill:#803D32;}
	.st5{fill:#F87E37;}
	.st6{fill:#FBAE2F;}
	.st7{fill:#FC6949;}
	.st8{fill:#FB504D;}
	.st9{fill:#7F2827;}
	.st10{fill:#FF7A63;}
	.st11{clip-path:url(#SVGID_00000137128195577055845960000011886430227478785428_);}
	.st12{fill:#FBD854;}
	.st13{fill:#FFFFFF;}
	.st14{fill:#FE9C99;}
	.st15{fill:#8FF4EE;}
	.st16{fill:#ADC6FF;}
	.st17{clip-path:url(#SVGID_00000065074064058110247710000000134068558081926562_);fill:#ADC6FF;}
	.st18{clip-path:url(#SVGID_00000183966238238301515150000014340586817557178550_);fill:#ADC6FF;}
	.st19{clip-path:url(#SVGID_00000140011396697030517550000006615266113523794346_);fill:#ADC6FF;}
	.st20{clip-path:url(#SVGID_00000130640386628156268150000012640487931023796140_);fill:#8886FC;}
	.st21{fill:#AAEEFD;}
	.st22{fill:#FF935E;stroke:#FC6949;stroke-width:6;stroke-miterlimit:10;}
	.st23{fill:none;stroke:#FFFDFF;stroke-width:5;stroke-linecap:round;stroke-linejoin:round;stroke-miterlimit:10;}
	.st24{fill:#FFFDFF;}
	.st25{opacity:0.3;fill:#F34A04;enable-background:new    ;}
	.st26{fill:none;stroke:#FFFDFF;stroke-miterlimit:10;}
	.st27{clip-path:url(#SVGID_00000064352502156461553820000015420021339560994194_);enable-background:new    ;}
	.st28{clip-path:url(#SVGID_00000147221465099555519900000015983112034330790552_);enable-background:new    ;}
	.st29{fill:#552F70;}
</style>
<g>
	<rect x="-11" y="-15.1" class="st0" width="623.3" height="838.8"/>
	<g class="st1">
		<path class="st2" d="M218.2,82.4c0-0.9,0-1.9-0.1-2.8l0,0l0,0c-0.5-2.5-1.1-5.1-2.2-7.4c0,0,0-0.1-0.1-0.1c-0.5-1.2-1-2.5-1.7-3.5
			c0-0.1-0.1-0.1-0.1-0.1c-0.4-0.5-0.7-1.1-1-1.6c0-0.1-0.1-0.1-0.1-0.1c-0.3-0.4-0.6-0.9-0.9-1.3l0,0l0,0c-0.4-0.5-0.7-1-1.2-1.5
			l0,0l0,0c-2.2-2.6-4.8-4.9-7.8-6.5c-0.1,0-0.1-0.1-0.2-0.1c-0.2-0.1-0.4-0.1-0.6-0.3c-1.1-0.4-2.1-0.7-3.2-1c-0.1,0-0.2,0-0.3-0.1
			c-1.7,0-3.5-0.1-5.1,0.9l0,0l-25.3,14.7c6.4-3.2,13.2,2.3,17.2,7l0,0c0.4,0.5,0.8,1,1.2,1.5l0,0c3.1,4.1,5.2,8.9,6.1,13.9l0,0
			c0.7,4.5,0.4,10.4-3.9,12.9c1.4-1.1,28.2-15.6,27.7-17l0,0c1.3-2,1.8-4.5,1.8-6.9c0,0,0,0,0-0.1C218.2,82.9,218.2,82.7,218.2,82.4
			z"/>
		<g>
			<path class="st3" d="M169.2,70.8c13.3-7.9,34.1,27.9,20.7,35.6C176.5,114.3,155.8,78.5,169.2,70.8z"/>
		</g>
	</g>
	<g class="st1">
		<g>
			<path class="st4" d="M544.8,433.8l-3,3c2.2-2.2,12.6-12.7,14.6-14.7L544.8,433.8z"/>
		</g>
		<g>
			
				<rect x="519.2" y="470.1" transform="matrix(0.7071 -0.7071 0.7071 0.7071 -183.168 526.3266)" class="st5" width="49.1" height="28.4"/>
		</g>
		<g>
			
				<rect x="484.4" y="435.4" transform="matrix(0.7071 -0.7071 0.7071 0.7071 -168.8497 491.5976)" class="st5" width="49.1" height="28.4"/>
		</g>
		<g>
			<polygon class="st6" points="579.5,468.5 571.2,477 551,456.9 539.4,468.6 524.8,454 536.4,442.2 516.3,422.2 524.7,413.7 
				544.8,433.8 556.4,422.1 571,436.7 559.4,448.5 			"/>
		</g>
		<g>
			
				<rect x="490.2" y="468.3" transform="matrix(0.7071 -0.7071 0.7071 0.7071 -187.6965 504.1722)" class="st7" width="49.1" height="20.7"/>
		</g>
	</g>
	<polygon class="st8" points="96,204 80.1,197.4 70.5,220.4 86.4,227.2 	"/>
	<polygon class="st8" points="112.8,164 96.8,157.4 87.2,180.6 103.1,187.2 	"/>
	<polygon class="st6" points="89.6,181.6 73.6,175.1 66.7,191.7 82.6,198.4 	"/>
	<g>
		<polygon class="st5" points="112.8,163.9 122.6,167.9 96.2,231.2 86.4,227.2 96,204 82.6,198.4 89.6,181.6 103.1,187.1 		"/>
	</g>
	<path class="st2" d="M122.6,167.9c-5.2-2.3-20.5-9.3-25.8-10.5C102.9,159.9,116.7,165.5,122.6,167.9z"/>
	<g class="st1">
		<g>
			<path class="st9" d="M68.8,582.2c3.2-6.6,15.1-31.5,18.1-37.5C83.7,551.3,71.8,576.2,68.8,582.2z"/>
		</g>
		<g>
			<polygon class="st5" points="97.3,580.1 107.4,557.8 112.1,564.8 102,587.2 			"/>
		</g>
		<g>
			<polygon class="st6" points="80.8,581.3 90.9,558.9 107.4,557.8 97.3,580.1 			"/>
		</g>
		<g>
			<polygon class="st7" points="78.6,569.3 88.7,546.9 93.4,553.8 83.3,576.2 			"/>
		</g>
		<g>
			<polygon class="st5" points="69.8,565 79.9,542.6 88.7,546.9 78.6,569.3 			"/>
		</g>
		<g>
			<polygon class="st6" points="53,558.9 63.1,536.5 91.6,534.4 81.5,556.8 			"/>
		</g>
		<g>
			<polygon class="st5" points="81.5,556.8 91.6,534.4 96.4,541.4 86.2,563.8 			"/>
		</g>
		<g>
			<polygon class="st8" points="81.5,556.8 86.2,563.8 69.8,565 78.6,569.3 83.3,576.2 80.8,581.3 97.3,580.1 102,587.2 73.5,589.2 
				68.8,582.2 73.1,573.3 57.8,565.9 53,558.9 			"/>
		</g>
	</g>
	<path class="st10" d="M460.6,805.8H140.8l27.6-504.1c0-73.1,59.2-132.3,132.3-132.3l0,0c73.1,0,132.3,59.2,132.3,132.3L460.6,805.8
		z"/>
	<circle class="st0" cx="300.7" cy="390" r="85.6"/>
	<g>
		<g>
			<circle id="SVGID_00000146498403876407919580000001156745619092857517_" class="st3" cx="300.7" cy="390" r="72.7"/>
		</g>
		<g>
			<defs>
				<circle id="SVGID_00000049192305250892107850000017006115434254194583_" cx="300.7" cy="390" r="72.7"/>
			</defs>
			<clipPath id="SVGID_00000099652377299280126760000001720168318217947037_">
				<use xlink:href="#SVGID_00000049192305250892107850000017006115434254194583_"  style="overflow:visible;"/>
			</clipPath>
			<g id="XMLID_5291_" style="clip-path:url(#SVGID_00000099652377299280126760000001720168318217947037_);">
				<g id="XMLID_5396_">
					<rect id="XMLID_5397_" x="289.8" y="418.5" class="st6" width="21.7" height="12"/>
				</g>
				<g id="XMLID_5394_">
					<path id="XMLID_5395_" class="st2" d="M246.6,395.9c0-0.3,0-0.6,0-0.9c0-29.9,24.2-56.6,54.1-56.6s54.1,26.8,54.1,56.7
						c0,0.2,0,0.3,0,0.5c-0.1,12.2-10.1,22-22.3,22h-63.7C256.8,417.6,246.7,407.9,246.6,395.9z"/>
				</g>
				<g id="XMLID_5392_">
					<circle id="XMLID_5393_" class="st12" cx="300.7" cy="388.2" r="36.4"/>
				</g>
				<g id="XMLID_5381_">
					<g id="XMLID_5390_">
						<path id="XMLID_5391_" class="st3" d="M325.7,380.8c3.3-0.8,3.3-5.2,3.3-5.2s-3.5,3.4-8-2.3
							C319.5,371.5,323.5,381.3,325.7,380.8z"/>
					</g>
					<g id="XMLID_5388_">
						<circle id="XMLID_5389_" class="st13" cx="317.4" cy="380.8" r="8.3"/>
					</g>
					<g id="XMLID_5386_">
						<circle id="XMLID_5387_" class="st3" cx="317.4" cy="380.8" r="5.8"/>
					</g>
					<g id="XMLID_5384_">
						<circle id="XMLID_5385_" class="st13" cx="318.5" cy="378" r="2.4"/>
					</g>
					<g id="XMLID_5382_">
						<path id="XMLID_5383_" class="st3" d="M308.8,380.8h0.4c0-4.5,3.6-8.1,8.1-8.1s8.1,3.6,8.1,8.1h0.4c0-4.7-3.8-8.5-8.5-8.5
							S308.8,376.1,308.8,380.8z"/>
					</g>
				</g>
				<g id="XMLID_5379_">
					<circle id="XMLID_5380_" class="st14" cx="325.7" cy="394.7" r="6.2"/>
				</g>
				<g id="XMLID_5377_">
					<path id="XMLID_5378_" class="st13" d="M312.1,388.2c0,0-1.2,12.8-11.4,12.8c-10.2,0-11.4-12.8-11.4-12.8H312.1z"/>
				</g>
				<g id="XMLID_5366_">
					<g id="XMLID_5375_">
						<path id="XMLID_5376_" class="st3" d="M275.7,380.8c-3.3-0.8-3.3-5.2-3.3-5.2s3.5,3.4,8-2.3
							C281.8,371.5,277.9,381.3,275.7,380.8z"/>
					</g>
					<g id="XMLID_5373_">
						<circle id="XMLID_5374_" class="st13" cx="284" cy="380.8" r="8.3"/>
					</g>
					<g id="XMLID_5371_">
						<circle id="XMLID_5372_" class="st3" cx="284" cy="380.8" r="5.8"/>
					</g>
					<g id="XMLID_5369_">
						<circle id="XMLID_5370_" class="st13" cx="285.2" cy="378" r="2.4"/>
					</g>
					<g id="XMLID_5367_">
						<path id="XMLID_5368_" class="st3" d="M275.5,380.8h0.4c0-4.5,3.6-8.1,8.1-8.1s8.1,3.6,8.1,8.1h0.4c0-4.7-3.8-8.5-8.5-8.5
							S275.5,376.1,275.5,380.8z"/>
					</g>
				</g>
				<g id="XMLID_5364_">
					<circle id="XMLID_5365_" class="st14" cx="275.7" cy="394.7" r="6.2"/>
				</g>
				<g id="XMLID_5362_">
					<path id="XMLID_5363_" class="st3" d="M301.8,385l0.1-0.4c-1.8-0.3-2.3-1.1-2.4-1.4c1.1-0.9,1.4-2.6,1.4-2.7l-0.4-0.1
						c0,0-0.3,1.8-1.4,2.5L299,383v0.1C299.1,383.2,299.4,384.6,301.8,385z"/>
				</g>
				<g id="XMLID_5360_">
					<circle id="XMLID_5361_" class="st12" cx="264.3" cy="388.2" r="5.3"/>
				</g>
				<g id="XMLID_5358_">
					<circle id="XMLID_5359_" class="st12" cx="337.1" cy="388.2" r="5.3"/>
				</g>
				<g id="XMLID_5356_">
					<path id="XMLID_5357_" class="st2" d="M309.2,352.8c-4.7,6.7-16.3,18-42.4,21.8c5.4-13.4,18.5-22.8,33.8-22.8
						C303.6,351.8,306.5,352.1,309.2,352.8z"/>
				</g>
				<g id="XMLID_5354_">
					<path id="XMLID_5355_" class="st2" d="M334.1,373.7c-6.6-2.3-19.2-8.2-24.9-20.9C320.4,355.5,329.6,363.4,334.1,373.7z"/>
				</g>
				<g id="XMLID_5351_">
					<g id="XMLID_5352_">
						<path id="XMLID_5353_" class="st15" d="M337.1,388.2c0-22.6-16.3-40.9-36.4-40.9s-36.4,18.3-36.4,40.9
							c0-20.1,16.3-36.4,36.4-36.4C320.8,351.8,337.1,368.1,337.1,388.2z"/>
					</g>
				</g>
				<g id="XMLID_5330_">
					<path id="XMLID_5331_" class="st16" d="M311.5,422.9L311.5,422.9v7.5h-8.7v-2.8C302.8,425.1,308.9,422.9,311.5,422.9z"/>
				</g>
				<g id="XMLID_5328_">
					<path id="XMLID_5329_" class="st16" d="M289.8,422.9L289.8,422.9v7.5h8.8v-2.8C298.5,425.1,292.5,422.9,289.8,422.9z"/>
				</g>
			</g>
		</g>
		<g>
			<defs>
				<circle id="SVGID_00000155850708652468113740000003179934378091434159_" cx="300.7" cy="390" r="72.7"/>
			</defs>
			<clipPath id="SVGID_00000152978861899017759350000008591082218915679153_">
				<use xlink:href="#SVGID_00000155850708652468113740000003179934378091434159_"  style="overflow:visible;"/>
			</clipPath>
			
				<rect x="270.3" y="430.2" style="clip-path:url(#SVGID_00000152978861899017759350000008591082218915679153_);fill:#ADC6FF;" width="60.8" height="41.3"/>
		</g>
		<g>
			<defs>
				<circle id="SVGID_00000024724506656489309780000001756558553520443816_" cx="300.7" cy="390" r="72.7"/>
			</defs>
			<clipPath id="SVGID_00000068673706175117640060000008338224871116651138_">
				<use xlink:href="#SVGID_00000024724506656489309780000001756558553520443816_"  style="overflow:visible;"/>
			</clipPath>
			<polygon style="clip-path:url(#SVGID_00000068673706175117640060000008338224871116651138_);fill:#ADC6FF;" points="270.3,430.2 
				270.3,422.3 278.2,430.2 			"/>
		</g>
		<g>
			<defs>
				<circle id="SVGID_00000040552740096478117960000014753242721040168633_" cx="300.7" cy="390" r="72.7"/>
			</defs>
			<clipPath id="SVGID_00000042732256490009266420000017404127345394332574_">
				<use xlink:href="#SVGID_00000040552740096478117960000014753242721040168633_"  style="overflow:visible;"/>
			</clipPath>
			<polygon style="clip-path:url(#SVGID_00000042732256490009266420000017404127345394332574_);fill:#ADC6FF;" points="331.1,430.2 
				331.1,422.3 323.2,430.2 			"/>
		</g>
		<g>
			<defs>
				<circle id="SVGID_00000060002621329054075250000017093535609007485604_" cx="300.7" cy="390" r="72.7"/>
			</defs>
			<clipPath id="SVGID_00000009562734610936128700000015428801207692496535_">
				<use xlink:href="#SVGID_00000060002621329054075250000017093535609007485604_"  style="overflow:visible;"/>
			</clipPath>
			
				<rect x="298.3" y="430" style="clip-path:url(#SVGID_00000009562734610936128700000015428801207692496535_);fill:#8886FC;" width="4.8" height="33.9"/>
		</g>
	</g>
	<g class="st1">
		<g>
			<path class="st16" d="M177.2,371.7c8.3-4.8,15.1-1,15.1,8.6s-6.8,21.3-15.1,26.1c-8.3,4.8-15.1,1-15.1-8.6
				C162.1,388.2,168.8,376.5,177.2,371.7z"/>
		</g>
		<path class="st21" d="M162.2,395.5c0.9-7.2,4.2-13.9,9.1-19.3l0,0c4.1-4.2,10.5-8.6,16.4-5.9c0.1,0,0.1,0.1,0.1,0.1
			c-0.1-0.1-26.1-15-26.1-15.1c0,0-0.1,0-0.1-0.1c-0.2-0.1-0.5-0.2-0.6-0.4c-0.3,0-0.5-0.2-0.7-0.2c-5.8-1.2-11.2,2.4-15.1,6.4l0,0
			c-1.8,1.9-3.3,4.1-4.7,6.2c0,0,0,0.1-0.1,0.1c-3.5,6.3-6.6,15.2-2.6,22c-0.2,1.8,27.2,16.5,28.7,17.7
			C163.4,405.5,161.7,400.4,162.2,395.5C162.2,395.9,162.2,395.8,162.2,395.5z"/>
	</g>
	<rect x="263.9" y="505.7" class="st7" width="73.6" height="7"/>
	<rect x="263.9" y="534.1" class="st7" width="73.6" height="7"/>
	<rect x="263.9" y="562.5" class="st7" width="73.6" height="7"/>
	<rect x="263.9" y="590.9" class="st7" width="73.6" height="7"/>
	<rect x="263.9" y="619.3" class="st7" width="73.6" height="7"/>
	<path class="st22" d="M353.3,829.2H248V709.1c0-29.1,23.6-52.7,52.7-52.7l0,0c29.1,0,52.7,23.6,52.7,52.7v120.1H353.3z"/>
	<path class="st23" d="M300.7,327.4c34.6,0,62.6,28,62.6,62.6"/>
	<circle class="st24" cx="363.3" cy="402.1" r="3"/>
	<polygon class="st7" points="423,334.4 393.6,352.9 398.6,364.1 416.9,352.6 406.8,382.7 411.8,393.9 437.2,377.9 436.4,364 
		422.5,372.8 434.3,337.4 	"/>
	<circle class="st14" cx="289.6" cy="192.3" r="3"/>
	<path class="st23" d="M280.2,452.3c-18.8-6.2-33.9-20.6-40.9-39.1"/>
	<path class="st14" d="M410.2,304.2c-1.4,0-2.5-1.1-2.5-2.5c0-59-48-107-107-107c-1.4,0-2.5-1.1-2.5-2.5s1.1-2.5,2.5-2.5
		c61.7,0,112,50.2,112,112C412.7,303.1,411.6,304.2,410.2,304.2z"/>
	<g class="st1">
		<g>
			<polygon class="st6" points="466.3,335 470.8,337.5 449.3,351 444.7,348.6 			"/>
		</g>
		<g>
			<polygon class="st8" points="429.1,358.4 433.6,360.9 438.6,372.1 434,369.7 			"/>
		</g>
		<g>
			<polygon class="st8" points="439.1,328.3 443.7,330.8 433.6,360.9 429.1,358.4 			"/>
		</g>
		<g>
			<polygon class="st6" points="456.6,313.2 461.1,315.6 449.8,312.6 445.2,310.1 			"/>
		</g>
		<g>
			<polygon class="st5" points="449.8,312.6 461.1,315.6 449.3,351 470.8,337.5 475.8,348.7 438.6,372.1 433.6,360.9 443.7,330.8 
				425.4,342.3 420.4,331.1 			"/>
		</g>
		<g>
			<polygon class="st6" points="445.2,310.1 449.8,312.6 420.4,331.1 415.8,328.6 			"/>
		</g>
		<g>
			<polygon class="st8" points="415.8,328.6 420.4,331.1 425.4,342.3 420.8,339.8 			"/>
		</g>
	</g>
	<polygon class="st7" points="444.5,511.1 435.5,520.2 415.4,500 407,508.5 427.1,528.6 415.5,540.3 430.2,554.9 441.8,543.2 
		446.5,547.9 	"/>
	<path class="st7" d="M172.3,766.7l0.1-1c0,0.4,0,0.8,0,1.1c0.5-2.7,0.4-9.8,0.4-12.7c-19,0.8-21.9-8.5-28.5-16l-1,18.3
		C148.2,762.4,154.6,767.7,172.3,766.7z M172.3,758.4h0.1l0.1-1.2c-0.1,1.6-0.1,3.5-0.1,5.3h-0.1V758.4z"/>
	<path class="st7" d="M191.2,755.4v-3.3h0.1c0,1.4,0.1,2.6,0.1,3.4c0-2.4,0-7.9,0.1-11.3l0.1-1.5h-0.1v-0.1v0.1
		c-30,0.8-19.4-21.6-46-24.8l-0.7,13.2C165.1,735.6,156.3,757.3,191.2,755.4z M191.2,746.8c0,0.1,0,0.2,0,0.2l0,0V746.8z"/>
	<path class="st7" d="M456,721c-0.2-0.2-0.4-0.4-0.7-0.5l0,0c-0.3-0.2-0.6-0.5-0.9-0.7l0,0c-0.1,0-0.1-0.1-0.2-0.1
		c-0.5-0.4-1-0.7-1.5-1.1l0,0c-0.2-0.1-0.4-0.2-0.6-0.3s-0.4-0.3-0.6-0.4l0,0c-0.1,0-0.1-0.1-0.2-0.1c-0.1-0.1-0.3-0.2-0.4-0.2
		c-0.2-0.1-0.5-0.3-0.8-0.4c-0.3-0.1-0.5-0.3-0.8-0.4l0,0c0,0,0,0-0.1,0l0,0c-0.1,0-0.1,0-0.1-0.1c-0.5-0.2-0.9-0.4-1.4-0.5l0,0
		c-0.3-0.1-0.5-0.2-0.8-0.3h-0.1c0,0,0,0-0.1,0l0,0c-0.2-0.1-0.5-0.1-0.8-0.2c-0.3-0.1-0.7-0.2-1-0.2l0.1-0.1
		c-0.3,0-0.6-0.1-0.9-0.1H444l0,0h0.1c-0.3,0-0.5-0.1-0.8-0.1l0,0c-0.4,0-0.7,0-1,0l0,0c-0.4,0-0.7,0-1.1,0.1l0.1-0.1
		c-0.4,0.1-0.8,0.1-1.2,0.2H440c-0.1,0-0.1,0-0.2,0l0.1-0.1c-0.5,0.1-0.9,0.2-1.4,0.4l-0.2,0.1l0,0l0.2-0.1
		c-0.5,0.2-1.1,0.5-1.6,0.8L401.7,737c-18.8,10.7,10.2,60.6,28.8,49.6l8.2-4.8c5.8-3.3,13.5-7.6,19.8-11.4L456,721z"/>
	<g class="st1">
		<g>
			<path class="st8" d="M544.6,172c-10.2,13.3-45.6-14.3-35.2-27.4C519.6,131.2,555,158.8,544.6,172z"/>
		</g>
		<path class="st14" d="M542.1,174c-0.1,0-0.1,0.1-0.2,0.1l0,0l0,0l0,0c-0.2,0.1-0.3,0.2-0.5,0.3c-0.3,0.2-0.7,0.3-1.1,0.4
			c-0.1,0-0.2,0.1-0.4,0.1s-0.3,0.1-0.5,0.1c-0.1,0-0.2,0.1-0.4,0.1l0,0l0,0l0,0c-0.2,0.1-0.5,0.1-0.7,0.1l0,0l0,0l0,0
			c-0.1,0-0.1,0-0.2,0c-0.1,0-0.2,0-0.4,0c0,0,0,0-0.1,0l0,0l0,0l0,0c-0.2,0-0.5,0-0.7,0s-0.5,0-0.7,0c-0.1,0-0.3,0-0.4,0
			c-0.1,0-0.3,0-0.4,0c-0.1,0-0.2,0-0.3,0c-0.4,0-0.8-0.1-1.2-0.1c-0.1,0-0.3,0-0.4,0l0,0c0,0-0.1,0-0.2,0c-0.3-0.1-0.5-0.1-0.7-0.1
			c-0.3-0.1-0.5-0.1-0.8-0.2c-0.2,0-0.5-0.1-0.7-0.1c-0.1,0-0.2-0.1-0.3-0.1c-0.2-0.1-0.3-0.1-0.5-0.1c-0.1,0-0.2-0.1-0.4-0.1
			c-0.2-0.1-0.5-0.1-0.7-0.3l0,0l0,0l0,0c-0.1,0-0.2-0.1-0.4-0.1h-0.1c-0.1-0.1-0.3-0.1-0.4-0.2h-0.1c-4.1-1.6-8.3-4.2-11.9-7.5
			c0,0,0,0-0.1-0.1l-0.1-0.1c-0.2-0.2-0.5-0.5-0.7-0.7c-0.1-0.1-0.2-0.3-0.4-0.4c-0.1-0.2-0.3-0.3-0.5-0.5l-0.1-0.1
			c-0.2-0.2-0.3-0.4-0.5-0.6c-0.3-0.2-0.4-0.4-0.6-0.7l0,0c-0.2-0.2-0.3-0.4-0.5-0.6l0,0c-0.2-0.3-0.4-0.4-0.6-0.7s-0.3-0.5-0.5-0.7
			s-0.3-0.4-0.5-0.7l-0.1,0.1l0,0l0.1-0.1c-0.2-0.2-0.3-0.5-0.4-0.7c-0.2-0.3-0.3-0.5-0.4-0.7c-0.1-0.3-0.3-0.5-0.4-0.8l-0.1,0.1
			l0,0l0.1-0.1c-0.2-0.2-0.2-0.4-0.4-0.7l0,0c-0.2-0.2-0.2-0.4-0.4-0.7c-0.1-0.2-0.2-0.4-0.3-0.6c-0.1-0.2-0.2-0.6-0.3-0.7
			c-0.1-0.3-0.2-0.5-0.2-0.8c-0.1-0.2-0.2-0.4-0.2-0.6c-0.9-3.3-0.7-6.6,1-9.8l-4.5,5.8c-3.9,4.9-9.4,11.8-13,16.7l-2,2.5
			c-0.2,0.4-0.4,0.8-0.5,1.1c-0.8,1.2-1.2,2.1-1,2.3l0.4-0.5v0.1l-0.3,0.4c-0.1,0.4-0.2,0.8-0.2,1.2c0,0.3,0,0.6,0,0.9l0,0
			c0,0.3,0,0.6,0,0.9l0.1-0.2c0,0.1,0,0.1,0,0.2v0.1c0,0.2,0,0.5,0.1,0.8c0,0.2,0.1,0.4,0.1,0.6v0.1l-0.1,0.1
			c0.1,0.2,0.1,0.4,0.2,0.6v0.1l0,0v0.1c1,4.7,4.3,9.2,8.6,13c0.1,0.1,0.3,0.3,0.4,0.4c0.3,0.2,0.5,0.5,0.8,0.7
			c0.4,0.3,0.9,0.7,1.2,1l0,0l0,0l0,0c0.6,0.4,1.2,0.9,1.8,1.3c0.5,0.3,1,0.6,1.5,0.9c0.3,0.2,0.7,0.4,1,0.6
			c0.3,0.2,0.6,0.4,0.9,0.5s0.5,0.3,0.8,0.4s0.5,0.3,0.8,0.4l0,0c0.2,0.1,0.5,0.3,0.8,0.4l0,0c0,0,0,0,0.1,0l-0.1,0.1
			c0.3,0.1,0.6,0.2,0.9,0.3c0.2,0.1,0.4,0.1,0.5,0.2c0.4,0.2,0.9,0.3,1.3,0.5l0,0c0.3,0.1,0.6,0.2,0.9,0.2l0,0
			c0.3,0.1,0.6,0.2,0.9,0.2l0,0c0.1,0,0.1,0,0.2,0c0.5,0.1,1,0.2,1.4,0.3l0,0c0.2,0,0.3,0,0.5,0.1c0.2,0,0.4,0.1,0.6,0.1l0,0h0.1
			c0.1,0,0.3,0.1,0.4,0.1c0.2,0,0.4,0.1,0.7,0.1c0.2,0,0.4,0.1,0.7,0.1l0,0l0,0l0,0c0.2,0,0.4,0,0.6,0c0.2,0,0.5,0,0.7,0l0,0
			c0.2,0,0.4,0,0.7,0V200c0,0,0,0,0.1,0l0,0c0.2,0,0.4-0.1,0.6-0.1l0,0c0.2,0,0.4-0.1,0.6-0.1h0.1l0,0h0.1l-0.1,0.1
			c0.2-0.1,0.5-0.1,0.7-0.2c0.2-0.1,0.4-0.1,0.6-0.2l0,0c0,0,0,0,0.1,0l0,0l0,0c0.3-0.1,0.5-0.2,0.6-0.3v-0.1
			c0.3-0.1,0.5-0.2,0.8-0.4l-0.1,0.1c0.3-0.2,0.5-0.3,0.8-0.5l0,0l0.1-0.1l-0.1,0.1c0.3-0.2,0.6-0.4,0.9-0.7c0.3-0.3,0.6-0.7,0.9-1
			l19.5-25C543.9,172.8,543.1,173.5,542.1,174z"/>
	</g>
	<circle class="st7" cx="300.7" cy="43.9" r="7"/>
	<path class="st10" d="M289.1,145.5l-4.1,31.8h31.4l-4.1-31.8c-3.4,0.3-7.4,0.5-11.6,0.5S292.4,145.9,289.1,145.5z"/>
	<ellipse class="st7" cx="300.7" cy="105.9" rx="33" ry="10"/>
	<ellipse class="st7" cx="300.7" cy="142.7" rx="44.7" ry="13.6"/>
	<path class="st0" d="M279.1,142.7c0,1.2,4,2.3,10,2.9l0.7-5.8C283.4,140.3,279.1,141.4,279.1,142.7z"/>
	<path class="st0" d="M322.3,142.7c0-1.3-4.3-2.4-10.7-2.9l0.7,5.8C318.3,144.9,322.3,143.9,322.3,142.7z"/>
	<path class="st0" d="M282.9,105.9c0,1.3,4.5,2.5,10.9,3l0.8-6C287.7,103.3,282.9,104.5,282.9,105.9z"/>
	<path class="st0" d="M318.5,105.9c0-1.4-4.8-2.6-11.6-3l0.8,6C314,108.4,318.5,107.2,318.5,105.9z"/>
	<path class="st10" d="M306.9,102.9l-6.2-48.5l-6.2,48.5l-0.8,6c2.1,0.2,4.5,0.3,7,0.3s4.8-0.1,7-0.3L306.9,102.9z"/>
	<path class="st10" d="M308.5,115.6c-2.5,0.2-5.1,0.3-7.8,0.3c-2.7,0-5.3-0.1-7.8-0.3l-3.1,24.1l-0.7,5.8c3.4,0.3,7.4,0.5,11.6,0.5
		s8.3-0.2,11.6-0.5l-0.7-5.8L308.5,115.6z"/>
	<polygon class="st8" points="337.5,512.7 263.9,512.7 337.5,505.7 	"/>
	<polygon class="st8" points="337.5,541.1 263.9,541.1 337.5,534.1 	"/>
	<polygon class="st8" points="337.5,569.5 263.9,569.5 337.5,562.5 	"/>
	<polygon class="st8" points="337.5,597.9 263.9,597.9 337.5,590.9 	"/>
	<polygon class="st8" points="337.5,626.3 263.9,626.3 337.5,619.3 	"/>
	<path class="st25" d="M151.9,595.6l-10.5,192.6h318.8l-11-198.2l-17.3,20.5c-70.8,87.3-194,86.9-266.7-0.5L151.9,595.6z"/>
	<line class="st26" x1="131.7" y1="429.4" x2="116.5" y2="641"/>
	<line class="st26" x1="136" y1="532.8" x2="127.4" y2="652.8"/>
	<path class="st25" d="M149.9,637.6l-10.7,195.2h323.1l-11.1-200.9l-17.5,20.8c-71.7,88.5-196.6,88-270.3-0.5L149.9,637.6z"/>
	<line class="st26" x1="448.2" y1="386.5" x2="460.6" y2="546.6"/>
	<line class="st26" x1="469.6" y1="475.6" x2="475.6" y2="553.1"/>
	<path class="st25" d="M147.6,681.2l-10.8,198.2h328l-11.3-204l-17.8,21.1c-74,80.2-200.7,80-274.4-0.5L147.6,681.2z"/>
	<path class="st25" d="M145.5,722.4l-11,200.9H467l-11.5-206.8l-18,21.4c-75,81.3-203.5,81.1-278.2-0.5L145.5,722.4z"/>
	<g class="st1">
		<g class="st1">
			<g>
				<path id="SVGID_1_" class="st14" d="M422.9,675.8l35.2-20.5c3.7-2.2,8.8-1.8,14.5,1.4l-35.2,20.5
					C431.7,673.9,426.6,673.6,422.9,675.8z"/>
			</g>
			<g>
				<g>
					<g>
						<g>
							<g>
								<defs>
									<path id="SVGID_00000033344269783085499580000005304865382447404937_" d="M422.9,675.8l35.2-20.5c3.7-2.2,8.8-1.8,14.5,1.4
										l-35.2,20.5C431.7,673.9,426.6,673.6,422.9,675.8z"/>
								</defs>
								<clipPath id="SVGID_00000071524938243013564680000012212497828403486595_">
									<use xlink:href="#SVGID_00000033344269783085499580000005304865382447404937_"  style="overflow:visible;"/>
								</clipPath>
								<g style="clip-path:url(#SVGID_00000071524938243013564680000012212497828403486595_);enable-background:new    ;">
									<path class="st14" d="M422.9,675.8l35.2-20.5c0.5-0.3,1.1-0.6,1.6-0.8L424.5,675C424,675.2,423.4,675.5,422.9,675.8"/>
									<path class="st14" d="M424.5,675l35.2-20.5c0.5-0.2,0.9-0.3,1.4-0.4L426,674.6C425.5,674.7,425,674.9,424.5,675"/>
									<path class="st14" d="M426,674.6l35.2-20.5c0.4-0.1,0.8-0.1,1.2-0.2l-35.3,20.6C426.7,674.5,426.3,674.5,426,674.6"/>
									<path class="st14" d="M427.1,674.5l35.2-20.5c0.3,0,0.7,0,1.1,0l-35.2,20.4C427.8,674.4,427.5,674.4,427.1,674.5"/>
									<path class="st14" d="M428.2,674.4l35.2-20.5c0.3,0,0.6,0,1,0l-35.3,20.5C428.8,674.4,428.5,674.4,428.2,674.4"/>
									<path class="st14" d="M429.1,674.4l35.2-20.5c0.3,0,0.6,0.1,0.9,0.1L430,674.5C429.7,674.5,429.4,674.5,429.1,674.4"/>
									<path class="st14" d="M430,674.5l35.2-20.5c0.3,0,0.6,0.1,0.9,0.1l-35.2,20.6C430.6,674.6,430.3,674.6,430,674.5"/>
									<path class="st14" d="M430.9,674.7l35.2-20.5c0.3,0.1,0.6,0.1,0.8,0.2l-35.1,20.5C431.5,674.8,431.2,674.7,430.9,674.7"/>
									<path class="st14" d="M431.8,674.9l35.2-20.5c0.3,0.1,0.6,0.1,0.8,0.2l-35.2,20.5C432.3,675,432,674.9,431.8,674.9"/>
									<path class="st14" d="M432.6,675.1l35.3-20.5c0.3,0.1,0.5,0.2,0.8,0.3l-35.3,20.5C433.2,675.3,432.9,675.2,432.6,675.1"/>
									<path class="st14" d="M433.4,675.4l35.2-20.5c0.3,0.1,0.5,0.2,0.8,0.3l-35.2,20.5C434,675.6,433.7,675.5,433.4,675.4"/>
									<path class="st14" d="M434.2,675.7l35.2-20.5c0.3,0.1,0.5,0.2,0.8,0.3L435.1,676C434.8,675.9,434.5,675.8,434.2,675.7"/>
									<path class="st14" d="M435.1,676l35.2-20.5c0.3,0.1,0.5,0.3,0.8,0.4l-35.2,20.5C435.6,676.3,435.3,676.1,435.1,676"/>
									<path class="st14" d="M435.9,676.4l35.2-20.5c0.3,0.1,0.6,0.3,0.8,0.4l-35.2,20.5C436.4,676.7,436.2,676.5,435.9,676.4"/>
									<path class="st14" d="M436.7,676.8l35.2-20.5c0.2,0.1,0.4,0.2,0.6,0.4l-35.1,20.5C437.2,677.1,436.9,677,436.7,676.8"/>
								</g>
							</g>
						</g>
					</g>
				</g>
			</g>
		</g>
		<g>
			<path class="st12" d="M422.9,675.8c18.6-11,47.6,38.9,28.8,49.6C433.1,736.4,404.1,686.5,422.9,675.8z"/>
		</g>
		<g class="st1">
			<g>
				<path id="SVGID_00000151509203629686715430000015718468026832533893_" class="st14" d="M487,704.9l-35.3,20.5
					c14.8-12-0.5-40.5-14.4-48.3l35.2-20.5C486.5,664.5,501.7,692.8,487,704.9z"/>
			</g>
			<g>
				<g>
					<g>
						<g>
							<g>
								<defs>
									<path id="SVGID_00000016077718808756536930000003227898366444303776_" d="M487,704.9l-35.3,20.5
										c14.8-12-0.5-40.5-14.4-48.3l35.2-20.5C486.5,664.5,501.7,692.8,487,704.9z"/>
								</defs>
								<clipPath id="SVGID_00000074413083321514629010000018239961345717406607_">
									<use xlink:href="#SVGID_00000016077718808756536930000003227898366444303776_"  style="overflow:visible;"/>
								</clipPath>
								<g style="clip-path:url(#SVGID_00000074413083321514629010000018239961345717406607_);enable-background:new    ;">
									<path class="st14" d="M437.4,677.2l35.2-20.5c0.1,0,0.1,0.1,0.2,0.1l-35.2,20.5C437.5,677.3,437.4,677.2,437.4,677.2"/>
									<path class="st14" d="M437.6,677.3l35.2-20.5c0.3,0.2,0.6,0.3,0.9,0.5l-35.3,20.5C438.1,677.7,437.9,677.5,437.6,677.3"/>
									<path class="st14" d="M438.4,677.8l35.2-20.5c0.3,0.2,0.6,0.4,0.9,0.6l-35.2,20.5C439,678.2,438.7,678,438.4,677.8"/>
									<path class="st14" d="M439.3,678.4l35.2-20.5c0.3,0.2,0.6,0.4,0.9,0.6L440.2,679C439.9,678.8,439.6,678.6,439.3,678.4"/>
									<path class="st14" d="M440.2,679l35.2-20.4c0.3,0.2,0.6,0.4,0.9,0.7l-35.2,20.4C440.8,679.5,440.5,679.3,440.2,679"/>
									<path class="st14" d="M441.1,679.7l35.2-20.5c0.3,0.2,0.6,0.5,0.9,0.7L442,680.5C441.7,680.2,441.4,680,441.1,679.7"/>
									<path class="st14" d="M442,680.5l35.2-20.5c0.3,0.3,0.6,0.5,0.9,0.8l-35.2,20.5C442.6,681,442.3,680.7,442,680.5"/>
									<path class="st14" d="M442.9,681.3l35.2-20.5c0.3,0.3,0.6,0.5,0.9,0.8l-35.2,20.5C443.5,681.8,443.2,681.5,442.9,681.3"/>
									<path class="st14" d="M443.8,682.1l35.2-20.5c0.3,0.3,0.6,0.6,0.9,0.8l-35.3,20.5C444.4,682.6,444.1,682.4,443.8,682.1"/>
									<path class="st14" d="M444.6,682.9l35.3-20.4c0.3,0.3,0.6,0.6,0.8,0.9l-35.2,20.4C445.2,683.5,444.9,683.2,444.6,682.9"/>
									<path class="st14" d="M445.5,683.8l35.2-20.5c0.3,0.3,0.5,0.6,0.8,0.9l-35.2,20.5C446,684.4,445.7,684.1,445.5,683.8"/>
									<path class="st14" d="M446.3,684.7l35.2-20.5c0.3,0.3,0.5,0.6,0.8,0.9l-35.2,20.5C446.8,685.3,446.5,685,446.3,684.7"/>
									<path class="st14" d="M447.1,685.6l35.2-20.5c0.3,0.3,0.5,0.6,0.8,1l-35.3,20.5C447.6,686.3,447.3,685.9,447.1,685.6"/>
									<path class="st14" d="M447.8,686.6l35.3-20.5c0.3,0.4,0.6,0.8,0.9,1.2l-35.3,20.5C448.5,687.4,448.1,687,447.8,686.6"/>
									<path class="st14" d="M448.7,687.8l35.3-20.5c0.4,0.6,0.9,1.2,1.3,1.8L450,689.6C449.6,689,449.2,688.4,448.7,687.8"/>
									<path class="st14" d="M450,689.6l35.3-20.5c0.5,0.8,1,1.6,1.5,2.4L451.5,692C451.1,691.2,450.6,690.4,450,689.6"/>
									<path class="st14" d="M451.5,692l35.3-20.5c0.3,0.6,0.7,1.2,1,1.8l-35.2,20.5C452.2,693.2,451.9,692.6,451.5,692"/>
									<path class="st14" d="M452.6,693.8l35.2-20.5c0.2,0.4,0.4,0.8,0.6,1.2L453.2,695C453,694.6,452.8,694.2,452.6,693.8"/>
									<path class="st14" d="M453.2,695l35.2-20.5c0.2,0.4,0.4,0.7,0.5,1.1l-35.2,20.5C453.5,695.7,453.4,695.4,453.2,695"/>
									<path class="st14" d="M453.7,696.1l35.2-20.5c0.2,0.3,0.3,0.7,0.4,1l-35.1,20.5C454,696.8,453.9,696.4,453.7,696.1"/>
									<path class="st14" d="M454.2,697.1l35.2-20.5c0.1,0.3,0.3,0.6,0.4,1l-35.2,20.5C454.4,697.7,454.3,697.4,454.2,697.1"/>
									<path class="st14" d="M454.6,698.1l35.2-20.5c0.1,0.3,0.3,0.7,0.4,1L455,699C454.8,698.7,454.7,698.4,454.6,698.1"/>
									<path class="st14" d="M455,699l35.2-20.4c0.1,0.3,0.3,0.7,0.4,1L455.3,700C455.2,699.7,455.1,699.4,455,699"/>
									<path class="st14" d="M455.3,700l35.3-20.4c0.1,0.3,0.2,0.7,0.4,1l-35.3,20.5C455.6,700.7,455.5,700.4,455.3,700"/>
									<path class="st14" d="M455.7,701.1l35.2-20.5c0.1,0.4,0.2,0.7,0.3,1.1L456,702.1C455.9,701.8,455.8,701.4,455.7,701.1"/>
									<path class="st14" d="M456,702.1l35.3-20.5c0.1,0.4,0.2,0.7,0.3,1.1l-35.2,20.5C456.3,702.8,456.1,702.5,456,702.1"/>
									<path class="st14" d="M456.4,703.2l35.2-20.5c0.1,0.4,0.2,0.7,0.3,1.1l-35.3,20.5C456.5,703.9,456.5,703.6,456.4,703.2"/>
									<path class="st14" d="M456.6,704.3l35.2-20.5c0.1,0.4,0.2,0.7,0.2,1.1l-35.1,20.5C456.8,705,456.7,704.6,456.6,704.3"/>
									<path class="st14" d="M456.9,705.4l35.2-20.5c0.1,0.4,0.1,0.7,0.2,1.1l-35.2,20.4C457,706.1,457,705.7,456.9,705.4"/>
									<path class="st14" d="M457.1,706.4l35.2-20.5c0.1,0.3,0.1,0.7,0.2,1l-35.2,20.5C457.2,707.1,457.2,706.8,457.1,706.4"/>
									<path class="st14" d="M457.3,707.4l35.2-20.5c0.1,0.3,0.1,0.7,0.1,1l-35.2,20.6C457.4,708.1,457.3,707.8,457.3,707.4"/>
									<path class="st14" d="M457.4,708.5l35.2-20.5c0,0.3,0.1,0.7,0.1,1l-35.2,20.5C457.5,709.1,457.5,708.8,457.4,708.5"/>
									<path class="st14" d="M457.5,709.5l35.2-20.5c0,0.3,0.1,0.7,0.1,1l-35.2,20.5C457.6,710.1,457.6,709.8,457.5,709.5"/>
									<path class="st14" d="M457.6,710.5l35.2-20.5c0,0.3,0,0.7,0,1l-35.1,20.4C457.7,711.1,457.6,710.8,457.6,710.5"/>
									<path class="st14" d="M457.7,711.4l35.2-20.5c0,0.3,0,0.6,0,0.9c0,0,0,0,0,0.1l-35.2,20.5
										C457.7,712.2,457.7,711.7,457.7,711.4"/>
									<path class="st14" d="M457.7,712.4l35.2-20.5c0,0.3,0,0.7,0,1l-35.3,20.5C457.7,713.1,457.7,712.8,457.7,712.4"/>
									<path class="st14" d="M457.6,713.4l35.2-20.5c0,0.3,0,0.6-0.1,1l-35.1,20.5C457.6,714,457.6,713.7,457.6,713.4"/>
									<path class="st14" d="M457.6,714.4l35.2-20.5c0,0.3-0.1,0.7-0.1,1l-35.2,20.4C457.5,715,457.6,714.7,457.6,714.4"/>
									<path class="st14" d="M457.5,715.3l35.2-20.5c0,0.3-0.1,0.7-0.1,1l-35.3,20.5C457.4,716,457.4,715.7,457.5,715.3"/>
									<path class="st14" d="M457.3,716.3l35.2-20.5c-0.1,0.3-0.1,0.7-0.2,1l-35.2,20.5C457.2,717,457.3,716.7,457.3,716.3"/>
									<path class="st14" d="M457.1,717.3l35.2-20.5c-0.1,0.4-0.2,0.7-0.3,1l-35.1,20.6C457,718,457.1,717.7,457.1,717.3"/>
									<path class="st14" d="M456.9,718.4l35.2-20.5c-0.1,0.4-0.2,0.7-0.4,1.1l-35.2,20.4C456.6,719.1,456.8,718.7,456.9,718.4"/>
									<path class="st14" d="M456.5,719.4l35.2-20.5c-0.1,0.4-0.3,0.8-0.5,1.2L456,720.6C456.2,720.2,456.4,719.8,456.5,719.4"/>
									<path class="st14" d="M456,720.6l35.2-20.5c-0.2,0.5-0.5,1-0.8,1.4L455.3,722C455.5,721.5,455.8,721.1,456,720.6"/>
									<path class="st14" d="M455.3,722l35.2-20.5c0.5,2.4-36.8,22.3-38.8,23.9C453.1,724.6,454.3,723.5,455.3,722"/>
								</g>
							</g>
						</g>
					</g>
				</g>
			</g>
		</g>
	</g>
	<g>
		<path class="st5" d="M152.7,729.5l-18.5-5.2l-11.9-14.4l-12.1-6.5l-8.1-1.8l-6.1,2.8v8.4c33.5-1.1,17.5,27.3,56.6,25.1l0.4-4.3
			c-0.1,0-0.2,0-0.4,0L152.7,729.5L152.7,729.5z"/>
		<path class="st5" d="M171.7,723.3v-5l-18.5-5.2l-11.9-14.4l-12.1-6.5l-8.1-1.8l-6.1,2.8c0,0.5,0,7.9,0,8.3
			c33.6-1,16.9,27.2,56.5,25.1v-3.3L171.7,723.3L171.7,723.3z"/>
	</g>
	<path class="st8" d="M153.1,725.3c0,2.9,0.1,10-0.4,12.7C152.7,735.2,152.6,728,153.1,725.3z"/>
	<path class="st8" d="M171.8,713.8c-0.5,2.8-0.2,10-0.1,12.9C171.7,723.8,171.7,716.6,171.8,713.8z"/>
	<g>
		<g>
			<path class="st6" d="M132.3,696.4c-4.5-2.6-11.9-3.4-17.2-3.3l0.7-4.3c39.4-1.6,22.7,26,56.1,25.1l-0.4,4.4
				c-10.8,1.4-27.4-3.6-31.3-13.5C138.4,702.4,137.2,699.2,132.3,696.4z"/>
		</g>
		<g>
			<path class="st6" d="M153.1,725.3l-0.4,4.2c-38.9,2.3-23.3-26.3-56.6-25.1l0.9-4.3C135.5,698.3,120.4,726.6,153.1,725.3z"/>
		</g>
	</g>
	<path class="st7" d="M218.1,412.4c-1.8-1.1-3-1.7-3-1.8c0,0-0.1,0-0.1-0.1c-0.2-0.1-0.5-0.2-0.6-0.4c-0.3,0-0.5-0.2-0.7-0.2
		c-5.8-1.2-11.2,2.4-15.1,6.4c-1.8,1.9-3.3,4.1-4.7,6.2c0,0,0,0.1-0.1,0.1c-3.5,6.3-6.6,15.2-2.6,22c-0.2,1.6,20.2,12.7,26.7,16.5
		c2.7,3.2,7.4,3.7,12.7,0.6c4-2.3,7.6-6.1,10.3-10.6C230.1,440.7,222.1,427.4,218.1,412.4z"/>
	<path class="st29" d="M218.1,412.4c4,14.9,12,28.2,22.8,38.8c2.6-4.3,4.4-9.2,4.8-13.8c-3.9-4.5-7.2-9.4-9.9-14.8
		C230.4,419.5,222.4,414.9,218.1,412.4z"/>
	<path class="st0" d="M239.7,425.1c0.3,0.1,0.7,0.3,1.2,0.6c-0.7-0.4-2.6-1.5-5.1-3c2.7,5.3,6,10.3,9.9,14.8c0-0.6,0.1-1.1,0.1-1.7
		C245.7,429.5,241.3,426,239.7,425.1z"/>
	<path class="st7" d="M195.9,221c3.7,4.5,8.4,7.4,12.4,5.7l0,0l0,0c0.3-0.1,0.5-0.2,0.8-0.4s0.6-0.4,0.9-0.6
		c5.2-3,20.4-11.4,20-12.3c1-1.6,1.4-3.5,1.4-5.4c0,0,0,0,0-0.1c-0.2,0-0.2-0.2-0.2-0.4c0-0.7,0-1.5-0.1-2.2c-0.4-2-0.9-4-1.7-5.8
		c0,0,0-0.1-0.1-0.1c-0.4-0.9-0.8-2-1.3-2.7c0-0.1-0.1-0.1-0.1-0.1c-0.3-0.4-0.5-0.9-0.8-1.3c0-0.1-0.1-0.1-0.1-0.1
		c-0.2-0.3-0.5-0.7-0.7-1c-0.3-0.4-0.5-0.8-0.9-1.2c0,0,0,0-0.1-0.1C214.1,200.7,204.2,210.2,195.9,221z"/>
	<line class="st26" x1="379.8" y1="541.1" x2="407" y2="829.2"/>
	<line class="st26" x1="386.3" y1="731.7" x2="393.4" y2="823.6"/>
	<line class="st26" x1="218.4" y1="565.7" x2="207.4" y2="832.8"/>
	<line class="st26" x1="200.8" y1="627.1" x2="194.2" y2="759.8"/>
	<line class="st26" x1="399.6" y1="609.5" x2="407" y2="675.4"/>
</g>
<path class="st24" d="M576,641.3c-28.1,0.8-30.8,1.4-31.5,29.5c-0.8-28.1-1.4-28.8-29.5-29.5c28.1-0.8,28.8-3.4,29.5-31.5
	C545.3,637.9,547.9,640.5,576,641.3z"/>
<path class="st24" d="M128.7,343.2c-44,1.2-45,3.2-46.2,47.2c-1.2-44-3.2-46-47.2-47.2c44-1.2,46-2.2,47.2-46.2
	C83.7,341,84.7,342,128.7,343.2z"/>
<path class="st24" d="M471.8,130.2c-23.2,0.4-24.6,1.7-25,25c-0.4-23.2-0.7-24.6-24-25c23.2-0.4,23.6-0.7,24-24
	C447.3,129.4,448.6,129.8,471.8,130.2z"/>
<path class="st24" d="M102.6,95.5c-18.4,0.3-19.4,1.4-19.7,19.7c-0.3-18.4-0.6-19.4-19-19.7c18.4-0.3,18.6-0.6,19-19
	C83.2,94.9,84.2,95.2,102.6,95.5z"/>
</svg>
