<?xml version="1.0" encoding="utf-8"?>
<!-- Generator: Adobe Illustrator 26.0.1, SVG Export Plug-In . SVG Version: 6.00 Build 0)  -->
<svg version="1.1" id="Layer_1" xmlns="http://www.w3.org/2000/svg" xmlns:xlink="http://www.w3.org/1999/xlink" x="0px" y="0px"
	 viewBox="0 0 600 800" style="enable-background:new 0 0 600 800;" xml:space="preserve">
<style type="text/css">
	.st0{fill:#7F52FF;}
	.st1{fill:#FFFFFF;}
</style>
<rect x="-5.4" y="-6.7" class="st0" width="609.6" height="812.7"/>
<g>
	<g>
		<path d="M216.7,475.1l-1.1,3.2l-14.3-17c-2.1-2.4-5.8-2.8-8.2-0.7c-0.8,0.7-1.4,1.5-1.7,2.4c0.1-0.7,0.1-1.4-0.1-2.1
			c-0.7-3.2-3.7-5.2-6.9-4.5l-21.7,4.6l1.1-3.4c0.2-0.5-0.1-0.9-0.5-1.1l-8.6-2.9l-9.4,27.7l8.7,2.9c0.5,0.2,0.9-0.1,1.1-0.5
			l1.1-3.2l14.3,17c1.1,1.4,2.8,2,4.5,2c1.3,0,2.7-0.5,3.7-1.4c0.8-0.7,1.4-1.5,1.7-2.4c-0.1,0.7-0.1,1.4,0.1,2.1
			c0.6,2.7,3,4.7,5.7,4.7c0.4,0,0.8-0.1,1.2-0.1l21.7-4.6l-1.1,3.4c-0.2,0.5,0.1,0.9,0.5,1.1l8.4,2.8l9.6-27.5l-8.7-2.9
			C217.3,474.4,216.9,474.7,216.7,475.1z M184.9,491c-2,0.5-3.6,1.9-4.3,3.6c0.3-1.6-0.2-3.3-1.3-4.7l-14.7-17.4l22.1-4.7
			c2-0.5,3.6-1.9,4.3-3.6c-0.3,1.6,0.2,3.3,1.3,4.7l14.7,17.4L184.9,491z"/>
		<path d="M435.9,320.9l-207.7-86.5c-6.4-2.7-13.7,0.3-16.3,6.7l-40.1,96.1c-2.7,6.4,0.3,13.7,6.7,16.3l207.7,86.6
			c6.4,2.7,13.7-0.3,16.3-6.7l40.1-96.2C445.4,330.9,442.4,323.6,435.9,320.9z M293.4,340.7c-0.9,2.2-3.1,3.6-5.4,3.6
			c-0.7,0-1.5-0.2-2.3-0.5c-2.9-1.2-4.4-4.7-3.1-7.7c4.1-9.9,4.1-20.8,0.1-30.6s-11.7-17.6-21.6-21.7c-9.9-4.1-20.8-4.1-30.6-0.1
			c-9.9,4.1-17.6,11.7-21.7,21.6c-1.2,2.9-4.7,4.4-7.7,3.1c-2.9-1.2-4.4-4.7-3.1-7.7c5.3-12.8,15.3-22.6,28-27.9
			c12.8-5.3,26.8-5.2,39.5,0.1c12.8,5.3,22.6,15.3,27.9,28C298.7,313.9,298.7,327.9,293.4,340.7z M396.5,383.7
			c-0.9,2.2-3.1,3.6-5.4,3.6c-0.7,0-1.5-0.2-2.3-0.5c-2.9-1.2-4.4-4.7-3.1-7.7c4.1-9.9,4.1-20.8,0.1-30.6s-11.7-17.6-21.6-21.7
			s-20.8-4.1-30.6-0.1c-9.9,4.1-17.6,11.7-21.7,21.6c-1.2,2.9-4.7,4.4-7.7,3.1c-2.9-1.2-4.4-4.7-3.1-7.7c5.3-12.8,15.3-22.6,28-27.9
			c12.8-5.3,26.8-5.2,39.5,0.1c12.8,5.3,22.6,15.3,27.9,28C401.9,356.8,401.8,370.9,396.5,383.7z"/>
		<path d="M417.9,632.7h1.8c1.6,0,2.8-1.5,2.4-3.1l-3.3-12H380l3.1,13c0.2,1.2,1.2,2,2.4,2h1.2c-6.1,4.3-10.2,11.1-11,18.9
			c-0.2,1.5,1,2.8,2.5,2.8h48.1c1.5,0,2.7-1.3,2.5-2.8C428.1,643.8,423.9,637,417.9,632.7z"/>
		<path d="M347.4,632.7h0.6c1.6,0,2.8-1.5,2.4-3.1l-1.1-12l0,0h-37.8l1.1,13c0.2,1.2,1.2,2,2.4,2h1.2c-6.1,4.3-10.2,11.1-11,18.9
			c-0.2,1.5,1,2.8,2.5,2.8h48.1c1.5,0,2.7-1.3,2.5-2.8C357.6,643.8,353.4,637,347.4,632.7z"/>
	</g>
	<g>
		<path class="st1" d="M539,227.6l-11.7,2.9l-10,2.5l-22.1,5.5l-8.3,2l-7.7,1.9l-18,4.5l-91.5,22.9l-89.3-150
			c-7-11.8-24.4-10.5-29.7,2.1l-94.5,226.8c-6.2,14.9,0.9,31.9,15.7,38.2l1.3,0.6c-6.9,13.6-16.4,23-29.4,29
			c-16.8,7.9-37,9-56.4,10.1c-2.3,0.1-4.7,0.3-6.9,0.4c-15,0.9-29.8,10.2-36.8,23.1c-6.4,11.8-6.1,25.2,1,37.7
			c5.8,10.3,13.7,16.8,23.3,19.5c3.2,0.9,6.5,1.3,9.8,1.3c15.2,0,30.3-8.7,44-16.6c6.9-3.9,19.5-11.2,23.6-10.8l9.4-27.7
			c-15.5-5.3-31.8,4.1-47.5,13.2c-10.4,6-24.7,14.2-31.5,12.4c-0.7-0.2-2.9-0.8-5.6-5.7c-2.7-4.8-1.8-7.5-0.8-9.5
			c2.3-4.1,7.9-7.6,13-7.9c2.2-0.1,4.5-0.3,6.7-0.4c21.2-1.2,45.1-2.6,67.1-12.8c19.7-9.2,34.2-23.8,44-44.2l96.9,40.4l7.8,96.5
			c-7.1-4.5-14.3-11.5-22.2-19.1c-15-14.3-32.1-30.6-56.2-39l-9.5,27.4c18,6.4,32.2,19.8,45.7,32.6c13.6,12.9,27.5,26.3,45.1,30.9
			l4,49.2h37.8l-4.1-49.3c7-1.2,13.8-3.2,20.4-5.7l14.4,55.1h38.8L399.5,543c11.5-9.1,22.2-20.4,32.4-34c3.5-4.8,6.9-9.6,10-14.5
			c9.6-1.6,18.2-7.9,22.2-17.6l94.5-226.8C563.7,237.6,552.3,224.3,539,227.6z M171.8,337.3l40.1-96.2c2.7-6.4,10-9.4,16.3-6.7
			L436,320.9c6.4,2.7,9.4,10,6.7,16.3l-40.1,96.2c-2.7,6.4-10,9.4-16.3,6.7l-207.8-86.6C172.2,350.9,169.2,343.6,171.8,337.3z
			 M342.8,538.9l-6.8-83.6l1.8,0.7l20.4,77.9C353.1,536.1,348,537.8,342.8,538.9z M408.3,491.6c-5.6,7.5-11.3,14.1-17.3,19.8
			l-9.8-37.3l30.5,12.7C410.6,488.5,409.5,490,408.3,491.6z"/>
		<path class="st1" d="M304.3,351.5c2.9,1.2,6.4-0.2,7.7-3.1c4.1-9.9,11.8-17.5,21.7-21.6c9.9-4.1,20.8-4,30.6,0.1
			s17.5,11.8,21.6,21.7c4.1,9.9,4,20.8-0.1,30.6c-1.2,2.9,0.2,6.4,3.1,7.7c0.7,0.3,1.5,0.5,2.3,0.5c2.3,0,4.5-1.4,5.4-3.6
			c5.3-12.8,5.3-26.8,0.1-39.5c-5.3-12.8-15.1-22.7-27.9-28s-26.8-5.3-39.5-0.1c-12.8,5.3-22.7,15.1-28,27.9
			C299.8,346.9,301.3,350.3,304.3,351.5z"/>
		<path class="st1" d="M201.1,308.5c2.9,1.2,6.4-0.2,7.7-3.1c4.1-9.9,11.8-17.5,21.7-21.6s20.8-4,30.6,0.1
			c9.8,4.1,17.5,11.8,21.6,21.7c4.1,9.9,4,20.8-0.1,30.6c-1.2,2.9,0.2,6.4,3.1,7.7c0.7,0.3,1.5,0.5,2.3,0.5c2.3,0,4.5-1.4,5.4-3.6
			c5.3-12.8,5.3-26.8,0.1-39.5c-5.3-12.8-15.1-22.7-27.9-28c-12.8-5.3-26.8-5.3-39.5-0.1c-12.8,5.3-22.7,15.1-28,27.9
			C196.7,303.9,198.2,307.3,201.1,308.5z"/>
	</g>
</g>
</svg>
