<?xml version="1.0" encoding="utf-8"?>
<!-- Generator: Adobe Illustrator 26.0.1, SVG Export Plug-In . SVG Version: 6.00 Build 0)  -->
<svg version="1.1" id="Layer_1" xmlns="http://www.w3.org/2000/svg" xmlns:xlink="http://www.w3.org/1999/xlink" x="0px" y="0px"
	 viewBox="0 0 230.8 198.5" style="enable-background:new 0 0 230.8 198.5;" xml:space="preserve">
<path style="fill:#FFFFFF;" d="M203.5,76.2c-0.1-2.8-1.2-4.8-2.9-5.8c0,0,0,0,0,0l-13.1-7.6c2-1.8,4-3.3,6-4.5c4-2.3,8-3.3,11.5-2.7
	l6.4,3.7l9.7-12.5c-1.4-1.7-3.1-3.1-5-4.1c0.2,0.1,0.5,0.2,0.7,0.4l-42.3-24.6c-6.1-3.5-14.4-2.8-23.3,2.3
	c-12.8,7.4-23.9,21.7-29.5,36.7l-7.1-4.1c-6-1.7-13.4-0.3-20.9,4c-0.1,0.1-0.2,0.1-0.3,0.2c-0.2,0.1-0.3,0.2-0.5,0.3
	c-7.3,4.2-14,11.8-17.8,19.7l-7.5-4.4l-8.4,14.5c-6.1-3.3-14.2-2.4-22.7,2.5C17.9,101,3.1,125.8,3.1,146.8c0,10.2,3.5,17.2,9.3,20.5
	l42.3,24.6c-0.1-0.1-0.2-0.1-0.3-0.2c6.1,3.7,14.8,3.2,24.5-2.4c10.9-6.3,21-18.4,27-32.3l7,3.7c6.4,2.3,14.3,0.9,22.5-3.8
	c0.2-0.1,0.3-0.2,0.5-0.3c0.2-0.1,0.3-0.2,0.5-0.3c12.6-7.3,23.2-23.5,23-35.5c0-1.8-0.2-3.3-0.6-4.7l10.6,6.2
	c-0.1-0.1-0.2-0.1-0.3-0.2c6.1,3.7,14.9,3.1,24.6-2.5c11.1-6.4,21.5-18.9,27.4-33.2L203.5,76.2z"/>
<g>
	<g>
		<path style="fill:#07C39F;" d="M193.6,71.2c5.5-3.2,9.9-0.7,10,5.6c0,6.3-4.4,13.9-9.8,17.1c-5.5,3.2-9.9,0.7-10-5.6
			C183.7,82.1,188.1,74.4,193.6,71.2z"/>
	</g>
	<g>
		<path style="fill:#07C39F;" d="M205,96.5c2.6-3.4,4.9-7.3,6.5-11.3l9.6,1.3c-5.9,14.3-16.3,26.8-27.4,33.2
			c-18.5,10.7-33.5,3.2-33.6-17.8c-0.1-21,14.9-45.8,33.3-56.4c11.2-6.5,21.6-5.9,27.7,1.4l-9.7,12.5c-4-5-10.9-5-17.9-1
			c-3.8,2.2-7.7,5.7-11.2,10.2c-9.8,12.8-12.7,29.5-6.5,37.2c4,5,10.9,5,17.9,1C197.7,104.6,201.5,101.1,205,96.5z"/>
	</g>
	<g>
		<path style="fill:#07C39F;" d="M142.1,109.5c9.6-2.8,17.3-0.2,17.3,11.4c0.3,12-10.4,28.2-23,35.5c-0.2,0.1-0.3,0.2-0.5,0.3
			c-0.2,0.1-0.3,0.2-0.5,0.3c-8.2,4.7-16.1,6.1-22.5,3.8l6.6-14.5c4.3,2.1,9.9,1.3,15.7-2c0.2-0.1,0.4-0.2,0.6-0.4
			c11.5-6.6,16.7-23.8,3.9-20.4l-10.6,3c-9.1,2.5-15.3-1-15.3-10.9c-0.3-11.1,9.8-26.3,21.3-32.9c0.2-0.1,0.3-0.2,0.5-0.3
			c0.1-0.1,0.2-0.1,0.3-0.2c7.6-4.4,14.9-5.8,20.9-4l-6.5,14.3c-4-1.3-9-0.4-14,2.5c-0.2,0.1-0.4,0.3-0.7,0.4
			c-9.7,5.6-14.6,19.8-3.6,17L142.1,109.5z"/>
	</g>
	<g>
		<path style="fill:#07C39F;" d="M78.6,115c8.5-4.9,16.6-5.8,22.7-2.5l8.4-14.5l0.1,28.5l-24.9,14.4l8.4-14.5
			c-4.1-2.1-9.4-1.3-14.6,1.7c-5.5,3.2-11.1,8.9-15.2,16.2c-8,14.3-7.7,29.5,0.7,33.9c4.1,2.1,9.4,1.3,14.6-1.7
			c5.5-3.2,11.1-8.9,15.2-16.2c1-1.7,1.8-3.5,2.6-5.3l9.6,1.3c-5.9,14.2-16.3,26.7-27.4,33.2c-18.5,10.6-33.5,3.1-33.5-17.9
			C45.3,150.3,60.2,125.6,78.6,115z"/>
	</g>
</g>
</svg>
