<?xml version="1.0" encoding="utf-8"?>
<!-- Generator: Adobe Illustrator 26.0.1, SVG Export Plug-In . SVG Version: 6.00 Build 0)  -->
<svg version="1.1" id="Layer_1" xmlns="http://www.w3.org/2000/svg" xmlns:xlink="http://www.w3.org/1999/xlink" x="0px" y="0px"
	 viewBox="0 0 402 158" style="enable-background:new 0 0 402 158;" xml:space="preserve">
<path style="fill:#FC504D;" d="M388,87.4l5.7-0.8v-7l-7-3.8l8.5-1.2v-7.5l-18-9.8l-23.7,3.3v3.6l-5.2-2.8l-7.6,1.1l-3.5,5.9
	l-7.9-4.3l-8.1,1.1v3.6L316,66l-8.1,1.1v7.2l-10.5-5.7l-8.2,1.1V80l-15.4-8.4l-7.9,1.1l-4.3,11.7c-18.2-10.4-14.8-8.7-35.1-5.9v9.7
	c-11.8-6.9-22-13.1-32.4,0.1l-7.8-4.2l-8.2,1.2v7.2l-10.4-5.7l-8.2,1.1v7.4c-1.2-0.6-8.7-5-9.9-5.1c-3.5-1.1-16.5,1.7-20.2,2v3
	l-4.4-2.4l-23.7,3.3v7.5c-12.4-8-14.8-5.2-28.4-3.5v9.7c-2.2-1-11.9-6.9-14.1-7.2c-7.7-2-16,2.6-19.6,9.5c-2.6-1.2-8.9-5.4-11.8-5.6
	c-10.7-1.6-20.2,8.3-20,18.7c-1.6,12.6,17,17.6,24.9,22.8c-0.1,0-0.1-0.1-0.1-0.1c7.5,4.4,18.2-0.8,21.5-7.5
	c-3.8-2.7,1.8-12.2-2.4-14.4c0.6-1.5-14.9,0.7-13.7-0.2c1.3,8.5,18.4,13.9,24.3,18c0,0-0.1,0-0.1-0.1c7,4,17,0.3,21.3-6.2l7.8,4.3
	l8.2-1.1v-9.1c1.7-0.3,5-0.6,6.6-1.1l13.6,7.4l23.9-3.4v-2.9l4.2,2.3c6.2-1.3,21.4-1.1,24.7-7.2l5.4,2.9l8.2-1.1v-7.2l10.4,5.7
	l8.2-1.1v-9.7l11.2,6.1c0,0-0.1,0-0.1-0.1c6.9,4,17,0.3,21.3-6.2l7.8,4.3c5.5-1.2,19.6-1.3,23.4-5.7l3.5,1.9l8.6-1.2l2.1-6l5.2-0.7
	l8.3,4.5l8.8-1.2l-1-2.5l3.9,2.1l8.2-1.2v-7.2l10.5,5.7l8.1-1.1v-3.6l5.2,2.8l7.6-1.1l3.5-5.9l7.9,4.3l8.1-1.1v-3.6l5.2,2.8
	l23.9-3.4v-7.5L388,87.4z M30.8,147.2c0.3,0.2,0.6,0.4,0.9,0.6C31.4,147.6,31.1,147.4,30.8,147.2z M60.4,143c0.3,0.2,0.6,0.4,1,0.6
	C61.1,143.4,60.7,143.2,60.4,143z"/>
<path style="fill:#FC504D;" d="M65.7,90.7v-7.2l10.5,5.7l8.2-1.1v-9.7l11.2,6.1c0,0-0.1,0-0.1-0.1c6.9,4,17,0.3,21.3-6.2l7.8,4.3
	c8-1.5,27.1-1,26.4-12.4l9.7,5.3c0,0-0.1,0-0.1-0.1c6.9,4,17,0.3,21.3-6.2l7.8,4.3l8.2-1.1V55.4c1.2,1.7,18.7,10.6,20.8,11.9
	c0,0-0.1,0-0.1-0.1c4.4,2.6,11.2,1.9,15.6-0.9l10.5,5.7l7.3-1l0.5-6.4l6.4-0.9l9.3,5l6.9-1l0.6-8.9l3.6,2l8.2-1.1v-7.2l10.5,5.7
	l8.2-1.1v-3.6l5.2,2.8l23.9-3.4V50l4.2,2.3l23.9-3.4v-7.5l-7.4-4l5.7-0.8v-7l-7-3.8l8.5-1.2v-7.5l-18-9.8l-23.7,3.3v3l-4.4-2.4
	l-23.7,3.3v3.6l-5.2-2.8l-8.2,1.1v7.2l-10.5-5.7l-8.2,1.1v4.5l-6.6-3.6l-22.5,3.2c0,4.2-0.1,8.3-0.4,11.3
	c-11.2-6.1-22.2-14.9-33.3-2.7l-5.6-3.1l-21.2,3v9.7c-2.3-1.1-11.9-6.9-14.2-7.3c-8-2-16.5,3-19.9,10.3c-1.2-0.6-9.7-5.5-10.8-5.6
	c-3.5-1.1-16.5,1.7-20.2,2v9.7c-11.8-6.9-22-13.1-32.4,0.2l-7.8-4.2l-8.2,1.1v7.2L47.7,49l-8.2,1.1l-0.1,31.8l18,9.8L65.7,90.7z
	 M159.5,74.5c0.3,0.2,0.6,0.4,1,0.6C160.1,74.9,159.8,74.7,159.5,74.5z"/>
<g>
	<polygon style="fill:#FBAE2F;" points="363.2,17.1 363.2,24.6 347.6,26.8 347.6,31.6 361.8,29.6 361.7,36.5 347.6,38.5 347.6,43.6 
		363.4,41.4 363.4,48.9 339.5,52.2 339.5,20.4 	"/>
</g>
<g>
	<polygon style="fill:#FBAE2F;" points="335.1,21 335.1,28.5 319.5,30.7 319.5,35.5 333.6,33.5 333.6,40.5 319.5,42.5 319.5,47.5 
		335.3,45.3 335.3,52.8 311.4,56.2 311.4,24.4 	"/>
</g>
<g>
	<polygon style="fill:#FBAE2F;" points="306.2,25.1 306.1,56.9 298,58.1 298,45.9 287.5,47.4 287.5,59.5 279.3,60.7 279.4,28.9 
		287.6,27.7 287.5,39.6 298,38.1 298.1,26.2 	"/>
</g>
<g>
	<polygon style="fill:#FBAE2F;" points="395.2,67.1 395.2,74.6 379.6,76.8 379.6,81.6 393.7,79.6 393.7,86.6 379.6,88.6 379.6,93.6 
		395.4,91.4 395.4,98.9 371.5,102.3 371.5,70.5 	"/>
</g>
<g>
	<polygon style="fill:#FBAE2F;" points="366.3,71.2 366.2,103 358.2,104.1 358.2,86.2 346.7,105.7 339.1,106.8 339.2,75 347.3,73.9 
		347.2,91.8 358.7,72.3 	"/>
</g>
<g>
	<polygon style="fill:#FBAE2F;" points="333.9,75.7 333.9,107.6 325.7,108.7 325.7,96.6 315.3,98.1 315.2,110.2 307.1,111.3 
		307.1,79.5 315.3,78.4 315.3,90.3 325.8,88.8 325.8,76.9 	"/>
</g>
<g>
	<path style="fill:#FBAE2F;" d="M291.7,81.4l12.5,30.3l-8.8,1.2l-2.1-5.4l-11.4,1.6l-2.1,6l-8.6,1.2l12.6-33.8L291.7,81.4z
		 M284.3,102l6.6-0.9l-3.3-8.6L284.3,102"/>
</g>
<g>
	<path style="fill:#FBAE2F;" d="M272.8,53.9l3.3-0.5l-0.9,14.2l-6.9,1v-6.3l-15.7,2.2l-0.5,6.4l-7.3,1V57.8l2.6-0.4
		c2-6,3-11.7,3-23.7v-0.8l22.5-3.2L272.8,53.9z M264.6,55V38.6l-6.4,0.9v0.3c0,7-1,11.8-2.4,16.4L264.6,55"/>
</g>
<g>
	<path style="fill:#FBAE2F;" d="M227.7,35.5c9.1-1.3,15.8,5.1,15.8,14.3c0,9.1-6.9,17.5-16,18.8c-9.1,1.3-15.8-5.1-15.8-14.3
		C211.8,45.1,218.6,36.8,227.7,35.5z M227.7,60.6c4.5-0.6,7.5-4.9,7.5-9.6c0-4.6-3-8.2-7.6-7.5c-4.5,0.6-7.5,5-7.5,9.6
		C220.1,57.7,223.2,61.2,227.7,60.6"/>
</g>
<g>
	<polygon style="fill:#FBAE2F;" points="211,38.5 211,46.2 198,48 197.9,72.1 189.7,73.3 189.8,41.5 	"/>
</g>
<g>
	<path style="fill:#FBAE2F;" d="M169.7,43.6c9.1-1.3,15.8,5.1,15.8,14.3c0,9.1-6.9,17.5-16,18.8s-15.8-5.1-15.8-14.3
		C153.8,53.3,160.6,44.9,169.7,43.6z M169.7,68.8c4.5-0.6,7.5-4.9,7.5-9.6c0-4.6-3-8.2-7.6-7.5c-4.5,0.6-7.5,5-7.5,9.6
		C162.1,65.8,165.2,69.4,169.7,68.8"/>
</g>
<g>
	<path style="fill:#FBAE2F;" d="M145.2,62.9c3.6,0.8,5.8,2.6,5.8,7c0,5.5-4.2,9.4-11.2,10.4l-15.2,2.1l0.1-31.8l15.1-2.1
		c3.7-0.5,6.3,0.1,8.1,1.7c1.2,1.1,1.9,2.7,1.9,5C149.7,58.8,147.7,61.3,145.2,62.9z M138.9,73.3c2.5-0.3,3.9-1.6,3.9-3.6
		c0-1.7-1.3-2.7-4-2.3l-6.2,0.9v5.9L138.9,73.3 M132.6,56.6v5.6l5.1-0.7c2.5-0.4,3.9-1.5,3.9-3.4c0-1.7-1.3-2.6-3.7-2.2L132.6,56.6"
		/>
</g>
<g>
	<path style="fill:#FBAE2F;" d="M104.6,52.8c9.1-1.3,15.8,5.1,15.8,14.3c0,9.1-6.9,17.5-16,18.8c-9.1,1.3-15.8-5.1-15.8-14.3
		C88.6,62.4,95.5,54.1,104.6,52.8z M104.5,77.9c4.5-0.6,7.5-4.9,7.5-9.6c0-4.6-3-8.2-7.6-7.5c-4.5,0.6-7.5,5-7.5,9.6
		C97,75,100.1,78.5,104.5,77.9"/>
</g>
<g>
	<polygon style="fill:#FBAE2F;" points="84.4,56.3 84.4,88.1 76.2,89.2 76.2,77.1 65.8,78.6 65.7,90.7 57.5,91.8 57.6,60 65.8,58.9 
		65.8,70.8 76.3,69.3 76.3,57.4 	"/>
</g>
<g>
	<path style="fill:#FBAE2F;" d="M264.8,100.6c3.6,0.8,5.8,2.6,5.8,7.1c0,5.4-4.2,9.3-11.2,10.3l-15.2,2.1l0.1-31.8l15.1-2.1
		c3.7-0.5,6.3,0.1,8.1,1.7c1.2,1.1,1.9,2.7,1.9,5C269.4,96.6,267.4,99,264.8,100.6z M258.6,111c2.5-0.3,3.9-1.6,3.9-3.6
		c0-1.7-1.3-2.7-4-2.3l-6.2,0.9v5.9L258.6,111 M252.3,94.3v5.6l5.1-0.7c2.5-0.4,3.9-1.5,3.9-3.4c0-1.7-1.3-2.6-3.7-2.2L252.3,94.3"
		/>
</g>
<g>
	<path style="fill:#FBAE2F;" d="M224.3,90.5c9.1-1.3,15.8,5.1,15.8,14.3c0,9.1-6.9,17.5-16,18.8s-15.8-5.1-15.8-14.3
		S215.2,91.8,224.3,90.5z M224.2,115.6c4.5-0.6,7.5-4.9,7.5-9.6c0-4.6-3.1-8.2-7.6-7.5c-4.5,0.6-7.5,5-7.5,9.6
		C216.7,112.7,219.7,116.3,224.2,115.6"/>
</g>
<g>
	<polygon style="fill:#FBAE2F;" points="204.1,94 204.1,125.8 195.9,126.9 195.9,114.8 185.4,116.3 185.4,128.4 177.2,129.6 
		177.3,97.8 185.5,96.6 185.5,108.5 195.9,107 195.9,95.1 	"/>
</g>
<g>
	<path style="fill:#FBAE2F;" d="M167.7,114.3c3.6,0.8,5.8,2.6,5.8,7.1c0,5.4-4.1,9.3-11.2,10.3l-15.2,2.1l0.1-31.8l15.1-2.1
		c3.7-0.5,6.3,0.1,8.1,1.7c1.2,1.1,1.9,2.7,1.9,5C172.2,110.2,170.3,112.7,167.7,114.3z M161.4,124.7c2.5-0.3,3.9-1.6,3.9-3.6
		c0-1.7-1.3-2.7-4-2.3l-6.2,0.9v5.9L161.4,124.7 M155.1,108v5.6l5.1-0.7c2.5-0.4,3.9-1.5,3.9-3.4c0-1.7-1.3-2.6-3.7-2.2L155.1,108"
		/>
</g>
<g>
	<polygon style="fill:#FBAE2F;" points="142.8,102.6 142.8,110.1 127.2,112.3 127.1,117.1 141.3,115.1 141.3,122.1 127.1,124.1 
		127.1,129.1 142.9,126.9 142.9,134.4 119.1,137.7 119.1,105.9 	"/>
</g>
<g>
	<path style="fill:#FBAE2F;" d="M103.4,108.1c7.5-1,12.2,2.4,12.2,9.5c0,7.5-5.4,12.2-12.7,13.2l-4,0.6v9.1l-8.2,1.1l0.1-31.8
		L103.4,108.1z M102.7,124c2.9-0.4,4.7-2.3,4.7-4.9c0-2.7-1.8-3.9-4.7-3.5l-3.8,0.5v8.4L102.7,124"/>
</g>
<g>
	<path style="fill:#FBAE2F;" d="M70.6,112.1c9.1-1.3,15.8,5.1,15.8,14.3c0,9.1-6.9,17.5-16,18.8s-15.8-5.1-15.8-14.3
		C54.7,121.7,61.6,113.4,70.6,112.1z M70.6,137.2c4.5-0.6,7.5-4.9,7.5-9.6c0-4.6-3-8.2-7.6-7.5c-4.5,0.6-7.4,5-7.4,9.6
		C63.1,134.3,66.1,137.8,70.6,137.2"/>
</g>
<g>
	<path style="fill:#FBAE2F;" d="M40.8,116.3c6-0.8,9.8,1.5,12.3,5l-6,5.9c-1.7-2-3.7-3.2-6.5-2.8c-4.1,0.6-7.1,4.8-7.1,9.5
		c0,4.8,2.9,8.1,7,7.5c3.1-0.4,4.9-2.2,6.6-4.8l6.2,3.9c-2.8,4.5-6.5,8.1-13.1,9c-8.4,1.2-15.2-4.8-15.2-14.4
		C25.2,125.7,31.9,117.5,40.8,116.3z"/>
</g>
</svg>
