<?xml version="1.0" encoding="utf-8"?>
<!-- Generator: Adobe Illustrator 26.0.1, SVG Export Plug-In . SVG Version: 6.00 Build 0)  -->
<svg version="1.1" id="Layer_1" xmlns="http://www.w3.org/2000/svg" xmlns:xlink="http://www.w3.org/1999/xlink" x="0px" y="0px"
	 viewBox="0 0 230.8 186.3" style="enable-background:new 0 0 230.8 186.3;" xml:space="preserve">
<path style="fill:#0B997D;" d="M203.5,64c-0.1-2.8-1.2-4.8-2.9-5.8c0,0,0,0,0,0l-13.1-7.6c2-1.8,4-3.3,6-4.5c4-2.3,8-3.3,11.5-2.7
	l6.4,3.7l9.7-12.5c-1.4-1.7-3.1-3.1-5-4.1c0.2,0.1,0.5,0.2,0.7,0.4L174.5,6.3c-6.1-3.5-14.4-2.8-23.3,2.3
	c-12.8,7.4-23.9,21.7-29.5,36.7l-7.1-4.1c-6-1.7-13.4-0.3-20.9,4c-0.1,0.1-0.2,0.1-0.3,0.2c-0.2,0.1-0.3,0.2-0.5,0.3
	C85.6,50,78.9,57.6,75,65.5l-7.5-4.4l-8.4,14.5c-6.1-3.3-14.2-2.4-22.7,2.5C17.9,88.8,3.1,113.6,3.1,134.6c0,10.2,3.5,17.2,9.3,20.5
	l42.3,24.6c-0.1-0.1-0.2-0.1-0.3-0.2c6.1,3.7,14.8,3.2,24.5-2.4c10.9-6.3,21-18.4,27-32.3l7,3.7c6.4,2.3,14.3,0.9,22.5-3.8
	c0.2-0.1,0.3-0.2,0.5-0.3c0.2-0.1,0.3-0.2,0.5-0.3c12.6-7.3,23.2-23.5,23-35.5c0-1.8-0.2-3.3-0.6-4.7l10.6,6.2
	c-0.1-0.1-0.2-0.1-0.3-0.2c6.1,3.7,14.9,3.1,24.6-2.5c11.1-6.4,21.5-18.9,27.4-33.2L203.5,64z"/>
<g id="Layer_2_00000168816887759345540680000013513653524016086412_">
	<g>
		<g style="enable-background:new    ;">
			<g>
				<path style="fill:#07C39F;" d="M211-273.7l-42.3-24.6c2.6-3.4,4.9-7.3,6.5-11.3l42.3,24.6C215.9-281,213.7-277.1,211-273.7z"/>
			</g>
			<g>
				<polygon style="fill:#07C39F;" points="217.6,-285 175.3,-309.6 184.9,-308.3 227.2,-283.7 				"/>
			</g>
			<g>
				<path style="fill:#07C39F;" d="M184.8-262l-42.3-24.6c4,2.3,9.5,1.7,15-1.5c3.8-2.2,7.7-5.7,11.2-10.2l42.3,24.6
					c-3.5,4.6-7.4,8-11.2,10.2C194.3-260.3,188.8-259.6,184.8-262z"/>
			</g>
			<g>
				<path style="fill:#07C39F;" d="M172.3-337.9l42.3,24.6c1.1,0.6,2,1.4,2.9,2.5l-42.3-24.6C174.4-336.5,173.4-337.3,172.3-337.9z"
					/>
			</g>
			<g>
				<path style="fill:#07C39F;" d="M192.6-275.6l-42.3-24.6c-1.8-1-2.9-3.2-2.9-6.3l42.3,24.6C189.8-278.8,190.9-276.6,192.6-275.6z
					"/>
			</g>
			<g>
				<path style="fill:#07C39F;" d="M164.4-324.3l42.3,24.6c-1.8-1.1-4.3-0.9-7.1,0.7l-42.3-24.6
					C160.1-325.2,162.6-325.4,164.4-324.3z"/>
			</g>
			<g>
				<path style="fill:#07C39F;" d="M189.8-281.9l-42.3-24.6c0-6.3,4.4-14,9.8-17.1l42.3,24.6C194.1-295.8,189.7-288.2,189.8-281.9z"
					/>
			</g>
			<g>
				<path style="fill:#07C39F;" d="M199.6-299c5.5-3.2,9.9-0.7,10,5.6c0,6.3-4.4,13.9-9.8,17.1c-5.5,3.2-9.9,0.7-10-5.6
					C189.7-288.2,194.1-295.8,199.6-299z"/>
			</g>
			<g>
				<path style="fill:#07C39F;" d="M211-273.7c2.6-3.4,4.9-7.3,6.5-11.3l9.6,1.3c-5.9,14.3-16.3,26.8-27.4,33.2
					c-18.5,10.7-33.5,3.2-33.6-17.8c-0.1-21,14.9-45.8,33.3-56.4c11.2-6.5,21.6-5.9,27.7,1.4l-9.7,12.5c-4-5-10.9-5-17.9-1
					c-3.8,2.2-7.7,5.7-11.2,10.2c-9.8,12.8-12.7,29.5-6.5,37.2c4,5,10.9,5,17.9,1C203.7-265.7,207.5-269.1,211-273.7z"/>
			</g>
			<g>
				<path style="fill:#07C39F;" d="M175.5-247.9l-42.3-24.6c-5.7-3.3-9.2-10.3-9.2-20.5c-0.1-21,14.9-45.8,33.3-56.4
					c8.9-5.1,17.2-5.9,23.3-2.3l42.3,24.6c-6.1-3.5-14.4-2.8-23.3,2.3c-18.4,10.6-33.4,35.4-33.3,56.4
					C166.3-258.2,169.8-251.2,175.5-247.9z"/>
			</g>
		</g>
		<g style="enable-background:new    ;">
			<g>
				<path style="fill:#07C39F;" d="M103-271.2l42.3,24.6c4.9,2.8-0.3,14.9-9.5,20.2L93.5-251C102.8-256.3,107.9-268.4,103-271.2z"/>
			</g>
			<g>
				<path style="fill:#07C39F;" d="M112.2-284.9l42.3,24.6c-3.1-1.8-7.5-1.8-12.4-0.4l-42.3-24.6C104.7-286.7,109-286.7,112.2-284.9
					z"/>
			</g>
			<g>
				<polygon style="fill:#07C39F;" points="112.9,-209.5 70.6,-234.1 77.2,-248.6 119.5,-224 				"/>
			</g>
			<g>
				<path style="fill:#07C39F;" d="M119.5-224l-42.3-24.6c4.3,2.1,9.9,1.3,15.7-2c0.2-0.1,0.4-0.2,0.6-0.4l42.3,24.6
					c-0.2,0.1-0.4,0.2-0.6,0.4C129.4-222.7,123.8-222,119.5-224z"/>
			</g>
			<g>
				<polygon style="fill:#07C39F;" points="132.1,-257.9 89.9,-282.5 99.8,-285.3 142.1,-260.7 				"/>
			</g>
			<g>
				<path style="fill:#07C39F;" d="M127.4-258.1l-42.3-24.6c1,0.6,2.6,0.7,4.7,0.2l42.3,24.6C130-257.4,128.4-257.5,127.4-258.1z"/>
			</g>
			<g>
				<path style="fill:#07C39F;" d="M135.6-287.9l-42.3-24.6c0.1-0.1,0.2-0.1,0.3-0.2c7.6-4.4,14.9-5.8,20.9-4l42.3,24.6
					c-6-1.7-13.4-0.3-20.9,4C135.9-288,135.8-288,135.6-287.9z"/>
			</g>
			<g>
				<path style="fill:#07C39F;" d="M118.5-244.3l-42.3-24.6c-3-1.7-4.7-5.2-4.7-10.4l42.3,24.6C113.8-249.5,115.6-246,118.5-244.3z"
					/>
			</g>
			<g>
				<path style="fill:#07C39F;" d="M113.8-254.7l-42.3-24.6c-0.3-11.1,9.8-26.3,21.3-32.9c0.2-0.1,0.3-0.2,0.5-0.3l42.3,24.6
					c-0.2,0.1-0.3,0.2-0.5,0.3C123.7-281,113.5-265.8,113.8-254.7z"/>
			</g>
			<g>
				<path style="fill:#07C39F;" d="M142.1-260.7c9.6-2.8,17.3-0.2,17.3,11.4c0.3,12-10.4,28.2-23,35.5c-0.2,0.1-0.3,0.2-0.5,0.3
					c-0.2,0.1-0.3,0.2-0.5,0.3c-8.2,4.7-16.1,6.1-22.5,3.8l6.6-14.5c4.3,2.1,9.9,1.3,15.7-2c0.2-0.1,0.4-0.2,0.6-0.4
					c11.5-6.6,16.7-23.8,3.9-20.4l-10.6,3c-9.1,2.5-15.3-1-15.3-10.9c-0.3-11.1,9.8-26.3,21.3-32.9c0.2-0.1,0.3-0.2,0.5-0.3
					c0.1-0.1,0.2-0.1,0.3-0.2c7.6-4.4,14.9-5.8,20.9-4l-6.5,14.3c-4-1.3-9-0.4-14,2.5c-0.2,0.1-0.4,0.3-0.7,0.4
					c-9.7,5.6-14.6,19.8-3.6,17L142.1-260.7z"/>
			</g>
		</g>
		<g style="enable-background:new    ;">
			<g>
				<polygon style="fill:#07C39F;" points="93.7,-213.4 51.4,-237.9 61,-236.7 103.3,-212.1 				"/>
			</g>
			<g>
				<path style="fill:#07C39F;" d="M60.9-190.4l-42.3-24.6c0.1,0.1,0.3,0.1,0.4,0.2c4.1,2.1,9.4,1.3,14.6-1.7
					c5.5-3.2,11.1-8.9,15.2-16.2c1-1.7,1.8-3.5,2.6-5.3l42.3,24.6c-0.7,1.8-1.6,3.6-2.6,5.3c-4.1,7.3-9.6,13-15.2,16.2
					c-5.2,3-10.5,3.8-14.6,1.7C61.2-190.2,61-190.3,60.9-190.4z"/>
			</g>
			<g>
				<polygon style="fill:#07C39F;" points="81.9,-227.4 39.7,-252 48.1,-266.5 90.4,-241.9 				"/>
			</g>
			<g>
				<polygon style="fill:#07C39F;" points="98.4,-255.8 56.1,-280.4 64.5,-294.9 106.8,-270.3 				"/>
			</g>
			<g>
				<path style="fill:#07C39F;" d="M75.6-253.3l-42.3-24.6c8.5-4.9,16.6-5.8,22.7-2.5l42.3,24.6C92.3-259.1,84.1-258.2,75.6-253.3z"
					/>
			</g>
			<g>
				<path style="fill:#07C39F;" d="M51.7-176.4L9.4-201c-5.7-3.3-9.2-10.3-9.3-20.5c-0.1-21,14.8-45.8,33.2-56.4l42.3,24.6
					c-18.4,10.6-33.3,35.4-33.2,56.4C42.4-186.7,46-179.7,51.7-176.4z"/>
			</g>
			<g>
				<path style="fill:#07C39F;" d="M75.6-253.3c8.5-4.9,16.6-5.8,22.7-2.5l8.4-14.5l0.1,28.5l-24.9,14.4l8.4-14.5
					c-4.1-2.1-9.4-1.3-14.6,1.7c-5.5,3.2-11.1,8.9-15.2,16.2c-8,14.3-7.7,29.5,0.7,33.9c4.1,2.1,9.4,1.3,14.6-1.7
					c5.5-3.2,11.1-8.9,15.2-16.2c1-1.7,1.8-3.5,2.6-5.3l9.6,1.3c-5.9,14.2-16.3,26.7-27.4,33.2c-18.5,10.6-33.5,3.1-33.5-17.9
					C42.3-217.9,57.2-242.6,75.6-253.3z"/>
			</g>
		</g>
	</g>
</g>
<g>
	<g>
		<path style="fill:#07C39F;" d="M193.6,59c5.5-3.2,9.9-0.7,10,5.6c0,6.3-4.4,13.9-9.8,17.1c-5.5,3.2-9.9,0.7-10-5.6
			C183.7,69.8,188.1,62.2,193.6,59z"/>
	</g>
	<g>
		<path style="fill:#07C39F;" d="M205,84.3c2.6-3.4,4.9-7.3,6.5-11.3l9.6,1.3c-5.9,14.3-16.3,26.8-27.4,33.2
			c-18.5,10.7-33.5,3.2-33.6-17.8c-0.1-21,14.9-45.8,33.3-56.4c11.2-6.5,21.6-5.9,27.7,1.4l-9.7,12.5c-4-5-10.9-5-17.9-1
			c-3.8,2.2-7.7,5.7-11.2,10.2c-9.8,12.8-12.7,29.5-6.5,37.2c4,5,10.9,5,17.9,1C197.7,92.3,201.5,88.9,205,84.3z"/>
	</g>
	<g>
		<path style="fill:#07C39F;" d="M142.1,97.3c9.6-2.8,17.3-0.2,17.3,11.4c0.3,12-10.4,28.2-23,35.5c-0.2,0.1-0.3,0.2-0.5,0.3
			c-0.2,0.1-0.3,0.2-0.5,0.3c-8.2,4.7-16.1,6.1-22.5,3.8l6.6-14.5c4.3,2.1,9.9,1.3,15.7-2c0.2-0.1,0.4-0.2,0.6-0.4
			c11.5-6.6,16.7-23.8,3.9-20.4l-10.6,3c-9.1,2.5-15.3-1-15.3-10.9c-0.3-11.1,9.8-26.3,21.3-32.9c0.2-0.1,0.3-0.2,0.5-0.3
			c0.1-0.1,0.2-0.1,0.3-0.2c7.6-4.4,14.9-5.8,20.9-4l-6.5,14.3c-4-1.3-9-0.4-14,2.5c-0.2,0.1-0.4,0.3-0.7,0.4
			c-9.7,5.6-14.6,19.8-3.6,17L142.1,97.3z"/>
	</g>
	<g>
		<path style="fill:#07C39F;" d="M78.6,102.7c8.5-4.9,16.6-5.8,22.7-2.5l8.4-14.5l0.1,28.5l-24.9,14.4l8.4-14.5
			c-4.1-2.1-9.4-1.3-14.6,1.7c-5.5,3.2-11.1,8.9-15.2,16.2c-8,14.3-7.7,29.5,0.7,33.9c4.1,2.1,9.4,1.3,14.6-1.7
			c5.5-3.2,11.1-8.9,15.2-16.2c1-1.7,1.8-3.5,2.6-5.3l9.6,1.3c-5.9,14.2-16.3,26.7-27.4,33.2c-18.5,10.6-33.5,3.1-33.5-17.9
			C45.3,138.1,60.2,113.4,78.6,102.7z"/>
	</g>
</g>
</svg>
