<svg id="Layer_1" data-name="Layer 1" xmlns="http://www.w3.org/2000/svg" viewBox="0 0 166.63 80.34"><defs><style>.cls-1{fill:#fff;}.cls-2{isolation:isolate;}.cls-3{fill:#07c39f;}</style></defs><rect class="cls-1" x="16.56" y="20.23" width="117.67" height="39" transform="translate(-4.74 10.74) rotate(-7.9)"/><g id="Layer_2" data-name="Layer 2"><g class="cls-2"><polygon class="cls-1" points="158.86 45.84 141.22 35.83 148.99 39.88 166.63 49.88 158.86 45.84"/><path class="cls-1" d="M153.59,52.23,136,42.23a21.66,21.66,0,0,0,5.27-6.4l17.64,10A21.49,21.49,0,0,1,153.59,52.23Z"/><path class="cls-1" d="M136.17,11.68l17.65,10a14.5,14.5,0,0,1,5,4.74l-17.65-10A14.24,14.24,0,0,0,136.17,11.68Z"/><path class="cls-1" d="M135.12,54.61l-17.64-10a14.87,14.87,0,0,0,9.42,1.71,18.44,18.44,0,0,0,9-4.09l17.64,10a18.44,18.44,0,0,1-9.05,4.09A14.81,14.81,0,0,1,135.12,54.61Z"/><path class="cls-1" d="M131.18,20.37l17.64,10a7,7,0,0,0-4.46-.81l-17.64-10A7,7,0,0,1,131.18,20.37Z"/><path class="cls-1" d="M140,45.85l-17.64-10a7.39,7.39,0,0,1-3.58-6.56l17.64,10A7.39,7.39,0,0,0,140,45.85Z"/><path class="cls-1" d="M136.44,39.29l-17.64-10c0-4.73,3.51-9.07,7.92-9.72l17.64,10C140,30.22,136.4,34.57,136.44,39.29Z"/><path class="cls-1" d="M144.36,29.57c4.43-.62,8,2.67,8,7.38s-3.51,9.06-7.92,9.7-8-2.66-8.05-7.36S140,30.22,144.36,29.57Z"/><path class="cls-1" d="M129.1,63.29l-17.65-10c-7-4-11.6-11.65-11.63-21.36,0-15.78,12-29.59,26.84-31.68a23,23,0,0,1,14.63,2.65l17.64,10a22.93,22.93,0,0,0-14.63-2.64c-14.83,2.08-26.89,15.9-26.84,31.67C117.49,51.63,122.08,59.31,129.1,63.29Z"/><path class="cls-1" d="M153.59,52.23a21.49,21.49,0,0,0,5.27-6.39l7.77,4c-4.79,8.78-13.13,14.86-22.1,16.12-14.94,2.1-27-8.31-27.07-24.08s12-29.59,26.84-31.67a22.39,22.39,0,0,1,22.3,9.88l-7.8,6.29A14.41,14.41,0,0,0,144.4,20a18.51,18.51,0,0,0-9.06,4.09c-7.9,6.47-10.23,18-5.2,25.8a14.4,14.4,0,0,0,14.4,6.45A18.44,18.44,0,0,0,153.59,52.23Z"/></g><g class="cls-2"><path class="cls-1" d="M81.84,40.67l17.64,10c5.75,3.25,1.53,11.82-6.52,13l-17.64-10C83.37,52.49,87.59,43.93,81.84,40.67Z"/><path class="cls-1" d="M87.69,32.21l17.64,10A20,20,0,0,0,98,39.92l-17.64-10A19.82,19.82,0,0,1,87.69,32.21Z"/><path class="cls-1" d="M85.87,19l17.64,10q.63.36,1.23.78l-17.65-10A13.93,13.93,0,0,0,85.87,19Z"/><path class="cls-1" d="M82.12,61.83l-17.64-10A16.18,16.18,0,0,0,74.82,53.7l.5-.07L93,63.63l-.5.08A16.32,16.32,0,0,1,82.12,61.83Z"/><polygon class="cls-1" points="74.46 68.97 56.82 58.97 62.13 50.19 79.77 60.19 74.46 68.97"/><path class="cls-1" d="M76.75,70.45l-17.64-10A24.14,24.14,0,0,1,56.82,59L74.46,69A24.14,24.14,0,0,0,76.75,70.45Z"/><polygon class="cls-1" points="89.98 38.83 72.34 28.83 80.36 29.92 98 39.92 89.98 38.83"/><path class="cls-1" d="M87.12,37.9l-17.64-10a8.58,8.58,0,0,0,2.86.93L90,38.83A8.36,8.36,0,0,1,87.12,37.9Z"/><path class="cls-1" d="M90.93,10.25l17.65,10A24.36,24.36,0,0,0,93.1,17.44l-.29,0-17.64-10,.29,0A24.25,24.25,0,0,1,90.93,10.25Z"/><path class="cls-1" d="M81.43,46.47l-17.64-10A12.09,12.09,0,0,1,57.58,25.4l17.64,10A12.09,12.09,0,0,0,81.43,46.47Z"/><path class="cls-1" d="M75.22,35.4l-17.64-10C57.34,17,65.5,8.84,74.75,7.54l.42-.06,17.64,10-.42.06C83.14,18.84,75,27,75.22,35.4Z"/><path class="cls-1" d="M98,39.92c7.74,1,13.94,5.37,14,14,.22,9.08-8.34,17.81-18.52,19.24l-.41.06-.42.06A24.65,24.65,0,0,1,74.46,69l5.31-8.78a16,16,0,0,0,12.69,3.52l.5-.08c9.29-1.31,13.47-12.49,3.16-14l-8.56-1.14c-7.35-1-12.32-5.59-12.34-13.06C75,27,83.14,18.84,92.39,17.54l.42-.06.29,0A24.22,24.22,0,0,1,110,21.11l-5.24,8.68a15.72,15.72,0,0,0-11.33-2.61l-.52.08C85.08,28.36,81.16,37.43,90,38.83Z"/></g><g class="cls-2"><polygon class="cls-1" points="58.97 59.94 41.33 49.94 49.1 53.97 66.74 63.97 58.97 59.94"/><polygon class="cls-1" points="62.75 29.64 45.11 19.64 51.89 11.44 69.53 21.44 62.75 29.64"/><polygon class="cls-1" points="49.51 45.69 31.87 35.69 38.67 27.48 56.31 37.48 49.51 45.69"/><path class="cls-1" d="M35.27,68.72l-17.65-10A14.72,14.72,0,0,0,27,60.41,19.3,19.3,0,0,0,39.24,53.1a21.34,21.34,0,0,0,2.09-3.16L59,59.94a20.83,20.83,0,0,1-2.09,3.16,19.21,19.21,0,0,1-12.24,7.31A14.69,14.69,0,0,1,35.27,68.72Z"/><path class="cls-1" d="M36.27,25.77l17.64,10a15,15,0,0,1,2.4,1.71l-17.64-10A13.87,13.87,0,0,0,36.27,25.77Z"/><path class="cls-1" d="M41.32,16.92,59,26.92a22.78,22.78,0,0,0-14.55-2.63l-17.64-10A22.85,22.85,0,0,1,41.32,16.92Z"/><path class="cls-1" d="M29.32,77.35l-17.64-10C4.64,63.36,0,55.66,0,45.93,0,30.17,11.94,16.37,26.77,14.28l17.64,10C29.58,26.37,17.59,40.17,17.64,55.93,17.67,65.66,22.28,73.36,29.32,77.35Z"/><path class="cls-1" d="M44.41,24.29a22.44,22.44,0,0,1,18.34,5.35l6.78-8.2.07,21.43L49.51,45.69l6.8-8.21a14.49,14.49,0,0,0-11.78-3.4,19.26,19.26,0,0,0-12.24,7.31C25.82,49.55,26.08,61,32.87,67a14.46,14.46,0,0,0,11.77,3.4A19.21,19.21,0,0,0,56.88,63.1,20.83,20.83,0,0,0,59,59.94l7.77,4C62,72.75,53.63,78.83,44.66,80.09c-14.9,2-27-8.4-27-24.16S29.58,26.37,44.41,24.29Z"/></g></g><path class="cls-3" d="M144.36,29.57c4.43-.62,8,2.67,8,7.38s-3.51,9.06-7.92,9.7-8-2.66-8.05-7.36S140,30.22,144.36,29.57Z"/><path class="cls-3" d="M153.59,52.23a21.49,21.49,0,0,0,5.27-6.39l7.77,4c-4.79,8.78-13.13,14.86-22.1,16.12-14.94,2.1-27-8.31-27.07-24.08s12-29.59,26.84-31.67a22.39,22.39,0,0,1,22.3,9.88l-7.8,6.29A14.41,14.41,0,0,0,144.4,20a18.51,18.51,0,0,0-9.06,4.09c-7.9,6.47-10.23,18-5.2,25.8a14.4,14.4,0,0,0,14.4,6.45A18.44,18.44,0,0,0,153.59,52.23Z"/><path class="cls-3" d="M98,39.92c7.74,1,13.94,5.37,14,14,.22,9.08-8.34,17.81-18.52,19.24l-.41.06-.42.06A24.65,24.65,0,0,1,74.46,69l5.31-8.78a16,16,0,0,0,12.69,3.52l.5-.08c9.29-1.31,13.47-12.49,3.16-14l-8.56-1.14c-7.35-1-12.32-5.59-12.34-13.06C75,27,83.14,18.84,92.39,17.54l.42-.06.29,0A24.22,24.22,0,0,1,110,21.11l-5.24,8.68a15.72,15.72,0,0,0-11.33-2.61l-.52.08C85.08,28.36,81.16,37.43,90,38.83Z"/><path class="cls-3" d="M44.41,24.29a22.44,22.44,0,0,1,18.34,5.35l6.78-8.2.07,21.43L49.51,45.69l6.8-8.21a14.49,14.49,0,0,0-11.78-3.4,19.26,19.26,0,0,0-12.24,7.31C25.82,49.55,26.08,61,32.87,67a14.46,14.46,0,0,0,11.77,3.4A19.21,19.21,0,0,0,56.88,63.1,20.83,20.83,0,0,0,59,59.94l7.77,4C62,72.75,53.63,78.83,44.66,80.09c-14.9,2-27-8.4-27-24.16S29.58,26.37,44.41,24.29Z"/></svg>