<svg xmlns="http://www.w3.org/2000/svg" xml:space="preserve" id="Layer_1" x="0" y="0" version="1.1" viewBox="0 0 600 800">
  <rect width="600" height="800" x="-1.1" y="1.9" fill="#663682"/>
  <circle cx="396.6" cy="182.6" r="19.5" fill="#fffdff"/>
  <circle cx="75.5" cy="544.3" r="8.1" fill="#fffdff"/>
  <circle cx="407.7" cy="759.1" r="13" fill="#fffdff"/>
  <g fill="none" stroke="#8ff4ee" stroke-miterlimit="10">
    <line x1="298.9" x2="298.9" y1="-14.6" y2="818.5"/>
    <line x1="715.5" x2="-117.6" y1="401.9" y2="401.9"/>
  </g>
  <circle cx="298.9" cy="401.9" r="198.9" fill="none" stroke="#ff935e" stroke-miterlimit="10"/>
  <circle cx="298.9" cy="401.9" r="306.5" fill="none" stroke="#ff935e" stroke-miterlimit="10"/>
  <circle cx="298.9" cy="401.9" r="416.6" fill="none" stroke="#ff935e" stroke-miterlimit="10"/>
  <path fill="#fbd854" d="m493.3 417.6-52.4-6.2.3-6.9 52.7-1.8-52.7-2.2c0-2.3-.1-4.6-.2-6.9l52.4-5.9-52.7 1.8c-.2-2.3-.4-4.6-.8-6.8l51.8-9.9-52.4 5.9c-.4-2.3-.8-4.5-1.3-6.7l50.9-13.8-51.8 9.9c-.5-2.2-1.1-4.4-1.8-6.6l49.7-17.6-50.9 13.8c-.7-2.2-1.5-4.3-2.3-6.5l48.2-21.4-49.7 17.6c-.9-2.1-1.8-4.2-2.8-6.3l46.4-25-48.2 21.4c-1-2-2.1-4.1-3.3-6l44.4-28.5-46.4 25c-1.2-2-2.4-3.9-3.7-5.8l42.1-31.8-44.4 28.5c-1.3-1.9-2.7-3.7-4.1-5.5l39.5-34.9-42.1 31.8c-1.5-1.8-3-3.5-4.6-5.1l36.7-37.9-39.5 35c-1.6-1.6-3.2-3.2-4.9-4.8l33.7-40.6-36.7 37.9c-1.7-1.5-3.5-3-5.3-4.4l30.5-43-33.6 40.5c-1.8-1.4-3.7-2.7-5.6-4l27.1-45.2-30.5 43c-1.9-1.2-3.9-2.4-5.9-3.5l23.6-47.2-27.1 45.2c-2-1.1-4.1-2.1-6.1-3.1l19.9-48.8-23.6 47.2c-2.1-.9-4.2-1.8-6.4-2.6l16.1-50.2-19.9 48.8c-2.2-.7-4.3-1.4-6.5-2.1l12.2-51.3-16.1 50.2c-2.2-.6-4.4-1.1-6.7-1.6l8.2-52.1-12.1 51.4c-2.2-.4-4.5-.8-6.8-1.1l4.2-52.6-8.2 52.1c-2.3-.2-4.5-.4-6.8-.5l.2-52.7-4.2 52.6c-1.3 0-2.6-.1-3.9-.1h-2.9l-3.8-52.6-.2 52.7c-2.3.1-4.6.3-6.8.5l-7.9-52.2 3.8 52.6c-2.3.3-4.5.6-6.8 1l-11.8-51.4 7.9 52.1c-2.3.5-4.5 1-6.7 1.5L248 213.8l11.8 51.4c-2.2.6-4.4 1.3-6.6 2l-19.5-49 15.7 50.3c-2.2.8-4.3 1.6-6.4 2.5l-23.2-47.3 19.5 49c-2.1 1-4.1 2-6.2 3l-26.8-45.4 23.2 47.3c-2 1.1-4 2.3-5.9 3.5l-30.2-43.2 26.8 45.4c-1.9 1.3-3.8 2.6-5.6 3.9l-33.4-40.8 30.2 43.2c-1.8 1.4-3.6 2.9-5.3 4.4l-36.4-38.1 33.4 40.8c-1.7 1.5-3.3 3.1-5 4.7l-39.2-35.2 36.4 38.1c-1.6 1.7-3.1 3.4-4.6 5.1l-41.7-32 39.3 35.2-4.2 5.4-44.2-28.8 41.8 32.1c-1.3 1.9-2.6 3.8-3.8 5.7l-46.2-25.4 44.2 28.8c-1.1 2-2.3 4-3.3 6l-48-21.7 46.2 25.3c-1 2.1-1.9 4.1-2.8 6.3l-49.5-18 48 21.7c-.8 2.1-1.6 4.3-2.3 6.5l-50.8-14.2 49.5 18c-.7 2.2-1.3 4.4-1.8 6.6l-51.7-10.2L160 371c-.5 2.2-.9 4.5-1.3 6.7l-52.4-6.2 51.7 10.2c-.3 2.3-.6 4.5-.8 6.8l-52.7-2.2 52.4 6.2-.3 6.9-52.7 1.8 52.7 2.2c0 2.3.1 4.6.2 6.9l-52.4 5.9 52.7-1.8c.2 2.3.4 4.6.8 6.8l-51.8 9.9 52.4-5.9c.4 2.3.8 4.5 1.3 6.7l-50.9 13.8 51.8-9.9c.5 2.2 1.1 4.4 1.8 6.6L112.8 460l50.9-13.8c.7 2.2 1.5 4.3 2.3 6.5l-48.2 21.4 49.7-17.6c.9 2.1 1.8 4.2 2.8 6.3l-46.4 25 48.2-21.4c1 2 2.1 4.1 3.3 6L131 501l46.4-25c1.2 2 2.4 3.9 3.7 5.8L139 513.6l44.4-28.5c1.3 1.9 2.7 3.7 4.1 5.5L148 525.5l42.1-31.8c1.5 1.8 3 3.5 4.6 5.1L158 536.6l39.5-35c1.6 1.6 3.2 3.2 4.9 4.8L168.7 547l36.7-37.9c1.7 1.5 3.5 3 5.3 4.4l-30.5 43 33.7-40.6c1.8 1.4 3.7 2.7 5.6 4l-27.1 45.2 30.5-43c1.9 1.2 3.9 2.4 5.9 3.5l-23.6 47.2 27.1-45.2c2 1.1 4.1 2.1 6.1 3.1l-19.9 48.8 23.6-47.2c2.1.9 4.2 1.8 6.4 2.6l-16.1 50.2 19.9-48.8c2.2.7 4.3 1.4 6.5 2.1l-12.2 51.3 16.1-50.2c2.2.6 4.4 1.1 6.7 1.6l-8.2 52.1 12.2-51.3c2.2.4 4.5.8 6.8 1.1l-4.2 52.6 8.2-52.1c2.3.2 4.5.4 6.8.5l-.2 52.7 4.2-52.6c1.3 0 2.6.1 3.9.1h2.9l3.8 52.6.2-52.7c2.3-.1 4.6-.3 6.8-.5l7.9 52.2-3.8-52.6c2.3-.3 4.5-.6 6.8-1l11.8 51.4-7.9-52.1c2.3-.5 4.5-1 6.7-1.5l15.7 50.3-11.8-51.4c2.2-.6 4.4-1.3 6.6-2l19.5 49-15.7-50.3c2.2-.8 4.3-1.6 6.4-2.5l23.2 47.3-19.5-49c2.1-1 4.1-2 6.2-3l26.8 45.4-23.2-47.3c2-1.1 4-2.3 5.9-3.5l30.2 43.2-26.8-45.4c1.9-1.3 3.8-2.6 5.6-3.9l33.4 40.8-30.2-43.2c1.8-1.4 3.6-2.9 5.3-4.4l36.4 38.1-33.4-40.8c1.7-1.5 3.3-3.1 5-4.7l39.2 35.2-36.4-38.1c1.6-1.7 3.1-3.4 4.6-5.1l41.8 32.1-39.3-35.2 4.2-5.4L458 515l-41.8-32.1c1.3-1.9 2.6-3.8 3.8-5.7l46.2 25.4-44.2-29.2c1.1-2 2.3-4 3.3-6l48 21.7-46.2-25.3c1-2.1 1.9-4.1 2.8-6.3l49.5 18-48-21.7c.8-2.1 1.6-4.3 2.3-6.5l50.8 14.2-49.5-18c.7-2.2 1.3-4.4 1.8-6.6l51.7 10.2-50.8-14.2c.5-2.2.9-4.5 1.3-6.7l52.4 6.2-51.7-10.2c.3-2.3.6-4.5.8-6.8l52.8 2.2z"/>
  <circle cx="440.1" cy="263.6" r="37.7" fill="#ff935e"/>
  <circle cx="87.4" cy="172.6" r="70" fill="#fc6949"/>
  <g fill="#fbd854">
    <path d="M408.2 258.7 384 287.9l3.2 2.5 21.9-30.9c-.3-.3-.6-.6-.9-.8zM419.3 267.1l-26.8 27.7 3 2.7 24.6-29.6-.8-.8zM425.9 281.1l-.8-.8-24.8 21.9 2.8 2.9 23-23.7c0-.1-.1-.2-.2-.3zM439.5 286.2l-31.8 24 2.6 3.1 30-26.5c-.3-.1-.6-.3-.8-.6zM450.3 295.8l-35.9 23.1 2.3 3.3 34.1-25.8c-.1-.2-.3-.4-.5-.6z"/>
  </g>
  <circle cx="477.8" cy="650" r="46.2" fill="#fffdff"/>
  <path fill="#fb504d" d="M31.2 179.6c0-34.8 28.2-63.1 63.1-63.1 33.7 0 61.2 26.4 63 59.7.1-1.2.1-2.4.1-3.6 0-38.7-31.3-70-70-70s-70 31.3-70 70 31.3 70 70 70c1.2 0 2.4 0 3.6-.1-33.3-1.7-59.8-29.2-59.8-62.9z"/>
  <path fill="#fc6949" d="M440.1 226c-20.8 0-37.7 16.9-37.7 37.7v1.9c.9-18 15.8-32.2 34-32.2 18.8 0 34 15.2 34 34 0 18.2-14.3 33-32.2 34h1.9c20.8 0 37.7-16.9 37.7-37.7 0-20.9-16.9-37.7-37.7-37.7z"/>
  <circle cx="129.5" cy="117.2" r="24" fill="#fffdff"/>
  <circle cx="87.4" cy="172.8" r="96.5" fill="none" stroke="#ff935e" stroke-miterlimit="10"/>
  <circle cx="71.7" cy="269.3" r="12.9" fill="#ff935e"/>
  <path fill="#ff935e" d="M286.8 404.8c-2.8 5.2-2.1 13.1 4.2 15.2 7.9 2.7 14-5.1 16.6-11.4-1.6-.4-3.2-.9-4.8-1.3-.8 5.4 3 11.4 8.4 12.9 5.8 1.6 11.3-1.4 14.9-5.9-1.4-.6-2.8-1.2-4.3-1.8.3 4.4 3.1 8.5 7.6 9.5 4.3 1 8.9-.8 11.7-4.1 2.8-3.4 3.9-8.1 1.6-12.1-1.9-3.3-5.6-5-9.3-5.1-4-.1-7.9 1.8-10.1 5.2-2.1 3.3-2 7.6-.3 11 2.3 4.7 7.7 6.5 12.6 5.1 7.6-2.3 9.9-10.8 10.2-17.9.1-1.3-1.2-2.5-2.5-2.5-1.5 0-2.3 1.2-2.5 2.5-.6 5.2-.1 11.5 4 15.3 3 2.8 7.4 3.7 11.2 2.2 2.3-.9 4.1-2.4 5.6-4.4.8-1.1.2-2.8-.9-3.4-1.3-.7-2.6-.2-3.4.9-.2.3.3-.2-.2.3-.2.2-.3.4-.5.6-.2.2-.4.3-.6.5-.4.4.3-.2-.1.1-.4.3-.8.5-1.3.7-.4.2.4-.1-.2.1-.2.1-.3.1-.5.2s-.5.1-.7.2c-.7.2.2 0-.2 0h-1.3c-.7 0 .2.1-.2 0-.2 0-.5-.1-.7-.2-.2-.1-.5-.1-.7-.2-.5-.2.4.2-.2-.1-.4-.2-.8-.5-1.2-.7.5.4-.2-.1-.2-.2l-.5-.5c-.1-.1-.5-.7-.2-.2-.2-.2-.3-.5-.5-.7-.2-.3-.3-.5-.4-.8-.1-.1-.1-.3-.2-.4.1.2.1.2 0 0-1.1-2.9-1.1-5.9-.7-9.1h-5c-.1 2.8-.6 6.1-1.7 8.3-.3.5-.5 1.1-.8 1.6-.1.2-.3.4-.4.6 0 0-.2.3-.1.1.2-.2-.2.2-.2.3-.3.3-.6.7-1 1-.1.1-.5.4-.3.2s-.3.2-.5.3c-.3.2-.7.4-1.1.6.4-.2.2-.1-.1 0-.2.1-.4.1-.7.2-.4.1-.7.2-1.1.2h-1.7c-.5 0 0 0 0 0-.2 0-.3-.1-.5-.1l-.9-.3c-.7-.2.3.2-.3-.1-1.6-.9-2.7-2.7-2.9-4.7-.2-2.3.8-4.5 3.1-5.8 3.7-2 10-.1 9 5-.6 2.9-3.3 5.4-6.2 5.8-3 .4-5.6-1.8-5.8-4.8-.1-1.9-2.8-3.6-4.3-1.8-2.5 3-5.7 5.3-9.6 4.7-1.4-.2-2.8-1.4-3.8-2.6-.9-1.2-1.7-3-1.6-4.3.5-3.2-3.6-4.3-4.8-1.3-1.1 2.5-2.7 5.1-4.9 6.7-1.7 1.3-3.4 1.8-5.4 1.3-.6-.2-.6-.2-1.1-.5.3.2-.2-.2-.2-.2-.1-.1-.5-.6-.2-.2-.2-.2-.3-.5-.4-.7-.1-.2-.1-.1 0 .1 0-.1-.1-.2-.1-.3-.1-.2-.1-.5-.2-.7 0-.1-.1-.9-.1-.4-.1-.5-.1-1 0-1.5 0-.2 0-.5.1-.7-.1.5.1-.3.1-.3.1-.5.2-.9.4-1.4 0-.1.3-.8.2-.5-.1.3.2-.4.2-.5 1.5-3.2-2.8-5.7-4.3-2.8z"/>
  <path fill="#ff935e" d="M292.2 386.4c-2.2-4.6-8.3-5.9-12.8-4.2-2.5.9-4.4 3-6.2 4.9-5.8 5.9-11.1 12.3-16.6 18.5-2.4 2.7-4.7 5.5-7.4 7.8-.9.7-1.9 1.4-2.9 1.8-.4.1-.9.3-1.3.3H244.1c-1-.1-1.3-.3-1.9-.7-.6-.4.2.3-.3-.2-.1-.1-.3-.2-.4-.4.2.3-.3-.4-.2-.4-.3-.5 0 .1-.2-.5-.3-.9-.3-1.7 0-2.5-.1.4.2-.4.2-.3-.2.3 0 0 .1-.1.3-.4.3-.3.9-.6.2-.1 1.4-.4 1.6-.4h1.1c.7 0-.5-.1.2 0 .3.1.5.1.8.2 2.4.7 4.8 1.5 7 3 2 1.4 3.5 3.3 5.6 4.6 9.3 5.6 22.6 2.4 30.1-4.8 2.3-2.2-1.2-5.8-3.5-3.5-6.1 5.9-17.2 8.6-24.6 3.7-2-1.3-3.5-3.3-5.7-4.6-2.4-1.5-5.2-2.5-7.9-3.2-4-1.1-9 .5-10.5 4.7-1.7 4.7 1.4 9.9 6.2 10.9 5.2 1.1 9.4-2.3 12.7-5.8 5.8-6.1 11.2-12.6 16.8-18.8 2.5-2.7 4.9-5.6 7.7-8 .3-.3.6-.5.2-.2.2-.1.3-.3.5-.4.6-.3 1.5-.6 2.2-.6 2.2-.2 4.2.5 5.2 2.4.6 1.2 2.3 1.5 3.4.9 1.1-.9 1.3-2.3.8-3.5z"/>
  <circle cx="73.1" cy="735.4" r="147" fill="#8886fc"/>
  <path fill="#adc6ff" d="M73.1 588.4c-2.6 0-5.2.1-7.7.2 69.6 3.8 124.8 61.4 124.8 131.8 0 72.9-59.1 132-132 132-70.5 0-128.1-55.2-131.8-124.8-.1 2.6-.2 5.1-.2 7.7 0 81.2 65.8 147 147 147s147-65.8 147-147-65.9-146.9-147.1-146.9z"/>
</svg>
