<?xml version="1.0" encoding="utf-8"?>
<!-- Generator: Adobe Illustrator 26.0.1, SVG Export Plug-In . SVG Version: 6.00 Build 0)  -->
<svg version="1.1" id="Layer_1" xmlns="http://www.w3.org/2000/svg" xmlns:xlink="http://www.w3.org/1999/xlink" x="0px" y="0px"
	 viewBox="0 0 600 800" style="enable-background:new 0 0 600 800;" xml:space="preserve">
<rect x="-3.5" y="-4.2" style="fill:#FF7A63;" width="607" height="809.4"/>
<g>
	<g>
		<path style="fill:#FF935E;" d="M198.4,446.6c-13.4-7.5-17.4-27.6-28.3-37.5c-11.3-10.2-31.6-12.3-40.1-24.5
			c-8.6-12.4-3.5-32.2-9.1-46.1s-23.1-24.6-25.5-39.4c-2.4-14.7,10.7-30.4,11.7-45.5c0.9-14.8-10.2-32-5.9-46.6
			c4.2-14.1,22.8-22.5,30.3-35.9s5-33.6,14.9-44.5c10.2-11.3,30.7-10.7,42.9-19.2c12.4-8.6,19-28,32.8-33.6
			c13.9-5.6,32.1,3.7,46.9,1.3c14.7-2.4,29.1-17.1,44.1-16.1c14.8,0.9,27.2,17.2,41.7,21.5c14.1,4.2,33.4-2.8,46.7,4.7
			c13.4,7.5,17.4,27.6,28.3,37.5c11.3,10.2,31.6,12.3,40.1,24.5c8.6,12.4,3.5,32.2,9.1,46.1c5.6,13.9,23.1,24.6,25.5,39.4
			c2.4,14.7-10.7,30.4-11.7,45.5c-0.9,14.8,10.2,32,5.9,46.6c-4.2,14.1-22.8,22.5-30.3,35.9s-5,33.6-14.9,44.5
			c-10.2,11.3-30.7,10.7-42.9,19.2c-12.4,8.6-19,28-32.8,33.6c-13.9,5.6-32.1-3.7-46.9-1.3c-14.7,2.4-29.1,17.1-44.1,16.1
			c-14.8-0.9-27.2-17.2-41.7-21.5C231,447.1,211.8,454.1,198.4,446.6"/>
	</g>
	<g>
		<path style="fill:#FC6949;" d="M300,446.1c-18.8,0-35-14.7-52-20.2c-17.6-5.7-39.3-3.6-53.9-14.2c-14.8-10.8-19.4-32.2-30.2-46.9
			c-10.6-14.6-29.6-25.6-35.3-43.2c-5.5-17,3.2-36.9,3.2-55.7s-8.7-38.7-3.2-55.7c5.7-17.6,24.7-28.5,35.3-43.2
			c10.8-14.8,15.4-36.2,30.2-46.9c14.6-10.6,36.4-8.5,53.9-14.2c17-5.5,33.2-20.2,52-20.2s35,14.7,52,20.2
			c17.6,5.7,39.3,3.6,53.9,14.2c14.8,10.8,19.4,32.2,30.2,46.9c10.6,14.6,29.6,25.6,35.3,43.2c5.5,17-3.2,36.9-3.2,55.7
			s8.7,38.7,3.2,55.7c-5.7,17.6-24.7,28.5-35.3,43.2c-10.8,14.8-15.4,36.2-30.2,46.9c-14.6,10.6-36.4,8.5-53.9,14.2
			C335,431.4,318.8,446.1,300,446.1"/>
	</g>
	<circle style="fill:#FB504D;" cx="300" cy="265.9" r="144.5"/>
</g>
<g>
	<path style="fill:#6F6FE2;" d="M42.1,662.3"/>
	<rect x="431" y="722.5" style="fill:#FF935E;stroke:#FB504D;stroke-width:2;stroke-miterlimit:10;" width="130.9" height="76.4"/>
	
		<rect x="365.5" y="646.1" style="fill:#FF935E;stroke:#FB504D;stroke-width:2;stroke-miterlimit:10;" width="130.9" height="76.4"/>
	
		<rect x="234.6" y="646.1" style="fill:#FF935E;stroke:#FB504D;stroke-width:2;stroke-miterlimit:10;" width="130.9" height="76.4"/>
	<rect x="300" y="569.8" style="fill:#FF935E;stroke:#FB504D;stroke-width:2;stroke-miterlimit:10;" width="130.9" height="76.4"/>
	
		<rect x="169.1" y="569.8" style="fill:#8886FC;stroke:#FB504D;stroke-width:2;stroke-miterlimit:10;" width="130.9" height="76.4"/>
	<rect x="300" y="722.5" style="fill:#FF935E;stroke:#FB504D;stroke-width:2;stroke-miterlimit:10;" width="130.9" height="76.4"/>
	
		<rect x="169.1" y="722.5" style="fill:#FF935E;stroke:#FB504D;stroke-width:2;stroke-miterlimit:10;" width="130.9" height="76.4"/>
	
		<rect x="103.6" y="646.1" style="fill:#8886FC;stroke:#FB504D;stroke-width:2;stroke-miterlimit:10;" width="130.9" height="76.4"/>
	<rect x="38.2" y="722.5" style="fill:#8886FC;stroke:#FB504D;stroke-width:2;stroke-miterlimit:10;" width="130.9" height="76.4"/>
</g>
<g>
	<path style="fill:#FBAE2F;" d="M373,544.9h-3.9c-5.8,0-10.6,4.7-10.6,10.6V569H397l0,0C397,555.7,386.3,544.9,373,544.9z"/>
	<path style="fill:#FBAE2F;" d="M255,446.2h94.5c15.6,0,28.3,12.7,28.3,28.3V569h-19.9v-87.7c0-8.4-6.8-15.2-15.2-15.2H255V446.2z"
		/>
	<path style="fill:#FBD854;" d="M260.4,621.1h-3.9c-5.8,0-10.6,4.7-10.6,10.6v13.5h38.5l0,0C284.5,631.9,273.7,621.1,260.4,621.1z"
		/>
	<rect x="245.9" y="456.1" style="fill:#FBD854;" width="19.9" height="189"/>
	<path style="fill:#FBAE2F;" d="M153.5,621.1h-3.9c-5.8,0-10.6,4.7-10.6,10.6v13.5h38.5l0,0C177.6,631.9,166.8,621.1,153.5,621.1z"
		/>
	<rect x="138.4" y="456.1" style="fill:#FBAE2F;" width="19.9" height="189"/>
	<path style="fill:#FBD854;" d="M285.1,282.4h68.6c18,0,32.5-14.6,32.5-32.5l0,0c0-18-14.6-32.5-32.5-32.5h-68.6V282.4z"/>
	<path style="fill:#FBD854;" d="M275.4,376.9v-68.6c0-18-14.6-32.5-32.5-32.5l0,0c-18,0-32.5,14.6-32.5,32.5v68.6H275.4z"/>
	<path style="fill:#FBD854;" d="M200.4,376.9v-68.6c0-18-14.6-32.5-32.5-32.5l0,0c-18,0-32.5,14.6-32.5,32.5v68.6H200.4z"/>
	<rect x="285" y="217.4" style="fill:#FBD854;" width="50.6" height="161.7"/>
	<path style="fill:#FBD854;" d="M250.1,369.1h85.5v55.2c0,23.1-18.7,41.8-41.8,41.8h-43.7L250.1,369.1L250.1,369.1z"/>
	<path style="fill:#FBD854;" d="M265.8,241.5L265.8,241.5c10.6,0,19.3-8.6,19.3-19.3v-4.8h-38.5v4.8
		C246.5,232.9,255.2,241.5,265.8,241.5z"/>
	<path style="fill:#FBD854;" d="M99.6,393.2L99.6,393.2c10.6,0,19.3-8.6,19.3-19.3v-4.8H80.3v4.8C80.3,384.6,89,393.2,99.6,393.2z"
		/>
	<path style="fill:#FBD854;" d="M133.9,621.1H130c-5.8,0-10.6,4.7-10.6,10.6v13.5H158l0,0C158,631.9,147.2,621.1,133.9,621.1z"/>
	<rect x="118.8" y="369.1" style="fill:#FBD854;" width="139.1" height="96.9"/>
	<rect x="118.8" y="456.1" style="fill:#FBD854;" width="19.9" height="189"/>
</g>
<path style="fill:#8886FC;" d="M282.4,219.8L282.4,219.8c0,1.3,1.1,2.4,2.4,2.4l35.2-0.1v14.5c0,7.3,5.9,13.2,13.2,13.2l0,0
	c7.3,0,13.2-5.9,13.2-13.2v-19.3h-61.6C283.5,217.4,282.4,218.5,282.4,219.8z"/>
</svg>
