<?xml version="1.0" encoding="utf-8"?>
<!-- Generator: Adobe Illustrator 26.0.1, SVG Export Plug-In . SVG Version: 6.00 Build 0)  -->
<svg version="1.1" xmlns="http://www.w3.org/2000/svg" xmlns:xlink="http://www.w3.org/1999/xlink" x="0px" y="0px"
	 viewBox="0 0 600 800" style="enable-background:new 0 0 600 800;" xml:space="preserve">
<g id="Layer_1">
	<rect x="-2" y="-2.2" style="fill:#ADC6FF;" width="604" height="805.3"/>
	<g>
		<g>
			<path style="fill:#FBD854;" d="M357.2,459.7H241.3c-53.5,0-96.9-43.4-96.9-96.9V206.1c0-53.5,43.4-96.9,96.9-96.9h115.9
				c53.5,0,96.9,43.4,96.9,96.9v156.7C454,416.3,410.7,459.7,357.2,459.7z"/>
			<g>
				<path style="fill:#FBD854;stroke:#9657B6;stroke-width:2;stroke-miterlimit:10;" d="M244.3,326.3h-14.1
					c-21.1,0-38.3-17.1-38.3-38.3v-36.6h90.7V288C282.6,309.1,265.5,326.3,244.3,326.3z"/>
				<path style="fill:#FBD854;stroke:#9657B6;stroke-width:2;stroke-miterlimit:10;" d="M368.3,326.3h-14.1
					c-21.1,0-38.3-17.1-38.3-38.3v-36.6h90.7V288C406.5,309.1,389.4,326.3,368.3,326.3z"/>
				
					<rect x="191.9" y="247.3" style="fill:#FBD854;stroke:#9657B6;stroke-width:2;stroke-miterlimit:10;" width="214.6" height="11.2"/>
			</g>
			<path style="fill:#FBD854;stroke:#9657B6;stroke-width:2;stroke-miterlimit:10;" d="M291.4,328.1h-8.3c-5.6,0-9.6-5.4-8.1-10.7
				l4.1-14.2l12.2,9.2V328.1z"/>
			<path style="fill:#FBD854;stroke:#9657B6;stroke-width:2;stroke-miterlimit:10;" d="M307.2,328.1h8.3c5.6,0,9.6-5.4,8.1-10.7
				l-4.1-14.2l-12.2,9.2V328.1z"/>
			<path style="fill:#FE9C99;" d="M325.2,369.4h-51.9c-5.9,0-10.6-4.8-10.6-10.6v0c0-5.9,4.8-10.6,10.6-10.6l25.9-8.5l25.9,8.5
				c5.9,0,10.6,4.8,10.6,10.6v0C335.8,364.6,331.1,369.4,325.2,369.4z"/>
			<g>
				<path style="fill:#9657B6;" d="M359.8,439.9c-9,0-16.3-7.3-16.3-16.3v-51.7c0-7.7-6.2-13.9-13.9-13.9h-14
					c-9,0-16.3-7.3-16.3-16.3s-24.1-16.3-15.1-16.3h45.4c25.6,0,46.5,20.9,46.5,46.5v51.7C376,432.6,368.8,439.9,359.8,439.9z"/>
			</g>
			<g>
				<path style="fill:#9657B6;" d="M238.7,439.9c9,0,16.3-7.3,16.3-16.3v-51.7c0-7.7,6.2-13.9,13.9-13.9h14c9,0,16.3-7.3,16.3-16.3
					s-7.3-16.3-16.3-16.3h-14c-25.6,0-46.5,20.9-46.5,46.5v51.7C222.4,432.6,229.7,439.9,238.7,439.9z"/>
			</g>
			<path style="fill:#FBD854;stroke:#9657B6;stroke-width:2;stroke-miterlimit:10;" d="M299.2,332.7L299.2,332.7
				c-13.3,0-23.3-12.1-20.9-25.2l5.8-30.8h30.2l5.8,30.8C322.6,320.6,312.5,332.7,299.2,332.7z"/>
			<path style="fill:#9657B6;" d="M118.2,213.8v30.4c16.9,6.7,35.4,10.3,54.7,10.3c82.6,0,149.6-67,149.6-149.6
				c0-2.9-0.1-5.8-0.3-8.6h-86.6C170.8,96.4,118.2,149,118.2,213.8z"/>
			<path style="fill:#9657B6;" d="M456.6,394.4h4.4V230.3h-28.3v140.3C432.7,383.8,443.4,394.4,456.6,394.4z"/>
			<rect x="299.2" y="96.4" style="fill:#9657B6;" width="72" height="32.9"/>
			<path style="fill:#9657B6;" d="M231,276.8c0.1,6.5,5.4,11.8,12,11.8c6.6,0,11.9-5.3,12-11.8H231z"/>
			<path style="fill:#9657B6;" d="M343.5,276.8c0.1,6.5,5.4,11.8,12,11.8c6.6,0,11.9-5.3,12-11.8H343.5z"/>
			<polygon style="fill:#FBD854;stroke:#9657B6;stroke-width:2;stroke-miterlimit:10;" points="315.5,282.7 283,282.7 284.1,276.3 
				314.3,276.3 			"/>
			
				<rect x="146.9" y="258.5" style="fill:#FBD854;stroke:#9657B6;stroke-width:2;stroke-miterlimit:10;" width="45.1" height="8.5"/>
			
				<rect x="406.5" y="258.5" style="fill:#FBD854;stroke:#9657B6;stroke-width:2;stroke-miterlimit:10;" width="45.1" height="8.5"/>
			<path style="fill:#9657B6;" d="M375.5,96.4h-32.8c-4.4,13.4-6.8,27.7-6.8,42.6c0,74.8,60.6,135.5,135.5,135.5
				c3.5,0,7-0.1,10.5-0.4v-71.3C481.8,144,434.2,96.4,375.5,96.4z"/>
			<path style="fill:#9657B6;" d="M141.9,394.4h-4.4V230.3h28.3v140.3C165.8,383.8,155.1,394.4,141.9,394.4z"/>
		</g>
		<path style="fill:#663682;" d="M550.5,800.5h-501V588.4c0-64.8,52.5-117.3,117.3-117.3h266.4c64.8,0,117.3,52.5,117.3,117.3V800.5
			z"/>
		<ellipse style="fill:#9657B6;" cx="299.2" cy="491.3" rx="65.4" ry="17.7"/>
		<ellipse style="fill:none;stroke:#ADC6FF;stroke-miterlimit:10;" cx="299.2" cy="491.3" rx="71.4" ry="22.3"/>
		<path style="fill:#FBD854;" d="M299.2,509c21.8,0,41.1-2.9,53-7.3v-42H243v40.6C254.4,505.5,275.3,509,299.2,509z"/>
		<polygon style="fill:#FBAE2F;" points="243,459.7 352.3,459.7 352.3,497.5 		"/>
	</g>
	<g>
		<g>
			<path style="fill:#FE9C99;" d="M245,727.5h121.9c1.3-1.5,2.5-3,3.7-4.6H241.4C242.5,724.4,243.7,726,245,727.5z"/>
			<path style="fill:#FB504D;" d="M306,595.5c-33.7,0-62.5,20.8-74.3,50.3h148.6C368.5,616.4,339.7,595.5,306,595.5z"/>
			<path style="fill:#FB504D;" d="M225.9,675.6c0,0.1,0,1.3,0,1.4H386c0-0.1,0-1.3,0-1.4c0-2.7-0.1-5.3-0.4-7.9H226.3
				C226.1,670.3,225.9,672.9,225.9,675.6z"/>
			<path style="fill:#FE9C99;" d="M260.6,741.5h90.7c2.1-1.4,4.1-3,6.1-4.6H254.5C256.5,738.6,258.5,740.1,260.6,741.5z"/>
			<path style="fill:#FC6949;" d="M227.4,691h157.1c0.7-3.7,1.2-7.5,1.4-11.3H226C226.2,683.5,226.7,687.3,227.4,691z"/>
			<path style="fill:#FE9C99;" d="M236.3,714.9h139.4c1-1.8,1.9-3.6,2.8-5.4h-145C234.3,711.4,235.3,713.2,236.3,714.9z"/>
			<path style="fill:#FF7A63;" d="M230.8,703.2h150.4c0.8-2.3,1.6-4.6,2.2-7H228.6C229.2,698.5,230,700.9,230.8,703.2z"/>
			<path style="fill:#FB504D;" d="M227.9,657.9c-0.6,2.5-1,5.1-1.3,7.7h158.8c-0.3-2.6-0.8-5.1-1.3-7.7H227.9z"/>
			<path style="fill:#FB504D;" d="M380.7,646.9H231.2c-1.1,2.8-2,5.8-2.8,8.8h155.1C382.8,652.7,381.8,649.8,380.7,646.9z"/>
		</g>
		<g>
			<g>
				<path style="fill:none;" d="M269.3,677.1c-2.4,0.3-4.7,0.9-6.9,1.6l9.8-1.9C271.2,676.9,270.2,677,269.3,677.1z"/>
				<path style="fill:#8886FC;" d="M198.8,696.4c-0.4,0.8-0.9,1.6-1.5,2.2c-1.8,2-4.5,3.4-8.2,4l-9.8,1.9v-13.9
					c-3.8-1-7.6-1.9-11.5-2.3c-5.2-0.6-10.3-0.5-15.3,0.3v62l26.8-5.1v-19.9l11.5-2.2c7.3-1.4,13.7-3.9,19.2-7.4
					c5.5-3.5,9.7-7.9,12.6-13c1.1-1.9,2-3.9,2.7-6c-1.6,0.5-3.2,0.9-4.9,1.1C213.1,699.3,205.9,698.2,198.8,696.4z"/>
				<path style="fill:#8886FC;" d="M272.1,676.9l-9.8,1.9c-9.3,3.1-17.7,9.2-26.6,13.8v42.1l66.1-12.6v-20.6l-39.7,7.6v-10.6
					l33.6-6.4v-12C287.8,678.5,280,676.5,272.1,676.9z"/>
				<path style="fill:#FE9C99;" d="M272.1,676.9c7.9-0.4,15.7,1.6,23.6,3.2v-7.7L272.1,676.9z"/>
				<path style="fill:#8886FC;" d="M356.9,668.2c-1.8,2-4.5,3.4-8.2,4l-9.8,1.9v-0.2c-8.5,4.4-17.3,7.6-26.8,8v38.3L339,715v-20.3
					l7.3-1.4l13.5,17.8l28.6-5.5l-16.7-21.8c4.8-3.5,8.6-7.6,11.1-12.4c2.6-4.8,3.9-10.1,3.9-15.9c0-3-0.4-5.8-1.1-8.3
					c-9,3.6-17.6,8.9-26,14.2C359.5,664.1,358.6,666.4,356.9,668.2z"/>
				<path style="fill:#8886FC;" d="M397.1,643.8c-0.1,0-0.2,0.1-0.4,0.1V704l62.7-12v-21.2l-35.9,6.8v-35.1
					C414.7,642.3,405.8,642,397.1,643.8z"/>
				<path style="fill:#FE9C99;" d="M222.6,670.6c-3-4.1-7.2-6.8-12.6-8.2c-5.5-1.4-11.8-1.4-19.2,0l-38.3,7.3v18.9
					c5-0.7,10.1-0.9,15.3-0.3c3.9,0.4,7.7,1.3,11.5,2.3v-5l9.8-1.9c3.6-0.7,6.4-0.4,8.2,0.9c1.8,1.3,2.7,3.5,2.7,6.5
					c0,2-0.4,3.7-1.2,5.3c7.1,1.9,14.3,3,21.6,1.8c1.7-0.3,3.3-0.7,4.9-1.1c1.2-3.5,1.8-7.2,1.8-11.1
					C227,679.8,225.5,674.7,222.6,670.6z"/>
				<path style="fill:#FE9C99;" d="M262.1,678.8v-9.5l38.3-7.3v-20.6l-64.6,12.3v38.8c8.9-4.7,17.3-10.8,26.6-13.8L262.1,678.8z"/>
				<path style="fill:#FE9C99;" d="M369.6,631.9c-5.5-1.4-11.8-1.4-19.2,0l-38.3,7.3v42.6c9.5-0.4,18.3-3.6,26.8-8v-18.7l9.8-1.9
					c3.6-0.7,6.4-0.4,8.2,0.9c1.8,1.3,2.7,3.5,2.7,6.5c0,0.3,0,0.6,0,0.8c8.4-5.4,17-10.7,26-14.2c-0.7-2.6-1.9-5-3.4-7.1
					C379.3,636.1,375.1,633.4,369.6,631.9z"/>
				<path style="fill:#FE9C99;" d="M396.8,623.1v20.8c0.1,0,0.2-0.1,0.4-0.1c8.7-1.7,17.5-1.4,26.4-1.1v-24.7L396.8,623.1z"/>
			</g>
			<g>
				<path style="fill:#FFFDFF;" d="M201,661.3c3.2,0,6.2,0.4,9,1.1c5.5,1.4,9.7,4.2,12.6,8.2c3,4.1,4.4,9.2,4.4,15.3
					c0,6.2-1.5,11.8-4.4,17s-7.2,9.5-12.6,13c-5.5,3.5-11.8,6-19.2,7.4l-11.5,2.2v19.9l-26.8,5.1v-80.9l38.3-7.3
					C194.4,661.6,197.8,661.3,201,661.3 M179.3,704.5l9.8-1.9c3.6-0.7,6.4-2,8.2-4c1.8-2,2.7-4.5,2.7-7.5c0-3-0.9-5.2-2.7-6.5
					c-1.2-0.9-2.8-1.3-4.7-1.3c-1,0-2.2,0.1-3.4,0.4l-9.8,1.9V704.5 M201,660.3L201,660.3c-3.2,0-6.7,0.4-10.4,1.1l-38.3,7.3
					l-0.8,0.2v0.8v80.9v1.2l1.2-0.2l26.8-5.1l0.8-0.2v-0.8v-19.1l10.7-2c7.4-1.4,14-3.9,19.5-7.5c5.6-3.6,9.9-8.1,12.9-13.4
					c3-5.3,4.6-11.2,4.6-17.5c0-6.4-1.6-11.7-4.6-15.9c-3.1-4.2-7.5-7.1-13.2-8.6C207.4,660.7,204.3,660.3,201,660.3L201,660.3z
					 M180.3,686.4l9-1.7c1.2-0.2,2.3-0.3,3.3-0.3c1.7,0,3.1,0.4,4.1,1.1c1.6,1.1,2.3,3,2.3,5.7c0,2.8-0.8,5-2.5,6.8
					c-1.7,1.8-4.2,3.1-7.6,3.7l-8.6,1.6V686.4L180.3,686.4z"/>
				<path style="fill:#FFFDFF;" d="M300.3,641.4V662l-38.3,7.3v9.5l33.6-6.4V692l-33.6,6.4v10.6l39.7-7.6v20.6l-66.1,12.6v-80.9
					L300.3,641.4 M301.3,640.2l-1.2,0.2l-64.6,12.3l-0.8,0.2v0.8v80.9v1.2l1.2-0.2l66.1-12.6l0.8-0.2v-0.8v-20.6v-1.2l-1.2,0.2
					l-38.6,7.4v-8.6l32.8-6.3l0.8-0.2V692v-19.7v-1.2l-1.2,0.2l-32.4,6.2v-7.4l37.5-7.1l0.8-0.2V662v-20.6V640.2L301.3,640.2z"/>
				<path style="fill:#FFFDFF;" d="M360.7,630.8c3.2,0,6.2,0.4,9,1.1c5.5,1.4,9.7,4.2,12.6,8.2c3,4.1,4.4,9.2,4.4,15.3
					c0,5.8-1.3,11.1-3.9,15.9c-2.6,4.8-6.3,8.9-11.1,12.4l16.7,21.8l-28.6,5.5l-13.5-17.8l-7.3,1.4V715l-26.8,5.1v-80.9l38.3-7.3
					C354.1,631.2,357.5,630.8,360.7,630.8 M339,674.1l9.8-1.9c3.6-0.7,6.4-2,8.2-4c1.8-2,2.7-4.5,2.7-7.5c0-3-0.9-5.2-2.7-6.5
					c-1.2-0.9-2.8-1.3-4.7-1.3c-1,0-2.2,0.1-3.4,0.4l-9.8,1.9V674.1 M360.7,629.8c-3.2,0-6.7,0.4-10.4,1.1l-38.3,7.3l-0.8,0.2v0.8
					v80.9v1.2l1.2-0.2l26.8-5.1l0.8-0.2V715v-19.5l5.8-1.1l13.1,17.3l0.4,0.5l0.6-0.1l28.6-5.5l1.6-0.3l-1-1.3l-16.1-21
					c4.6-3.4,8.1-7.5,10.6-12.1c2.6-4.9,4-10.4,4-16.4c0-6.4-1.6-11.7-4.6-15.9c-3.1-4.2-7.5-7.1-13.2-8.6
					C367.1,630.2,364,629.8,360.7,629.8L360.7,629.8z M340,655.9l9-1.7c1.2-0.2,2.3-0.3,3.3-0.3c1.7,0,3.1,0.4,4.1,1.1
					c1.6,1.1,2.3,3,2.3,5.7c0,2.8-0.8,5-2.5,6.8c-1.7,1.8-4.2,3.1-7.6,3.7l-8.6,1.6V655.9L340,655.9z"/>
				<path style="fill:#FFFDFF;" d="M423.6,617.9v59.8l35.9-6.8V692l-62.7,12v-80.9L423.6,617.9 M424.6,616.7l-1.2,0.2l-26.8,5.1
					l-0.8,0.2v0.8V704v1.2l1.2-0.2l62.7-12l0.8-0.2V692v-21.2v-1.2l-1.2,0.2l-34.7,6.6v-58.6V616.7L424.6,616.7z"/>
			</g>
		</g>
	</g>
</g>
<g id="sparkles">
	<path style="fill:#FFFDFF;" d="M171.6,670.7c-14.3,2.6-16.5,4.8-19.1,19.1c-2.6-14.3-4.8-16.5-19.1-19.1
		c14.3-2.6,16.5-5.8,19.1-20.1C155.1,665,157.3,668.1,171.6,670.7z"/>
	<path style="fill:#FFFDFF;" d="M431.6,617.9c-5,0.9-6.7,1.7-7.6,6.6c-0.9-5-1.7-5.7-6.6-6.6c5-0.9,5.7-1.7,6.6-6.6
		C424.9,616.3,426.6,617,431.6,617.9z"/>
	<path style="fill:#FFFDFF;" d="M317.1,661.7c-15.5,0.7-16.1,2.3-16.8,17.8c-0.7-15.5-1.3-17.1-16.8-17.8
		c15.5-0.7,16.1-1.3,16.8-16.8C301,660.4,301.6,661,317.1,661.7z"/>
	<path style="fill:#FFFDFF;" d="M339,725c-0.1-7.2-3.1-9.9-10.2-10c7.2-0.1,10.1-4.9,10.2-12c0.1,7.2,1.1,11.9,8.2,12
		C340.1,715,339.1,717.8,339,725z"/>
	<path style="fill:#FFFDFF;" d="M152.5,764.9c-0.1-9.4-2-15.1-11.4-15.2c9.4-0.1,11.2-2.9,11.4-12.2c0.1,9.4,2,12.1,11.4,12.2
		C154.5,749.8,152.6,755.5,152.5,764.9z"/>
</g>
</svg>
