<svg xmlns="http://www.w3.org/2000/svg" xml:space="preserve" id="Layer_1" x="0" y="0" version="1.1" viewBox="0 0 600 800">
  <rect width="201.8" height="201.8" x="-2.4" y="-3.4" fill="#adc6ff"/>
  <rect width="201.8" height="201.8" x="199.4" y="-3.4" fill="#8ff4ee"/>
  <rect width="201.8" height="201.8" x="401.2" y="-3.4" fill="#fbae2f"/>
  <rect width="201.8" height="201.8" x="-2.4" y="198.4" fill="#fc6949"/>
  <rect width="201.8" height="201.8" x="401.2" y="198.4" fill="#fbd854" transform="rotate(-180 502.099 299.29)"/>
  <rect width="201.8" height="201.8" x="199.4" y="198.4" fill="#663682" transform="rotate(-180 300.296 299.29)"/>
  <rect width="201.8" height="201.8" x="-2.4" y="400.1" fill="#9657b6"/>
  <rect width="201.8" height="201.8" x="199.4" y="400.1" fill="#8886fc"/>
  <rect width="201.8" height="201.8" x="401.2" y="400.1" fill="#ff935e"/>
  <rect width="201.8" height="201.8" x="-2.4" y="601.9" fill="#8ff4ee"/>
  <rect width="201.8" height="201.8" x="199.4" y="601.9" fill="#fbd854"/>
  <rect width="201.8" height="201.8" x="401.2" y="601.9" fill="#adc6ff"/>
  <path fill="#8ff4ee" d="M299.2 513.3v27.5h-8.3v-27.5l-31.9-52h9l27.3 44.7 27.3-44.7h8.4l-31.8 52z"/>
  <path fill="#9657b6" d="M506.9 468.5h-28v-7.3h64.3v7.3h-28v72.3h-8.4v-72.3z"/>
  <path fill="#fb504d" d="M131.7 663v79.6h-8.3v-36.7H73.7v36.7h-8.4V663h8.4v35.5h49.8V663h8.2z"/>
  <path fill="#8886fc" d="M278.9 738c-6.4-3.5-11.4-8.4-15-14.5-3.6-6.1-5.4-13-5.4-20.7 0-7.7 1.8-14.5 5.4-20.7 3.6-6.1 8.6-11 15-14.5s13.5-5.3 21.4-5.3c7.9 0 15 1.7 21.3 5.2 6.3 3.5 11.3 8.3 14.9 14.5 3.6 6.2 5.5 13.1 5.5 20.7 0 7.7-1.8 14.6-5.5 20.7-3.6 6.2-8.6 11-14.9 14.5-6.3 3.5-13.4 5.2-21.3 5.2-7.8.2-15-1.6-21.4-5.1zm38.5-6.5c5.1-2.8 9.1-6.8 11.9-11.8 2.9-5 4.3-10.7 4.3-16.9 0-6.2-1.4-11.8-4.3-16.9-2.9-5-6.9-9-11.9-11.8-5.1-2.8-10.8-4.3-17-4.3-6.3 0-12 1.4-17.1 4.3-5.1 2.8-9.1 6.8-12 11.8-2.9 5-4.4 10.7-4.4 16.9 0 6.2 1.5 11.8 4.4 16.9 2.9 5 6.9 9 12 11.8 5.1 2.8 10.8 4.3 17.1 4.3 6.2 0 11.9-1.5 17-4.3z"/>
  <path fill="#fbd854" d="M544.3 663v79.6h-6.9L486.2 678v64.6h-8.4V663h6.9l51.3 64.6V663h8.3z"/>
  <path fill="#ff7a63" d="M121 65c5.8 4.8 8.6 11.5 8.6 20s-2.9 15.1-8.6 19.9c-5.8 4.8-13.7 7.2-23.9 7.2H75.8v25.1h-8.4V57.8h29.8c10.1 0 18 2.4 23.8 7.2zm-6 34.6c4.2-3.4 6.3-8.3 6.3-14.6 0-6.4-2.1-11.4-6.3-14.8-4.2-3.4-10.2-5.2-18.1-5.2H75.8v39.8h21.1c7.9 0 13.9-1.7 18.1-5.2z"/>
  <path fill="#fbae2f" d="M296.1 57.8h8.4v79.6h-8.4V57.8z"/>
  <rect width="22.5" height="22.5" x="355.9" y="175.8" fill="#fbae2f"/>
  <rect width="22.5" height="22.5" x="390.1" y="590.8" fill="#fbae2f"/>
  <rect width="22.5" height="22.5" x="-2.4" y="-3.4" fill="#fbae2f"/>
  <rect width="22.5" height="22.5" x="558" y="355.4" fill="#fbae2f"/>
  <rect width="22.5" height="22.5" x="188.6" y="224.4" fill="#fbae2f"/>
  <rect width="22.5" height="22.5" x="401.3" y="69.5" fill="#ff935e"/>
  <rect width="22.5" height="22.5" x="580.5" y="288.1" fill="#fbae2f"/>
  <rect width="22.5" height="22.5" x="580.5" y="220.7" fill="#ff935e"/>
  <rect width="22.5" height="22.5" x="228.8" y="631.5" fill="#adc6ff"/>
  <rect width="22.5" height="22.5" x="558" y="445.3" fill="#fb504d"/>
  <rect width="22.5" height="22.5" x="558" y="310.5" fill="#8886fc"/>
  <rect width="22.5" height="22.5" x="401.2" y="377.7" fill="#f87e37"/>
  <rect width="22.5" height="22.5" x="423.3" y="265.6" fill="#fbae2f"/>
  <rect width="22.5" height="22.5" x="445.7" y="355.4" fill="#fb504d"/>
  <rect width="22.5" height="22.5" x="423.3" y="333" fill="#8886fc"/>
  <rect width="22.5" height="22.5" x="535.6" y="220.7" fill="#8886fc"/>
  <rect width="22.5" height="22.5" x="217.6" y="400.3" fill="#8ff4ee"/>
  <rect width="22.5" height="22.5" x="490.6" y="333" fill="#adc6ff"/>
  <rect width="22.5" height="22.5" x="490.6" y="310.5" fill="#fbae2f"/>
  <rect width="22.5" height="22.5" x="490.6" y="288.1" fill="#ff7a63"/>
  <rect width="22.5" height="22.5" x="513.1" y="288.1" fill="#8886fc"/>
  <rect width="22.5" height="22.5" x="468.2" y="288.1" fill="#fc6949"/>
  <rect width="22.5" height="22.5" x="490.6" y="265.6" fill="#fb504d"/>
  <rect width="22.5" height="22.5" x="535.6" y="400.1" fill="#8ff4ee"/>
  <rect width="22.5" height="22.5" x="355.9" y="377.9" fill="#ff7a63"/>
  <rect width="22.5" height="22.5" x="580.5" y="781.2" fill="#8886fc"/>
  <rect width="22.5" height="22.5" x="558" y="161.1" fill="#adc6ff"/>
  <rect width="22.5" height="22.5" x="490.6" y="220.7" fill="#ff7a63"/>
  <rect width="22.5" height="22.5" x="188.6" y="553.6" fill="#ff935e"/>
  <rect width="22.5" height="22.5" x="490.6" y="377.9" fill="#ff935e"/>
  <polygon fill="#663682" points="535.6,265.6 535.6,243.1 468.2,243.1 468.2,265.6 445.7,265.6 445.7,333 468.2,333 468.2,355.4 490.6,355.4 490.6,310.5 468.2,310.5 468.2,288.1 490.6,288.1 490.6,265.6 513.1,265.6 513.1,288.1 535.6,288.1 535.6,310.5 513.1,310.5 513.1,355.4 535.6,355.4 535.6,333 558,333 558,265.6"/>
  <path fill="#fb504d" d="M539.2 130v7.3h-56.3V57.8h54.6V65h-46.1v28.3h41.1v7.2h-41.1V130h47.8z"/>
  <path fill="#9657b6" d="M94.3 266.8h-28v-7.3h64.3v7.3h-28v72.3h-8.4v-72.3z"/>
  <g>
    <path fill="#8886fc" d="M456.1 144.2h-9.5c-25.1 0-45.4 20.3-45.4 45.4v8.8h46.2v10H300.1c-25.1 0-45.4 20.3-45.4 45.4v21.4c0 24.7 19.7 44.7 44.2 45.4h102.4l.1-47.9h-96.9l.1-10.1H456.2l5.1-.3c22.7-2.6 40.3-21.8 40.3-45.1v-27.6c-.1-25.1-20.4-45.4-45.5-45.4z"/>
    <circle cx="423.9" cy="172.3" r="9.4" fill="#fbd854"/>
  </g>
  <g>
    <path fill="#fbd854" d="M144.5 454.2h9.5c25.1 0 45.4-20.3 45.4-45.4V400h-46.2v-10h147.5c25.1 0 45.4-20.3 45.4-45.4v-21.4c0-24.7-19.7-44.7-44.2-45.4H199.6l-.1 47.9h96.9l-.1 10.1H144.4l-5.1.3c-22.7 2.6-40.3 21.8-40.3 45.1v27.6c.1 25.1 20.4 45.4 45.5 45.4z"/>
    <circle cx="176.7" cy="426.1" r="9.4" fill="#8886fc"/>
  </g>
  <path fill="#fbae2f" d="M121 468.5c5.8 4.8 8.6 11.5 8.6 20s-2.9 15.1-8.6 19.9c-5.8 4.8-13.7 7.2-23.9 7.2H75.8v25.1h-8.4v-79.6h29.8c10.1.2 18 2.6 23.8 7.4zm-6 34.6c4.2-3.4 6.3-8.3 6.3-14.6 0-6.4-2.1-11.4-6.3-14.8-4.2-3.4-10.2-5.2-18.1-5.2H75.8v39.8h21.1c7.9 0 13.9-1.7 18.1-5.2z"/>
  <rect width="22.5" height="22.5" x="144.8" y="760.5" fill="#fbd854"/>
  <path fill="#8886fc" d="M411.5 732.1h-10.3v54h55.6v-8.7c0-25-20.3-45.3-45.3-45.3z"/>
  <path fill="#fbd854" d="M189.1 68.3h10.3v-54h-55.6V23c0 25 20.3 45.3 45.3 45.3z"/>
  <rect width="22.5" height="22.5" x="468.2" y="422.8" fill="#f87e37"/>
</svg>
