<svg id="Layer_1" data-name="Layer 1" xmlns="http://www.w3.org/2000/svg" viewBox="0 0 100.38 100.38"><defs><style>.cls-1{isolation:isolate;}.cls-2{fill:#8886fc;}.cls-3{fill:#fff;}</style></defs><g class="cls-1"><polygon class="cls-2" points="38.64 92.97 26.81 86.1 62.52 65.48 74.35 72.36 38.64 92.97"/><polygon class="cls-3" points="38.48 35.52 26.65 28.64 62.36 8.03 74.19 14.9 38.48 35.52"/><polygon class="cls-2" points="74.35 72.36 62.52 65.48 62.36 8.03 74.19 14.9 74.35 72.36"/><polygon class="cls-3" points="74.19 14.9 74.35 72.36 38.64 92.97 38.48 35.52 74.19 14.9"/><path class="cls-2" d="M37.87,35.18,74.78,13.87,75,72.7,38,94ZM74.35,72.36,74.19,14.9,38.48,35.52,38.64,93,74.35,72.36"/><polygon class="cls-2" points="38.04 94 26.21 87.13 26.05 28.31 37.88 35.18 38.04 94"/><polygon class="cls-2" points="37.88 35.18 26.05 28.31 62.95 7 74.78 13.87 37.88 35.18"/></g><g class="cls-1"><polygon class="cls-2" points="70.27 23.24 70.29 28.71 41.72 45.21 41.7 39.73 70.27 23.24"/></g><g class="cls-1"><polygon class="cls-2" points="70.27 35.82 70.29 41.29 41.72 57.79 41.7 52.31 70.27 35.82"/></g><g class="cls-1"><polygon class="cls-2" points="70.27 48.41 70.29 53.88 41.72 70.37 41.7 64.9 70.27 48.41"/></g><g class="cls-1"><polygon class="cls-2" points="54.27 70.67 54.28 76.14 41.78 83.36 41.77 77.89 54.27 70.67"/></g></svg>