<svg id="Layer_1" data-name="Layer 1" xmlns="http://www.w3.org/2000/svg" viewBox="0 0 100.38 100.38"><defs><style>.cls-1{isolation:isolate;}.cls-2{fill:#fbd854;}.cls-3{fill:#fc6949;}.cls-4{fill:#fbae2f;}</style></defs><g class="cls-1"><polygon class="cls-2" points="64.76 33.67 52.8 26.73 72.61 18.61 84.56 25.55 64.76 33.67"/><polygon class="cls-3" points="38.32 91 26.37 84.05 29.69 59.45 41.64 66.4 38.32 91"/><polygon class="cls-2" points="47.05 43.89 35.1 36.95 43.89 11.23 55.85 18.18 47.05 43.89"/><polygon class="cls-4" points="55.85 18.18 64.76 33.67 84.56 25.55 70.28 49.86 73.73 70.56 55.99 70.08 38.32 91 41.64 66.4 27.27 58.62 47.05 43.89 55.85 18.18"/><polygon class="cls-2" points="27.27 58.62 15.32 51.68 35.1 36.95 47.05 43.89 27.27 58.62"/></g></svg>