<?xml version="1.0" encoding="utf-8"?>
<!-- Generator: Adobe Illustrator 26.0.1, SVG Export Plug-In . SVG Version: 6.00 Build 0)  -->
<svg version="1.1" id="Layer_1" xmlns="http://www.w3.org/2000/svg" xmlns:xlink="http://www.w3.org/1999/xlink" x="0px" y="0px"
	 viewBox="0 0 600 800" style="enable-background:new 0 0 600 800;" xml:space="preserve">
<style type="text/css">
	.st0{fill:#9657B6;}
	.st1{fill:#ADC6FF;}
	.st2{fill:#8886FC;stroke:#663682;stroke-miterlimit:10;}
	.st3{fill:#8886FC;}
	.st4{fill:#FF935E;}
	.st5{fill:#FBAE2F;stroke:#FF935E;stroke-miterlimit:10;}
	.st6{fill:#F87E37;}
	.st7{fill:#FF7A63;}
	.st8{fill:#FF935E;stroke:#FF7A63;stroke-miterlimit:10;}
	.st9{fill:#FBD854;}
	.st10{fill:#FBAE2F;stroke:#F87E37;stroke-miterlimit:10;}
	.st11{fill:#FBAE2F;}
	.st12{fill:#8FF4EE;}
	.st13{fill:#FC6949;}
	.st14{fill:#663682;}
	.st15{fill:#FB504D;}
	.st16{fill:#AAEEFD;}
	.st17{fill:#8D3A40;}
	.st18{fill:#FFFDFF;}
</style>
<rect x="-1.7" y="-1.8" class="st0" width="602.6" height="803.4"/>
<g>
	<polygon class="st1" points="321.9,167.4 333.6,167.4 333.6,204.3 112.3,425.6 112.3,374.1 130,374.1 130,359.3 144.8,359.3 
		144.8,344.6 159.5,344.6 159.5,329.8 174.3,329.8 174.3,315.1 189.1,315.1 189.1,300.3 203.8,300.3 203.8,285.5 218.6,285.5 
		218.6,270.8 233.4,270.8 233.4,256 248.1,256 248.1,241.2 262.9,241.2 262.9,226.5 277.6,226.5 277.6,211.7 292.4,211.7 
		292.4,196.9 307.2,196.9 307.2,182.2 321.9,182.2 	"/>
	<polygon class="st1" points="521.8,359.3 521.8,344.6 507.1,344.6 507.1,329.8 492.3,329.8 492.3,315.1 477.5,315 477.5,300.3 
		462.8,300.3 462.8,285.5 448,285.5 448,270.8 433.2,270.7 433.2,256 418.5,256 418.5,241.2 403.7,241.2 403.7,226.5 388.9,226.5 
		388.9,211.7 374.2,211.7 374.2,196.9 359.4,196.9 359.4,182.2 344.7,182.2 344.7,167.4 323.5,167.4 320,217.9 536.6,434.5 
		536.6,374.1 536.6,359.3 	"/>
	<polygon class="st1" points="73.6,374.1 61.9,374.1 61.9,411 283.3,632.3 283.3,580.8 265.6,580.8 265.6,566 250.8,566 
		250.8,551.3 236,551.3 236,536.5 221.3,536.5 221.3,521.7 206.5,521.7 206.5,507 191.8,507 191.8,492.2 177,492.2 177,477.4 
		162.2,477.4 162.2,462.7 147.5,462.7 147.5,447.9 132.7,447.9 132.7,433.1 117.9,433.1 117.9,418.4 103.2,418.4 103.2,403.6 
		88.4,403.6 88.4,388.9 73.6,388.9 	"/>
	<g>
		<rect x="73.6" y="374.1" class="st2" width="67.1" height="14.7"/>
		<rect x="88.4" y="388.9" class="st2" width="67.1" height="14.7"/>
		<rect x="103.2" y="403.6" class="st2" width="67.1" height="14.7"/>
		<rect x="117.9" y="418.4" class="st2" width="67.1" height="14.7"/>
		<rect x="132.7" y="433.1" class="st2" width="67.1" height="14.7"/>
		<rect x="147.5" y="447.9" class="st2" width="67.1" height="14.7"/>
		<rect x="162.2" y="462.7" class="st2" width="67.1" height="14.7"/>
		<rect x="177" y="477.4" class="st2" width="67.1" height="14.7"/>
		<rect x="191.8" y="492.2" class="st2" width="67.1" height="14.7"/>
		<rect x="206.5" y="507" class="st2" width="67.1" height="14.7"/>
		<rect x="221.3" y="521.7" class="st2" width="67.1" height="14.7"/>
		<rect x="236" y="536.5" class="st2" width="67.1" height="14.7"/>
		<rect x="250.8" y="551.3" class="st2" width="67.1" height="14.7"/>
		<rect x="265.6" y="566" class="st2" width="67.1" height="14.7"/>
	</g>
	<g>
		<rect x="62.6" y="359.3" class="st2" width="67.1" height="14.7"/>
		<rect x="77.3" y="344.6" class="st2" width="67.1" height="14.7"/>
		<rect x="92.1" y="329.8" class="st2" width="67.1" height="14.7"/>
		<rect x="106.9" y="315.1" class="st2" width="67.1" height="14.7"/>
		<rect x="121.6" y="300.3" class="st2" width="67.1" height="14.7"/>
		<rect x="136.4" y="285.5" class="st2" width="67.1" height="14.7"/>
		<rect x="151.2" y="270.8" class="st2" width="67.1" height="14.7"/>
		<rect x="165.9" y="256" class="st2" width="67.1" height="14.7"/>
		<rect x="180.7" y="241.2" class="st2" width="67.1" height="14.7"/>
		<rect x="195.5" y="226.5" class="st2" width="67.1" height="14.7"/>
		<rect x="210.2" y="211.7" class="st2" width="67.1" height="14.7"/>
		<rect x="225" y="196.9" class="st2" width="67.1" height="14.7"/>
		<rect x="239.7" y="182.2" class="st2" width="67.1" height="14.7"/>
		<rect x="254.5" y="167.4" class="st2" width="67.1" height="14.7"/>
	</g>
	<g>
		<polygon class="st1" points="479.5,435.5 450.2,405.8 450.2,417.7 435.5,417.7 435.5,432.5 420.7,432.5 420.7,447.2 406,447.3 
			406,462 391.2,462 391.2,476.8 376.4,476.8 376.4,491.5 361.7,491.5 361.7,506.3 346.9,506.3 346.9,521.1 332.1,521.1 
			332.1,535.8 317.4,535.8 317.4,550.6 302.6,550.6 302.6,565.3 287.8,565.4 287.8,581.2 283.2,581.2 282.7,632.1 313.4,630.8 
			510.7,434.6 		"/>
	</g>
	<polygon class="st3" points="537.1,435.8 509.5,408 283.3,632.3 343.6,632.5 	"/>
	<polygon class="st3" points="291.8,246.1 320,217.9 537.1,435.8 480.1,437.5 	"/>
</g>
<g>
	<polygon class="st4" points="761.9,666.8 769.5,659.2 745.6,635.4 459.6,635.4 492.9,668.7 504.3,657.3 513.9,666.8 523.4,657.3 
		532.9,666.8 542.5,657.3 552,666.8 561.6,657.3 571.1,666.8 580.6,657.3 590.2,666.8 599.7,657.3 609.3,666.8 618.8,657.3 
		628.4,666.8 637.9,657.3 647.4,666.8 657,657.3 666.5,666.8 676.1,657.3 685.6,666.8 695.1,657.3 704.7,666.8 714.2,657.3 
		723.8,666.8 733.3,657.3 742.9,666.8 752.4,657.3 	"/>
	<g>
		
			<rect x="704.8" y="677" transform="matrix(-0.7071 0.7071 -0.7071 -0.7071 1739.0149 647.1464)" class="st5" width="61.4" height="13.5"/>
		
			<rect x="685.7" y="677" transform="matrix(-0.7071 0.7071 -0.7071 -0.7071 1706.4376 660.6403)" class="st5" width="61.4" height="13.5"/>
		
			<rect x="666.6" y="677" transform="matrix(-0.7071 0.7071 -0.7071 -0.7071 1673.8602 674.1343)" class="st5" width="61.4" height="13.5"/>
		
			<rect x="647.6" y="677" transform="matrix(-0.7071 0.7071 -0.7071 -0.7071 1641.2828 687.6283)" class="st5" width="61.4" height="13.5"/>
		
			<rect x="628.5" y="677" transform="matrix(-0.7071 0.7071 -0.7071 -0.7071 1608.7054 701.1223)" class="st5" width="61.4" height="13.5"/>
		
			<rect x="609.4" y="677" transform="matrix(-0.7071 0.7071 -0.7071 -0.7071 1576.1281 714.6163)" class="st5" width="61.4" height="13.5"/>
		
			<rect x="590.3" y="677" transform="matrix(-0.7071 0.7071 -0.7071 -0.7071 1543.5508 728.1103)" class="st5" width="61.4" height="13.5"/>
		
			<rect x="571.2" y="677" transform="matrix(-0.7071 0.7071 -0.7071 -0.7071 1510.9734 741.6042)" class="st5" width="61.4" height="13.5"/>
		
			<rect x="552.1" y="677" transform="matrix(-0.7071 0.7071 -0.7071 -0.7071 1478.396 755.0983)" class="st5" width="61.4" height="13.5"/>
		
			<rect x="533.1" y="677" transform="matrix(-0.7071 0.7071 -0.7071 -0.7071 1445.8186 768.5922)" class="st5" width="61.4" height="13.5"/>
		
			<rect x="514" y="677" transform="matrix(-0.7071 0.7071 -0.7071 -0.7071 1413.2412 782.0862)" class="st5" width="61.4" height="13.5"/>
		
			<rect x="494.9" y="677" transform="matrix(-0.7071 0.7071 -0.7071 -0.7071 1380.6639 795.5802)" class="st5" width="61.4" height="13.5"/>
		
			<rect x="475.8" y="677" transform="matrix(-0.7071 0.7071 -0.7071 -0.7071 1348.0865 809.0742)" class="st5" width="61.4" height="13.5"/>
		
			<rect x="456.7" y="677" transform="matrix(-0.7071 0.7071 -0.7071 -0.7071 1315.5092 822.5682)" class="st5" width="61.4" height="13.5"/>
	</g>
	<g>
		<polygon class="st4" points="459.5,889.1 497.6,889.4 489.9,881.7 499.4,872.1 489.9,862.6 499.4,853 489.9,843.5 499.4,833.9 
			489.9,824.4 499.4,814.9 489.9,805.3 499.4,795.8 489.9,786.2 499.4,776.7 489.9,767.2 499.4,757.6 489.9,748.1 499.4,738.5 
			489.9,729 499.4,719.4 489.9,709.9 499.4,700.4 489.9,690.8 499.4,681.3 489.1,671 492.2,668 459.6,636.1 440.6,655.5 
			439.9,909.8 		"/>
	</g>
	<polygon class="st6" points="422.5,926.5 458.3,926.5 459.6,635.4 420.5,674.3 	"/>
</g>
<g>
	<polygon class="st7" points="135,155.8 127.5,163.4 103.6,139.5 103.6,-146.5 137,-113.2 125.5,-101.8 135,-92.3 125.5,-82.7 
		135,-73.2 125.5,-63.6 135,-54.1 125.5,-44.5 135,-35 125.5,-25.5 135,-15.9 125.5,-6.4 135,3.2 125.5,12.7 135,22.2 125.5,31.8 
		135,41.3 125.5,50.9 135,60.4 125.5,70 135,79.5 125.5,89 135,98.6 125.5,108.1 135,117.7 125.5,127.2 135,136.7 125.5,146.3 	"/>
	<polygon class="st7" points="-118.2,161 -108.6,170.5 -99.1,161 -89.6,170.5 -80,161 -70.5,170.5 -60.9,161 -51.4,170.5 -41.8,161 
		-32.3,170.5 -22.8,161 -13.2,170.5 -3.7,161 5.9,170.5 15.4,161 24.9,170.5 34.5,161 44,170.5 53.6,161 63.1,170.5 72.7,161 
		82.2,170.5 91.7,161 101.3,170.5 110.8,161 120.4,170.5 134,156.9 103.6,122 -176.3,122 -137.3,161 -127.7,170.5 	"/>
	<g>
		
			<rect x="121.5" y="-125.6" transform="matrix(-0.7071 0.7071 -0.7071 -0.7071 175.6697 -310.5723)" class="st8" width="61.4" height="13.5"/>
		
			<rect x="121.5" y="-106.6" transform="matrix(-0.7071 0.7071 -0.7071 -0.7071 189.1637 -277.9949)" class="st8" width="61.4" height="13.5"/>
		
			<rect x="121.5" y="-87.5" transform="matrix(-0.7071 0.7071 -0.7071 -0.7071 202.6577 -245.4176)" class="st8" width="61.4" height="13.5"/>
		
			<rect x="121.5" y="-68.4" transform="matrix(-0.7071 0.7071 -0.7071 -0.7071 216.1517 -212.8402)" class="st8" width="61.4" height="13.5"/>
		
			<rect x="121.5" y="-49.3" transform="matrix(-0.7071 0.7071 -0.7071 -0.7071 229.6457 -180.2628)" class="st8" width="61.4" height="13.5"/>
		
			<rect x="121.5" y="-30.2" transform="matrix(-0.7071 0.7071 -0.7071 -0.7071 243.1396 -147.6855)" class="st8" width="61.4" height="13.5"/>
		
			<rect x="121.5" y="-11.1" transform="matrix(-0.7071 0.7071 -0.7071 -0.7071 256.6336 -115.1081)" class="st8" width="61.4" height="13.5"/>
		
			<rect x="121.5" y="7.9" transform="matrix(-0.7071 0.7071 -0.7071 -0.7071 270.1276 -82.5307)" class="st8" width="61.4" height="13.5"/>
		
			<rect x="121.5" y="27" transform="matrix(-0.7071 0.7071 -0.7071 -0.7071 283.6216 -49.9534)" class="st8" width="61.4" height="13.5"/>
		
			<rect x="121.5" y="46.1" transform="matrix(-0.7071 0.7071 -0.7071 -0.7071 297.1156 -17.376)" class="st8" width="61.4" height="13.5"/>
		
			<rect x="121.5" y="65.2" transform="matrix(-0.7071 0.7071 -0.7071 -0.7071 310.6096 15.2014)" class="st8" width="61.4" height="13.5"/>
		
			<rect x="121.5" y="84.3" transform="matrix(-0.7071 0.7071 -0.7071 -0.7071 324.1036 47.7787)" class="st8" width="61.4" height="13.5"/>
		
			<rect x="121.5" y="103.4" transform="matrix(-0.7071 0.7071 -0.7071 -0.7071 337.5976 80.3561)" class="st8" width="61.4" height="13.5"/>
		
			<rect x="121.5" y="122.4" transform="matrix(-0.7071 0.7071 -0.7071 -0.7071 351.0916 112.9335)" class="st8" width="61.4" height="13.5"/>
	</g>
	<polygon class="st4" points="103.6,85.5 103.6,122 -177.5,121.4 -141.7,83.5 	"/>
</g>
<g>
	<polygon class="st9" points="-1.8,559 -16.5,559 -16.5,605.3 261.4,883.2 261.4,818.4 239.1,818.4 239.1,799.9 220.6,799.9 
		220.6,781.4 202.1,781.4 202.1,762.9 183.5,762.9 183.5,744.3 165,744.3 165,725.8 146.5,725.8 146.5,707.3 127.9,707.3 
		127.9,688.7 109.4,688.7 109.4,670.2 90.9,670.2 90.9,651.7 72.4,651.7 72.4,633.1 53.8,633.1 53.8,614.6 35.3,614.6 35.3,596.1 
		16.8,596.1 16.8,577.5 -1.8,577.5 	"/>
	<g>
		
			<rect x="239.5" y="799.9" transform="matrix(-1 -2.245800e-10 2.245800e-10 -1 563.3041 1618.3727)" class="st5" width="84.3" height="18.5"/>
		
			<rect x="221" y="781.4" transform="matrix(-1 -2.245370e-10 2.245370e-10 -1 526.2376 1581.3062)" class="st5" width="84.3" height="18.5"/>
		
			<rect x="202.5" y="762.9" transform="matrix(-1 -2.245800e-10 2.245800e-10 -1 489.1711 1544.2396)" class="st5" width="84.3" height="18.5"/>
		
			<rect x="183.9" y="744.3" transform="matrix(-1 -2.245800e-10 2.245800e-10 -1 452.1047 1507.1732)" class="st5" width="84.3" height="18.5"/>
		
			<rect x="165.4" y="725.8" transform="matrix(-1 -2.245587e-10 2.245587e-10 -1 415.0382 1470.1067)" class="st5" width="84.3" height="18.5"/>
		
			<rect x="146.9" y="707.3" transform="matrix(-1 -2.245800e-10 2.245800e-10 -1 377.9717 1433.0403)" class="st5" width="84.3" height="18.5"/>
		
			<rect x="128.3" y="688.7" transform="matrix(-1 -2.245800e-10 2.245800e-10 -1 340.9053 1395.9738)" class="st5" width="84.3" height="18.5"/>
		
			<rect x="109.8" y="670.2" transform="matrix(-1 -2.245370e-10 2.245370e-10 -1 303.8388 1358.9073)" class="st5" width="84.3" height="18.5"/>
		
			<rect x="91.3" y="651.7" transform="matrix(-1 -2.245587e-10 2.245587e-10 -1 266.7723 1321.8408)" class="st5" width="84.3" height="18.5"/>
		
			<rect x="72.7" y="633.1" transform="matrix(-1 -2.245370e-10 2.245370e-10 -1 229.7059 1284.7744)" class="st5" width="84.3" height="18.5"/>
		
			<rect x="54.2" y="614.6" transform="matrix(-1 -2.245800e-10 2.245800e-10 -1 192.6394 1247.7079)" class="st5" width="84.3" height="18.5"/>
		
			<rect x="35.7" y="596.1" transform="matrix(-1 -2.245587e-10 2.245587e-10 -1 155.5729 1210.6415)" class="st5" width="84.3" height="18.5"/>
		
			<rect x="17.1" y="577.5" transform="matrix(-1 -2.245800e-10 2.245800e-10 -1 118.5064 1173.575)" class="st5" width="84.3" height="18.5"/>
		
			<rect x="-1.4" y="559" transform="matrix(-1 -2.245800e-10 2.245800e-10 -1 81.44 1136.5085)" class="st5" width="84.3" height="18.5"/>
	</g>
	<polygon class="st7" points="-16.4,605.3 -16.4,698.9 30.4,652.1 	"/>
</g>
<g>
	<polygon class="st6" points="690.5,259.6 690.5,274.3 644.2,274.3 366.3,-3.6 431.1,-3.6 	"/>
	<g>
		
			<rect x="575.7" y="271.6" transform="matrix(8.979757e-11 -1 1 8.979757e-11 336.9653 898.6957)" class="st10" width="84.3" height="18.5"/>
		
			<rect x="557.2" y="253.1" transform="matrix(8.981888e-11 -1 1 8.981888e-11 336.9653 861.6292)" class="st10" width="84.3" height="18.5"/>
		
			<rect x="538.6" y="234.5" transform="matrix(8.979757e-11 -1 1 8.979757e-11 336.9653 824.5627)" class="st10" width="84.3" height="18.5"/>
		
			<rect x="520.1" y="216" transform="matrix(8.979757e-11 -1 1 8.979757e-11 336.9653 787.4963)" class="st10" width="84.3" height="18.5"/>
		
			<rect x="501.6" y="197.5" transform="matrix(8.979757e-11 -1 1 8.979757e-11 336.9653 750.4298)" class="st10" width="84.3" height="18.5"/>
		
			<rect x="483" y="178.9" transform="matrix(8.979757e-11 -1 1 8.979757e-11 336.9653 713.3633)" class="st10" width="84.3" height="18.5"/>
		
			<rect x="464.5" y="160.4" transform="matrix(8.979757e-11 -1 1 8.979757e-11 336.9653 676.2969)" class="st10" width="84.3" height="18.5"/>
		
			<rect x="446" y="141.9" transform="matrix(8.979757e-11 -1 1 8.979757e-11 336.9653 639.2304)" class="st10" width="84.3" height="18.5"/>
		
			<rect x="427.4" y="123.3" transform="matrix(8.979757e-11 -1 1 8.979757e-11 336.9653 602.1639)" class="st10" width="84.3" height="18.5"/>
		
			<rect x="408.9" y="104.8" transform="matrix(8.979757e-11 -1 1 8.979757e-11 336.9653 565.0975)" class="st10" width="84.3" height="18.5"/>
		
			<rect x="390.4" y="86.3" transform="matrix(8.979757e-11 -1 1 8.979757e-11 336.9653 528.031)" class="st10" width="84.3" height="18.5"/>
		
			<rect x="371.8" y="67.7" transform="matrix(8.981888e-11 -1 1 8.981888e-11 336.9653 490.9645)" class="st10" width="84.3" height="18.5"/>
		
			<rect x="353.3" y="49.2" transform="matrix(8.979757e-11 -1 1 8.979757e-11 336.9653 453.898)" class="st10" width="84.3" height="18.5"/>
		
			<rect x="334.8" y="30.7" transform="matrix(8.979757e-11 -1 1 8.979757e-11 336.9653 416.8316)" class="st10" width="84.3" height="18.5"/>
	</g>
</g>
<polygon class="st7" points="430.5,-3.6 460.3,26.3 490.1,-3.6 "/>
<path class="st1" d="M929.7,278.8L929,523.2l212.8,122.9l0.7-244.5L929.7,278.8z"/>
<path class="st9" d="M976.2,550.6l-0.1,27.2l-23.7-13.7l0.1-27.2L976.2,550.6z"/>
<path class="st0" d="M976.3,496.1v27.2l-23.7-13.6l0.1-27.2v-0.1L976.3,496.1z"/>
<path class="st3" d="M1000,509.9v27.2l-23.7-13.7v-27.2L1000,509.9z"/>
<path class="st11" d="M976.4,468.8l-0.1,27.4l-23.6-13.7v0.1V455L976.4,468.8z M1023.7,523.5l-0.1,27.3L1000,537v-27.2L1023.7,523.5
	z"/>
<path class="st9" d="M976.5,441.5v0.3l-0.1,26.9L952.7,455l0.1-26.9v-0.3L976.5,441.5z"/>
<path class="st12" d="M1094.5,618.9v27.3l-23.7-13.7v-27.2L1094.5,618.9z"/>
<path class="st3" d="M1094.5,618.9v27.3l23.6-13.7L1094.5,618.9z"/>
<path class="st7" d="M976.2,550.6l-0.1,27.2l23.7-13.7L976.2,550.6z"/>
<path class="st0" d="M1023.7,523.6L1023.7,523.6l23.7,13.7l-0.1,27.2l-23.7-13.7L1023.7,523.6z"/>
<path class="st13" d="M976.6,414.5l-0.1,27l-23.7-13.7v0.3l0.1-27.2L976.6,414.5z"/>
<path class="st0" d="M1071.1,550.9l-0.1,27.2l-23.7-13.6l0.1-27.2v-0.1L1071.1,550.9z"/>
<path class="st4" d="M1047.5,510l-0.1,27.1v0.1l-23.7-13.6v-0.1l0.1-27.2L1047.5,510z"/>
<path class="st14" d="M1000.3,428.2l-0.1,27.3l-23.7-13.7v-0.3l0.1-27L1000.3,428.2z"/>
<path class="st9" d="M976.6,387.4v27.2L952.9,401l0.1-27.2L976.6,387.4z"/>
<path class="st15" d="M1094.8,564.6l-0.1,27.4l-23.7-13.6l0.1-27.5L1094.8,564.6z"/>
<path class="st3" d="M1047.5,482.8v0.1l-0.1,27.1l-23.7-13.6l0.1-27.2L1047.5,482.8z"/>
<path class="st0" d="M1024,441.9l-0.1,27.2l-23.7-13.6l0.1-27.3L1024,441.9z"/>
<path class="st4" d="M1047.5,455.5v27.2l-23.7-13.7l0.1-27.1L1047.5,455.5z"/>
<path class="st13" d="M1118.5,551.2l-0.1,27.2l-23.7-13.7l0.1-27.2L1118.5,551.2z"/>
<path class="st16" d="M1047.5,482.9l23.6,13.7l23.7,13.7l-0.1,54.3l-47.4-27.4l0.1-27.1l-23.7-13.7l-0.1,27.1l-23.7-13.6l-23.7-13.7
	l0.1-27.4l0.1-26.9l23.7,13.7l23.7,13.6l-0.1,27.2l23.7,13.6L1047.5,482.9z"/>
<path class="st0" d="M1071.3,469.4l-0.1,27.2l-23.6-13.7v-27.2L1071.3,469.4z"/>
<path class="st1" d="M1047.7,428.4l-0.1,27.2l-23.6-13.7v-27.1L1047.7,428.4z"/>
<path class="st0" d="M1118.5,523.9v27.2l-23.7-13.7v-27.1L1118.5,523.9z"/>
<path class="st14" d="M1095,482.9l-0.1,27v0.2l-23.7-13.6l0.1-27.2L1095,482.9z"/>
<path class="st15" d="M1118.7,496.4l-0.1,27.2l-23.7-13.6l0.1-27v-0.3L1118.7,496.4z"/>
<path class="st9" d="M1071.5,387.6l-0.1,27.2l-23.7-13.7l0.1-27.2L1071.5,387.6z"/>
<path class="st4" d="M1118.9,442.2l-0.1,27.2l-23.7-13.7l0.1-27.2L1118.9,442.2z"/>
<path class="st3" d="M1118.9,414.9v27.2l-23.7-13.6v-27.3L1118.9,414.9z"/>
<path class="st6" d="M1024.1,387.5l23.7,13.6l-0.1,27.2l-23.8-13.7L1024.1,387.5z"/>
<path class="st0" d="M1095.2,401.4v27.2l-23.7-13.7l0.1-27.2L1095.2,401.4z M1047.9,373.9l-0.1,27.2l-23.7-13.6l0.1-27.3
	L1047.9,373.9z"/>
<path class="st3" d="M976.7,360.1l-0.1,27.2L953,373.8v-27.3L976.7,360.1z"/>
<path class="st15" d="M1000.5,346.5l-0.1,27.3l-23.7-13.7l0.1-27.2L1000.5,346.5z"/>
<path class="st16" d="M1047.8,401.1l47.4,27.4l-0.1,27.2L1095,483l-23.7-13.6l-23.8-13.7l0.1-27.3l-23.7-13.6V442l-23.6-13.7
	l-23.7-13.7v-27.2l0.1-27.2l47.4,27.4l-0.1,27.1l23.7,13.7L1047.8,401.1z"/>
<path class="st11" d="M1118.8,469.4l-0.1,26.9l-23.7-13.7v0.3l0.1-27.2L1118.8,469.4z"/>
<path class="st9" d="M1118.5,578.4l-0.1,27.3l-23.7-13.7l0.1-27.4L1118.5,578.4z"/>
<path class="st15" d="M1343.2,592.1l-0.1,27.2l-23.7-13.7l0.1-27.2L1343.2,592.1z"/>
<path class="st4" d="M1366.7,578.4l-23.5,13.7l-23.7-13.7l23.5-13.7L1366.7,578.4z"/>
<path class="st17" d="M1343.2,592.1l-0.1,27.2l23.7-13.7l-0.1-27.2L1343.2,592.1z"/>
<path class="st0" d="M1047.1,591.7l-23.6,13.6l-23.8-13.6l23.6-13.7L1047.1,591.7z"/>
<path class="st14" d="M1023.5,605.2l-0.1,27.3l23.7-13.7v-27.2L1023.5,605.2z"/>
<g>
	<path class="st16" d="M928.5,550.5L905,564.2l-23.7-13.7l23.5-13.7L928.5,550.5z"/>
</g>
<g>
	<path class="st0" d="M905,564.2l-0.1,27.2l23.7-13.7l-0.1-27.2L905,564.2z"/>
</g>
<g>
	<path class="st13" d="M976.8,332.9l-0.1,27.2L953,346.4l0.1-27.2L976.8,332.9z"/>
</g>
<g>
	<path class="st6" d="M1023.5,605.2l-0.1,27.2l-23.7-13.6l0.1-27.3L1023.5,605.2z"/>
</g>
<g>
	<path class="st3" d="M1024.2,360.2l-0.1,27.2l-23.7-13.6l0.1-27.3L1024.2,360.2z"/>
</g>
<g>
	<path class="st1" d="M905,564.2l-0.1,27.2l-23.7-13.7l0.1-27.2L905,564.2z"/>
</g>
<g>
	<path class="st4" d="M1331.3,320.6l23.7-13.5l-0.1,27.4l-23.7,13.4L1331.3,320.6z"/>
	<path class="st15" d="M1142.4,401l0.2-0.1l23.5-13.3l-0.1,27.3l-23.6,13.3l-0.1,0.1L1142.4,401z"/>
	<path class="st0" d="M1355.4,279.9l-1.2,245.6l-212.8,120.7l1.2-245.2L1355.4,279.9z"/>
	<path class="st14" d="M1212.8,415.1l71-40.3l-0.1,27.3l23.7-13.4l-0.4,79.1v2.8l-23.7,13.5l-0.1,27.3l-23.7,13.5l0.3-54.7
		l23.6-13.4l0.2-27.4l-23.7,13.5l0.1-27.4l-23.7,13.5l-0.1,27.3l-23.7,13.4l-0.1,27.4l23.7-13.5l-0.3,54.7l-23.7,13.4l0.2-27.3
		l-23.7,13.4l0.4-82l23.7-13.4L1212.8,415.1z"/>
	<path class="st11" d="M1306.9,498l-0.2,27.3l23.7-13.4l0.1-27.3L1306.9,498z"/>
	<path class="st1" d="M1307.1,443.4l23.7-13.4l-0.1,27.3l-23.8,13.4v-2.8L1307.1,443.4z"/>
	<path class="st4" d="M1235.7,565.7l23.7-13.4l-0.2,27.1v0.2l-23.7,13.5v-0.2L1235.7,565.7z"/>
	<path class="st9" d="M1236.1,483.6l23.8-13.5l-0.3,27.4l-23.7,13.5L1236.1,483.6z"/>
	<path class="st0" d="M1259.5,497.5l0.2-27.3l-0.3,54.7L1259.5,497.5z"/>
	<path class="st1" d="M1235.9,511l23.7-13.5l-0.1,27.4l-23.7,13.4L1235.9,511z M1259.9,442.9l23.7-13.5l-0.2,27.4l-23.6,13.4
		L1259.9,442.9z"/>
	<path class="st0" d="M1236.1,483.6l-0.2,27.4l-0.1,27.3L1236.1,483.6z"/>
	<path class="st7" d="M1236.2,456.4l23.7-13.4l-0.1,27.3l-23.7,13.4L1236.2,456.4z"/>
	<path class="st1" d="M1283.9,347.4l23.7-13.4l-0.2,27.3l-23.7,13.5L1283.9,347.4z"/>
	<path class="st15" d="M1236.3,429l23.7-13.5l-0.1,27.4l-23.7,13.4L1236.3,429z"/>
	<path class="st13" d="M1212.4,469.8l23.7-13.4l-0.1,27.3l-23.6,13.5V469.8z"/>
	<path class="st1" d="M1164.9,551.4l23.7-13.5l-0.2,27.4l-23.6,13.4L1164.9,551.4z"/>
	<path class="st9" d="M1165.3,469.4l23.7-13.5l-0.2,27.4l-23.6,13.4L1165.3,469.4z"/>
	<path class="st6" d="M1189.4,373.9l23.7-13.4v0.2l-0.2,27.1l-23.7,13.5l0.2-27.2V373.9z"/>
	<g>
		<path class="st9" d="M1330.9,402.6l23.7-13.5l-0.1,27.4l-23.7,13.4L1330.9,402.6z"/>
	</g>
</g>
<g>
	<path class="st16" d="M1141.1,155.8l212.8,122.9l-211.4,122.9L929.7,278.8L1141.1,155.8z"/>
</g>
<path class="st11" d="M1259.9,470.2l-23.7-13.9l0.1-27.3L1260,443L1259.9,470.2z"/>
<path class="st9" d="M1259.9,442.9l-23.7-13.9l23.7-13.5l23.6,13.9L1259.9,442.9z"/>
<path class="st11" d="M1235.5,593.1l-23.6-13.9l0.1-27.4l23.6,13.9L1235.5,593.1z"/>
<path class="st9" d="M1235.7,565.7l-23.6-13.9l23.6-13.4l23.7,13.9L1235.7,565.7z"/>
<path class="st11" d="M1000.2,455.5l23.8-13.6v27.2l-23.7,14.4L1000.2,455.5z"/>
<g>
	<path class="st4" d="M1000.2,455.5l0.1,28l-23.9-14.8l0.1-27L1000.2,455.5z"/>
</g>
<path class="st9" d="M1000.3,428.2l-23.8,13.5l23.7,13.8l23.8-13.6L1000.3,428.2z"/>
<path class="st3" d="M1047.5,509.9l23.8-13.5l-0.2,54.4l-23.5-13.3L1047.5,509.9z"/>
<g>
	<path class="st4" d="M1047.5,509.9l0.1,27.6l-23.9-14.1l0.1-27.2L1047.5,509.9z"/>
</g>
<path class="st3" d="M1023.9,469.1l23.6,40.8l23.8-13.5L1023.9,469.1z"/>
<path class="st14" d="M1047.4,482.8l-23.6,13.5l23.5,13.7l23.8-13.5L1047.4,482.8z M1094.9,510.1l-47.3,27.3l23.5,13.4l23.8-13.4
	V510.1z M1071.1,550.9l23.7,13.7l0.1-27.1L1071.1,550.9z"/>
<path class="st3" d="M1283.3,484.1l-23.4-13.9l-0.3,27.3l23.6,13.9L1283.3,484.1z M1306.9,388.8l-23.4,13.4l-0.2,54.7l23.6,13.8
	V388.8z"/>
<path class="st3" d="M1283.8,374.9l-23.6,13.4l23.6,13.9V374.9z M1212.7,469.8l-23.7-13.9l-0.2,27.4l23.7,13.9L1212.7,469.8z
	 M1236.3,429l-23.5-13.9l-0.1,27.3l23.5,13.9L1236.3,429z M1235.9,483.6l-23.4,13.5l-0.2,27.3l23.5,13.9L1235.9,483.6z"/>
<path class="st14" d="M1283.2,511.4l-23.6-13.9l-0.1,27.4L1283.2,511.4z"/>
<g>
	<path class="st3" d="M1142.4,379.6l173.7-100.9l-174.9-100.9L967.6,278.8L1142.4,379.6"/>
	<path class="st11" d="M967.6,266.9l174.8,101v11.9l-174.8-101V266.9z"/>
</g>
<g>
	<path class="st3" d="M1141.2,165.9L1316,266.9l-173.6,101l-174.8-101L1141.2,165.9z M1142.4,366.1l170.8-99.3l-172-99.3
		l-170.8,99.3L1142.4,366.1"/>
	<path class="st14" d="M1287.9,266.9l-145.6,84.7l-146.6-84.7l145.6-84.6L1287.9,266.9z"/>
	<path class="st18" d="M1141.2,167.6l172,99.2l-170.8,99.3l-172-99.3L1141.2,167.6z M1142.3,351.5l145.6-84.7l-146.6-84.6
		l-145.6,84.6L1142.3,351.5"/>
</g>
<path class="st14" d="M1141.3,182.2v121.3l41.8,24.2l104.8-60.9L1141.3,182.2z"/>
<path class="st3" d="M1178.1,266.4h29.2v-145c0-9.9-8.1-18-18-18H1178L1178.1,266.4L1178.1,266.4z"/>
<path class="st14" d="M1183.1,327.8l-41.8-24.2l-41,23.8l42,24.2L1183.1,327.8z"/>
<path class="st4" d="M1315.9,266.9v11.9l-173.5,100.9v-11.8L1315.9,266.9z M1174.3,332.9l-32,18.6l-36.3-20.9l28.8-248.9
	c1-8.5,13.4-8.4,14.3,0.1L1174.3,332.9L1174.3,332.9z"/>
<path class="st7" d="M1174.3,332.9l-32,18.6l0.2-270.6c0-4.2,6.1-4.5,6.5-0.3L1174.3,332.9z"/>
<g>
	<circle class="st6" cx="1142.4" cy="50.4" r="35.4"/>
	<path class="st13" d="M1124.8,19.5c16-9.2,36.4-3.7,45.6,12.3c9.2,16,3.7,36.4-12.3,45.6s-36.4,3.7-45.6-12.3
		C1103.4,49.2,1108.9,28.8,1124.8,19.5c-17,9.8-22.8,31.4-13.1,48.4c9.8,17,31.4,22.8,48.4,13.1s22.8-31.4,13.1-48.4
		C1163.4,15.6,1141.8,9.9,1124.8,19.5z"/>
	
		<ellipse transform="matrix(0.9151 -0.4032 0.4032 0.9151 84.184 458.5988)" class="st18" cx="1131.2" cy="29.4" rx="15.3" ry="8.2"/>
</g>
<g>
	<path class="st4" d="M1044.4,58.2l80.6,116.2l6.7-51l-80.9-70.9c-1.4-1.3-3.6-1.4-5.2-0.4C1043.4,53.4,1042.9,56.2,1044.4,58.2
		L1044.4,58.2z"/>
</g>
<g>
	<path class="st4" d="M1099.3,125.1l-48.1-1.7l-1.5,5.7l60,11L1099.3,125.1z"/>
	<circle class="st7" cx="1038.4" cy="122.1" r="28.4"/>
	
		<ellipse transform="matrix(0.829 -0.5593 0.5593 0.829 116.3845 593.0563)" class="st18" cx="1027.9" cy="106.2" rx="12" ry="6.4"/>
	<path class="st15" d="M1038.4,93.7c-14.4,0-26.2,11.7-26.2,26.2s11.7,26.2,26.2,26.2c14.4,0,26.2-11.7,26.2-26.2
		S1052.9,93.7,1038.4,93.7c15.7,0,28.4,12.7,28.4,28.4s-12.7,28.4-28.4,28.4c-15.7,0-28.4-12.7-28.4-28.4
		C1010.1,106.3,1022.8,93.7,1038.4,93.7z"/>
</g>
<path class="st4" d="M1139.4,164l46.1-34.6l-1.4-34.3h5.2l5.9,29.4l32.4-24.8l3.8,2.6l-76.7,79c-6.6,6.8-18.1,3.2-19.7-6.1
	C1134.2,171,1135.9,166.6,1139.4,164z"/>
<path class="st9" d="M1183.1,225.6h-7.2v5c0,8-3.9,15.2-9.9,19.6l0.5,4.9h11.8v5.4l-37.3,0.2c-12.2,1.4-21.8,11.8-21.8,24.4V300
	c0,13.6,11,24.5,24.5,24.5h10.2c13.6,0,24.5-11,24.5-24.5v-4.7h-30v-5.4h34.6c13.6,0,24.5-11,24.5-24.5v-15.2
	C1207.7,236.6,1196.7,225.6,1183.1,225.6L1183.1,225.6z M1124.5,146.5h24.6l2.3-29.6h-8.8c-9.9,0-18,8.1-18,18L1124.5,146.5
	L1124.5,146.5z"/>
<g>
	<path class="st4" d="M1140.3,226.8l72.5-40.7l6.2,5l-65.8,53c-6.1,5.7-16,2.7-18-5.3C1134,234.1,1136.1,229.2,1140.3,226.8z"/>
	<circle class="st4" cx="1213.2" cy="192.9" r="26.6"/>
	
		<ellipse transform="matrix(0.8668 -0.4986 0.4986 0.8668 71.8915 623.9005)" class="st18" cx="1203.9" cy="177.4" rx="12.4" ry="6.6"/>
	<path class="st13" d="M1199.9,169.9c12-6.9,27.3-2.8,34.2,9.2s2.8,27.3-9.2,34.2s-27.3,2.8-34.2-9.2
		C1183.7,192.1,1187.9,176.8,1199.9,169.9c-12.7,7.3-17.1,23.6-9.8,36.3c7.3,12.7,23.6,17.1,36.3,9.8s17.1-23.6,9.8-36.3
		C1228.9,166.9,1212.6,162.6,1199.9,169.9z"/>
</g>
<path class="st9" d="M1069.1,158.1h-8.6c-13.6,0-24.5,11-24.5,24.5v15.2c0,13.6,11,24.5,24.5,24.5h34.6v13.9l22.3-0.7l3.2-31
	c-3.9-6.2-10.4-10.5-18-11.4l-37.3-0.2v-5.4h59.7c9.9,0,18-8.1,18-18v-11.6h-73.9V158.1L1069.1,158.1z"/>
<g>
	<path class="st4" d="M1093,30.5l-11.5,70.1l-7.8-8.9l16.2-62.4L1093,30.5z"/>
	<path class="st4" d="M1085.7,54.2l-7.7-14.6l-3-1.2l7,25.2L1085.7,54.2z"/>
</g>
<circle class="st3" cx="1166.4" cy="309.4" r="5.1"/>
<g>
	<path class="st3" d="M1151.4,191.2h-5.1c-13.6,0-24.5,11-24.5,24.5v4.7h24.9v5.4h-59.8c-13.6,0-24.5,11-24.5,24.5v11.6
		c0,13.3,10.6,24.1,23.9,24.5h24.9l3-25.9h-24.8l0.1-5.5h62.1l2.8-0.2c12.2-1.4,21.8-11.8,21.8-24.4v-14.6
		C1175.8,202.2,1164.8,191.2,1151.4,191.2L1151.4,191.2z"/>
	<ellipse class="st9" cx="1134" cy="206.4" rx="5.1" ry="5.1"/>
</g>
<path class="st3" d="M1178.1,103.5h-4.8c-13.6,0-24.5,11-24.5,24.5v6.1H1121V89.8c0-5.9-4.8-10.7-10.7-10.7h-7.8
	c-5.9,0-10.7,4.8-10.7,10.7v55.6c0,9.9,8.1,18,18,18h50.5c9.9,0,18-8.1,18-18v-41.9H1178.1z"/>
</svg>
